<svg data-name="Camada 1" xmlns="http://www.w3.org/2000/svg" viewBox="0 0 1074 250"><path d="M123.5 50.56c14.21-3.9 18.18 11.56 24.22 22 5.91 10.17 11.23 20.62 16.89 30.93 16.8 30.55 35.19 61 52.35 91.21 4.9 8.67 17.13 22.94 8.08 32.16-5.32 5.35-35.9 3.34-44.54 3.43-19.26.19-133.67 2.25-142.61.59-18.2-3.45-6.21-20.21-1.48-29.2 5.3-10.23 11.91-20.39 17.06-30.58 10.62-20.75 22.7-41 33.65-61.62 5.44-10.3 11.2-20.54 17-30.65 4.38-7.76 10.76-25.83 19.38-28.27zM137-2.1c-5.95 2.87-21.77 32.87-25.41 40.22-6.73 13.8-16.76 28.24-24 42.11-5.34 10.3-82.12 145.65-83.03 148.89C2 238.5 7.13 248.7 17.41 249.41c19.29 1.36 46-.44 66.18-.6l133.19-1.11c11.14-.13 56.75 1.76 63.39-3.37 13.91-10.78-5.33-33.89-11-45.22-6.92-13.71-17.65-28.37-24.94-42.13-15-28.11-32.94-56.81-49-84.57-7.79-13.61-17.77-27.77-24.81-41.55-3.42-6.72-8.89-13.86-12.66-20.54C153.63 3.14 146.39-6.64 137-2.1z" fill-rule="evenodd" fill="#fff"/><path d="M290.25 5q15.4-.13 25.75 2.18a57.91 57.91 0 0118.42 7.4 45.32 45.32 0 0113.06 12.2A51.17 51.17 0 01355 43.32a87.27 87.27 0 012.58 21.33 91.39 91.39 0 01-3.15 25.85 54.15 54.15 0 01-9.93 19.64 49.08 49.08 0 01-14.61 12.12 65 65 0 01-20 6.8 149.94 149.94 0 01-24.61 1.87l-41.87.36-.05-6.09a25.9 25.9 0 005.37-2 6.83 6.83 0 002.93-3 13.27 13.27 0 001.21-4.81c.16-1.94.23-4.38.21-7.34l-.67-79.49q0-4.33-.29-7.29a12.52 12.52 0 00-1.24-4.78 7.47 7.47 0 00-3-3 22.31 22.31 0 00-5.5-2l-.06-6.09zm-8.53 114.8a70.26 70.26 0 008.39.21q10.15-.09 17-3.1a25.4 25.4 0 008.71-6.16 40.59 40.59 0 008.9-16.58q3.23-11.1 3.09-27-.15-17.52-5-29.06t-13.38-17Q301 15.7 289.05 15.8c-3.81 0-6.55.12-8.21.25zm177.11-7.12q-9.31 10-18.51 14.27a51.19 51.19 0 01-21.17 4.33q-21.5.18-32.43-11.49T375.59 85q-.12-15 5.41-25.85a38 38 0 0115.68-16.54q10.2-5.67 23.75-5.79a50.49 50.49 0 0114.73 1.82 34.06 34.06 0 0110.84 5.3 30 30 0 017.54 8.28 46.41 46.41 0 015.37 13.24A83.24 83.24 0 01461 84l-58.47.49q.23 16.69 6.16 24.53t17.91 7.73a29.42 29.42 0 0012.6-2.75q5.6-2.69 12.09-9.37zm-25.22-38.43q-.5-14.1-3.87-21T419 46.43q-7.11.06-11.24 7.29t-4.86 20.79zM510 102.38a86.81 86.81 0 00.65 12.08 10.63 10.63 0 002.31 5.28c1.14 1.31 3.29 2.36 6.43 3.13l.05 6.08-45.19.39v-6.09a16.89 16.89 0 004.32-1.56 7.69 7.69 0 002.43-2 10.9 10.9 0 001.5-3 18.68 18.68 0 00.79-5c.1-2.12.14-5.15.1-9.08l-.6-71.94c0-5.29-.13-9.17-.24-11.67a51.17 51.17 0 00-.61-6.26 10.89 10.89 0 00-1.41-4.05 7.14 7.14 0 00-2.75-2.42 21.76 21.76 0 00-5.63-1.61l-.06-6.09 25.54-1.5L509.14-3zm86.94 14.85q-8.06 7-14.67 9.86a35.61 35.61 0 01-14 2.93q-13.74.12-20.58-7.25t-7-22.4l-.44-51.55-11.52.09-.06-6.36c3.75-.65 6.51-1.59 8.28-2.84a12.32 12.32 0 004.11-5 31.72 31.72 0 002.28-8.08 114.59 114.59 0 001.24-12.47l22-.18.19 23.05 26.28-.22.1 11.53-26.28.22.35 41.59a88 88 0 001.1 15.4c.67 3.31 1.78 5.75 3.33 7.3a7.67 7.67 0 005.74 2.3 20 20 0 004.61-.5 17.19 17.19 0 004.27-1.69 24.41 24.41 0 004.72-3.45zm60.4-1.52l-1.39-.45a54.41 54.41 0 01-14.62 10.82 35.7 35.7 0 01-15.14 3.45 30.65 30.65 0 01-13.81-2.79 20.38 20.38 0 01-8.93-8 23.4 23.4 0 01-3.1-11.88q-.11-13.55 13.15-21.46t40.36-10.16l-.07-8.76q-.07-8.58-2-13.22a12.05 12.05 0 00-12.34-8.33 16.82 16.82 0 00-7.32 1.53 13.85 13.85 0 00-5.53 5.63 32.14 32.14 0 00-3.6 11.43l-17.43.15-.15-16.79Q613.84 43 619.44 41a111.75 111.75 0 0111.09-3.46 92.71 92.71 0 019.8-2 70.22 70.22 0 018.67-.63q11.16-.09 17.87 2.8A19.88 19.88 0 01677 47.2q3.38 6.61 3.47 18.33l.3 36q.06 6.09.36 9.41a20.1 20.1 0 00.92 4.92 7.41 7.41 0 001.54 2.57 7 7 0 002.28 1.55 33.43 33.43 0 005 1.48l.06 6.09-34.31.29zM654 84.29q-14.29.48-21.12 5.52t-6.75 14.63c0 3.82 1.1 6.71 3.21 8.69s5 3 8.69 2.93a15.45 15.45 0 008-2.33 16.83 16.83 0 005.94-6.09 15.63 15.63 0 002.15-8zM306.1 226.12v-4.14a16.55 16.55 0 004.16-1.19 5 5 0 002.27-2.06 8.25 8.25 0 00.91-3.36c.11-1.36.16-3 .15-5.05l-.59-62.47h-5.08a14.85 14.85 0 00-5.76.93 8.89 8.89 0 00-3.45 2.78 17.1 17.1 0 00-2.5 5.07q-1 3.17-1.7 6l-8.58.07-.19-22 73.76-.63.18 22-8.58.07c-.82-2.83-1.47-4.92-1.94-6.25a18.07 18.07 0 00-1.56-3.4 11.63 11.63 0 00-1.81-2.34 8.44 8.44 0 00-2-1.49 9.24 9.24 0 00-2.67-.82 24.33 24.33 0 00-4.17-.24h-4.52l.53 62.48c0 2.21.1 3.89.23 5a9 9 0 00.71 2.78 5.56 5.56 0 001.24 1.72 7.12 7.12 0 002 1.17 14.75 14.75 0 003.48.82v4.13zm82.2-53.9l.82.18a30.13 30.13 0 019.33-7.85 23.24 23.24 0 0110.45-2.47 43.08 43.08 0 018 .74l.14 17.3-11.34.1a14.52 14.52 0 00-2.84-5.56 5.85 5.85 0 00-4.62-1.9 6.7 6.7 0 00-3 .87 10.7 10.7 0 00-3.05 2.41 9.71 9.71 0 00-2 3.15 13.77 13.77 0 00-.76 3.23 48.28 48.28 0 00-.14 4.89l.16 20a54.73 54.73 0 00.51 8.33 7 7 0 001.79 3.71 8.14 8.14 0 004.47 1.88v4.13l-30.89.26v-4.13a8.49 8.49 0 004.15-2.16 7.27 7.27 0 001.54-3.59 54.86 54.86 0 00.34-8.22l-.22-25.75q0-4.63-.22-6.86a10.64 10.64 0 00-.78-3.57 5.07 5.07 0 00-1.83-2.17 12.28 12.28 0 00-4.25-1.44v-4.26l17.16-.65 7.9-.06zm71.07 44.39l-.95-.3a36.83 36.83 0 01-9.93 7.35A24.15 24.15 0 01438.2 226a20.88 20.88 0 01-9.38-1.89 13.82 13.82 0 01-6.07-5.43 15.94 15.94 0 01-2.1-8.07q-.07-9.21 8.93-14.59t27.42-6.9l-.05-6a24.15 24.15 0 00-1.39-9 9.12 9.12 0 00-3.42-4.42 9.3 9.3 0 00-5-1.24 11.49 11.49 0 00-5 1 9.32 9.32 0 00-3.76 3.82 21.94 21.94 0 00-2.45 7.76l-11.84.1-.1-11.4q5.74-2.62 9.56-4a74.53 74.53 0 017.53-2.34 61.48 61.48 0 016.66-1.35 48.74 48.74 0 015.89-.42q7.57-.06 12.14 1.9a13.53 13.53 0 016.86 6.46q2.3 4.5 2.36 12.46l.21 24.43q0 4.14.24 6.39a13.52 13.52 0 00.62 3.35 5.19 5.19 0 001.05 1.75 5 5 0 001.54 1.05 23.18 23.18 0 003.43 1v4.14l-23.31.2zm-2.25-21.35q-9.72.33-14.35 3.76c-3.1 2.28-4.62 5.6-4.59 9.94a7.79 7.79 0 002.18 5.9 8.18 8.18 0 005.91 2 10.56 10.56 0 005.44-1.58 11.53 11.53 0 004-4.14 10.69 10.69 0 001.46-5.47zm94.34 10.48q0 4.77.22 7a10.7 10.7 0 00.75 3.5 4.81 4.81 0 001.83 2.15 12.57 12.57 0 004.21 1.44v4.19l-17 .71-7.58.06.48-9-.94-.06a35.65 35.65 0 01-9.43 7.14 21.65 21.65 0 01-9.54 2.55q-11.4.09-17.14-7.69t-5.87-23.51q-.09-10.65 3.3-18A23.93 23.93 0 01504.9 165q6.77-3.83 16.35-3.9a40.62 40.62 0 015.43.3 46 46 0 016.31 1.29v-5.7q-.06-6.71-.27-9.49a14.66 14.66 0 00-.82-4.26 5 5 0 00-1.8-2.27 12.71 12.71 0 00-4.34-1.4v-4.2l17.36-1 7.83-.06zm-18.31-23.15q-.06-7.65-2.66-11.32t-7.93-3.64a9.17 9.17 0 00-6.65 2.85 17.59 17.59 0 00-4.13 8.09 48.67 48.67 0 00-1.3 12.48q.11 12.34 2.85 18.4t8.45 6a11.87 11.87 0 005.34-1.39 11.67 11.67 0 004.45-4.18 11.54 11.54 0 001.76-6.44zM624.34 212a41.37 41.37 0 01-12.58 9.7 35 35 0 01-14.39 2.94q-14.6.12-22-7.8t-7.57-23.66a37.86 37.86 0 013.65-17.55 25.81 25.81 0 0110.65-11.24 33.2 33.2 0 0116.14-3.93 34.35 34.35 0 0110 1.23 23.3 23.3 0 017.4 3.6 20.39 20.39 0 015.12 5.63 31.05 31.05 0 013.65 9 56.64 56.64 0 011.42 12.58l-39.73.34q.16 11.34 4.19 16.66t12.16 5.26a20.16 20.16 0 008.58-1.86 30.21 30.21 0 008.22-6.37zm-17.15-26.11q-.33-9.58-2.62-14.27a7.56 7.56 0 00-7.31-4.63q-4.83 0-7.64 5t-3.29 14.13zm51.57-15.96l.82.18a30.4 30.4 0 019.33-7.85 23.51 23.51 0 0110.45-2.47 42.29 42.29 0 018 .75l.14 17.3-11.34.09a14.54 14.54 0 00-2.84-5.55 5.89 5.89 0 00-4.62-1.91 6.73 6.73 0 00-3 .88 10.84 10.84 0 00-3.05 2.4 9.85 9.85 0 00-2 3.16 13.66 13.66 0 00-.76 3.23 48.28 48.28 0 00-.14 4.89l.16 20a54.84 54.84 0 00.51 8.33 7.08 7.08 0 001.79 3.71 8.21 8.21 0 004.47 1.88v4.13l-30.89.26v-4.13A8.49 8.49 0 00640 217a7.2 7.2 0 001.54-3.58 54.86 54.86 0 00.34-8.22l-.22-25.75q0-4.64-.22-6.86a10.64 10.64 0 00-.78-3.57 5.16 5.16 0 00-1.83-2.18 12.53 12.53 0 00-4.25-1.43v-4.26l17.16-.65 7.9-.07z" fill="#fff"/><rect x="721.6" y="50.83" width="352.66" height="145" rx="27.67" opacity=".62" fill="#fff"/><path d="M773 159.49a1.55 1.55 0 01-.42-1.15V87.9a1.45 1.45 0 011.58-1.58h27a36.43 36.43 0 0115.08 3 23.32 23.32 0 0110.15 8.3A21.88 21.88 0 01830 110v26.28a21.85 21.85 0 01-3.57 12.4 23.27 23.27 0 01-10.14 8.32 36.59 36.59 0 01-15.08 2.94h-27a1.57 1.57 0 01-1.21-.45zM792.9 143h9a7.31 7.31 0 005.89-2.79 11.52 11.52 0 002.42-7.31v-19.56a11.1 11.1 0 00-2.31-7.31 7.57 7.57 0 00-6.1-2.78h-8.9a.46.46 0 00-.52.52v38.69a.46.46 0 00.52.54zm57.77 14.65a25.43 25.43 0 01-10.36-9.88 29 29 0 01-3.67-14.77v-19.76a28.27 28.27 0 013.67-14.51A25.14 25.14 0 01850.67 89a36.15 36.15 0 0130.91 0 25.05 25.05 0 0110.35 9.78 28.18 28.18 0 013.68 14.51V133a28.89 28.89 0 01-3.68 14.77 25.35 25.35 0 01-10.35 9.88 35.69 35.69 0 01-30.91 0zm22.5-16.29a10.9 10.9 0 002.68-7.73V113a10.9 10.9 0 00-2.68-7.73 9.23 9.23 0 00-7.1-2.89 9.09 9.09 0 00-7 2.89 10.9 10.9 0 00-2.67 7.73v20.6a10.9 10.9 0 002.68 7.73 9.12 9.12 0 007 2.89 9.26 9.26 0 007.09-2.86zm42.57 16.03a24.41 24.41 0 01-10.19-9.52 27.44 27.44 0 01-3.63-14.24v-21.24a27 27 0 013.63-14.08 24.53 24.53 0 0110.19-9.46 32.81 32.81 0 0115.19-3.37 34.74 34.74 0 0115.19 3.15A23.59 23.59 0 01960 110.82c0 .63-.53 1-1.58 1.15L941.76 113h-.31c-.84 0-1.26-.39-1.26-1.16a9.45 9.45 0 00-2.53-6.89 10.08 10.08 0 00-13.45 0 9.41 9.41 0 00-2.53 6.89v22.6a9.24 9.24 0 002.53 6.78 10.05 10.05 0 0013.45 0 9.28 9.28 0 002.53-6.78 1.1 1.1 0 01.42-.94 1.49 1.49 0 011.15-.22l16.61.85c1 .07 1.58.42 1.58 1.05a23.87 23.87 0 01-13.83 22.34 34.18 34.18 0 01-15.19 3.2 32.93 32.93 0 01-15.19-3.33zm63.55.47a23.24 23.24 0 01-10.29-8.25 21.61 21.61 0 01-3.62-12.41v-1.47a1.45 1.45 0 011.57-1.57h16.3a1.47 1.47 0 011.58 1.57v.63c0 2 1 3.7 3.1 5.21a13.65 13.65 0 008.25 2.26c2.59 0 4.45-.55 5.57-1.63a5 5 0 001.68-3.63 3.73 3.73 0 00-2.1-3.47 46 46 0 00-7.67-2.84l-3.05-.84A55.92 55.92 0 01973.2 123q-7.05-5.25-7.05-15.24a19.85 19.85 0 013.58-11.72 22.91 22.91 0 019.83-7.84 34.67 34.67 0 0114-2.73 35.48 35.48 0 0114.88 3 25.12 25.12 0 0110.56 8.68 21.9 21.9 0 013.84 12.72v.95a1.45 1.45 0 01-1.58 1.57h-16.3a1.55 1.55 0 01-1.15-.42 1.53 1.53 0 01-.42-1.15v-.11a7.65 7.65 0 00-2.84-5.73 11 11 0 00-7.68-2.57 9.06 9.06 0 00-5.3 1.36 4.39 4.39 0 00-1.95 3.79 4.21 4.21 0 001.42 3.21 15 15 0 004.36 2.52q2.94 1.2 9 3.1c.56.21 3 1 7.42 2.26a22.8 22.8 0 0111 7 18.21 18.21 0 014.42 12.36 20.64 20.64 0 01-3.58 12.14 22.69 22.69 0 01-10 7.83 37.92 37.92 0 01-14.93 2.73 38.35 38.35 0 01-15.44-2.85z" fill="#1b245b"/></svg>