<svg xmlns="http://www.w3.org/2000/svg" viewBox="0 0 590 345"><defs><style>.cls-4{fill:#fff}</style></defs><g style="isolation:isolate"><g id="Camada_1" data-name="Camada 1"><rect x="63.5" y="22.88" width="264.26" height="177.8" rx="34.67" style="mix-blend-mode:exclusion" fill="#ff5a5a"/><rect x="252.49" y="144.32" width="274.01" height="177.8" rx="34.67" style="mix-blend-mode:exclusion" fill="#5f6fff"/><path class="cls-4" d="M162.48 131.33a13.12 13.12 0 01-5.76-4.65 12.07 12.07 0 01-2.05-7v-.83a.85.85 0 01.24-.65.88.88 0 01.65-.24h9.17a.88.88 0 01.65.24.85.85 0 01.24.65v.35a3.62 3.62 0 001.74 2.93 7.68 7.68 0 004.64 1.27 4.38 4.38 0 003.14-.92 2.78 2.78 0 00.94-2 2.11 2.11 0 00-1.18-2 26.61 26.61 0 00-4.32-1.6l-1.71-.47a31.61 31.61 0 01-9.82-4.73q-4-3-4-8.58a11.2 11.2 0 012-6.59 12.89 12.89 0 015.53-4.41 19.6 19.6 0 017.9-1.53 19.93 19.93 0 018.36 1.71 14.15 14.15 0 015.92 4.85 12.32 12.32 0 012.16 7.16v.53a.83.83 0 01-.89.89h-9.17a.88.88 0 01-.65-.24.86.86 0 01-.23-.65v-.06a4.3 4.3 0 00-1.6-3.22 6.19 6.19 0 00-4.32-1.45 5.08 5.08 0 00-3 .77A2.45 2.45 0 00166 103a2.36 2.36 0 00.8 1.8 8.27 8.27 0 002.45 1.42c1.11.45 2.8 1 5.09 1.74.31.12 1.71.55 4.17 1.28a12.87 12.87 0 016.18 4 10.23 10.23 0 012.48 7 11.6 11.6 0 01-2 6.83 12.84 12.84 0 01-5.61 4.41 21.41 21.41 0 01-8.4 1.53 21.68 21.68 0 01-8.68-1.68zm58.38-30.97a.88.88 0 01-.65.24h-17.69c-.2 0-.29.1-.29.3v5.56a.25.25 0 00.29.29h10.94a.85.85 0 01.65.24.87.87 0 01.24.65v7.69a.88.88 0 01-.24.65.85.85 0 01-.65.24h-10.94c-.2 0-.29.09-.29.29v6.15c0 .2.09.3.29.3h17.69a.8.8 0 01.88.88v7.75a.81.81 0 01-.88.89H192a.81.81 0 01-.88-.89V92a.8.8 0 01.88-.89h28.22a.8.8 0 01.88.89v7.74a.89.89 0 01-.24.62zm4.2 31.88a.85.85 0 01-.24-.65V92a.82.82 0 01.89-.89h9.34a.9.9 0 01.65.23.89.89 0 01.24.66v30.69a.26.26 0 00.29.3h18.28a.9.9 0 01.65.23.88.88 0 01.24.65v7.75a.85.85 0 01-.24.65.87.87 0 01-.65.24h-28.8a.85.85 0 01-.65-.27zm33.94 0a.89.89 0 01-.23-.65V92a.8.8 0 01.89-.89H269a.9.9 0 01.65.23.89.89 0 01.24.66v30.69a.26.26 0 00.29.3h18.28a.92.92 0 01.65.23.88.88 0 01.24.65v7.75a.85.85 0 01-.24.65.88.88 0 01-.65.24h-28.8a.89.89 0 01-.66-.27zM101.92 93.13l19.67 37.3 20.39-36.91-40.06-.39z"/><path class="cls-4" d="M101.92 93.13l19.67 37.3.36-37.1-20.03-.2zm287.7 139.38a9.58 9.58 0 013.9 3.79 11.53 11.53 0 011.24 5.56q0 6.09-4.26 9t-11.06 2.86h-15.91a.8.8 0 01-.88-.88v-39.67a.86.86 0 01.23-.65.88.88 0 01.65-.24h15.38q7.57 0 11.39 2.69t3.81 9q0 5.63-4.49 8.17c-.16.13-.16.25 0 .37zm-15.86-10.41v5.9a.26.26 0 00.3.29h4.85q4.32 0 4.32-3.25t-4.32-3.26h-4.85a.27.27 0 00-.3.32zm9.88 18.57q0-3.31-4.14-3.31h-5.44a.27.27 0 00-.3.3v6.21a.26.26 0 00.3.29h5.38q4.2 0 4.2-3.49zm22.86 11.65a13.4 13.4 0 01-5.71-5.2 15 15 0 01-2-7.81v-26.14a.83.83 0 01.89-.89H409a.89.89 0 01.66.24.9.9 0 01.23.65v26.14a5.41 5.41 0 001.39 3.88 4.92 4.92 0 003.7 1.45 4.79 4.79 0 003.64-1.48 5.43 5.43 0 001.39-3.85v-26.14a.9.9 0 01.23-.65.88.88 0 01.65-.24h9.35a.88.88 0 01.65.24.87.87 0 01.24.65v26.14a15 15 0 01-2 7.81 13.41 13.41 0 01-5.67 5.2 20.44 20.44 0 01-16.95 0zm40.6 1.01a.9.9 0 01-.23-.65v-13.07l-.06-.36-12.07-25.9-.12-.48c0-.39.26-.59.77-.59h10.18a1.07 1.07 0 011.06.71l5.62 14.14c.12.28.24.28.35 0l5.62-14.13a1.07 1.07 0 011.07-.71h10.23c.51 0 .77.2.77.59l-.12.48L458 239.25a.84.84 0 00-.06.36v13.07a.83.83 0 01-.89.89h-9.29a.88.88 0 01-.66-.24zm-98.33-1.27l-19.68-37.29-20.39 36.9 40.07.39z"/><path class="cls-4" d="M348.77 252.06l-19.68-37.29-.35 37.1 20.03.19z"/></g></g></svg>