<svg data-name="Camada 1" xmlns="http://www.w3.org/2000/svg" viewBox="0 0 687.02 253.17"><path d="M119.61 53.82c14.21-3.91 18.17 11.56 24.22 22 5.9 10.17 11.23 20.62 16.89 30.93 16.79 30.54 35.18 61 52.35 91.21 4.9 8.67 17.13 22.93 8.08 32.15-5.33 5.36-35.9 3.35-44.54 3.43-19.27.2-133.67 2.26-142.61.6-18.2-3.46-6.21-20.21-1.48-29.21 5.3-10.22 11.9-20.39 17.06-30.57 10.61-20.75 22.69-41 33.64-61.62 5.45-10.3 11.21-20.54 17-30.65 4.41-7.77 10.78-25.89 19.41-28.27zM133.1 1.16C127.16 4 111.33 34 107.7 41.38c-6.73 13.8-16.77 28.24-24 42.11C78.36 93.79 1.57 229.14.67 232.38c-2.61 9.38 2.57 19.58 12.84 20.28 19.3 1.36 46-.43 66.19-.59L212.89 251c11.14-.14 56.75 1.76 63.38-3.38 13.92-10.77-5.32-33.88-11-45.21-6.92-13.71-17.65-28.37-24.95-42.13-15-28.11-32.94-56.81-49-84.58-7.79-13.6-17.77-27.76-24.81-41.54-3.43-6.72-8.87-13.88-12.64-20.55-4.14-7.17-11.38-17-20.77-12.41z" fill-rule="evenodd" fill="#fff"/><path d="M286.36 8.25q15.39-.12 25.75 2.18a57.78 57.78 0 0118.41 7.41A45.19 45.19 0 01343.58 30a51 51 0 017.48 16.54 86.81 86.81 0 012.57 21.33 91.09 91.09 0 01-3.14 25.85 54 54 0 01-9.94 19.64 48.83 48.83 0 01-14.61 12.12 64.85 64.85 0 01-20 6.8 150.87 150.87 0 01-24.61 1.87l-41.87.35-.05-6.08a26 26 0 005.38-2 6.85 6.85 0 002.93-3 13.38 13.38 0 001.2-4.8q.26-2.91.22-7.34l-.68-79.5c0-2.89-.12-5.31-.29-7.28a12.48 12.48 0 00-1.23-4.78 7.49 7.49 0 00-3-3 22.85 22.85 0 00-5.51-2V8.63zm-8.53 114.81a72.54 72.54 0 008.39.21q10.14-.09 17-3.1A25.49 25.49 0 00312 114a40.75 40.75 0 008.9-16.59q3.22-11.08 3.09-27-.15-17.52-4.95-29.06t-13.41-16.98q-8.58-5.41-20.47-5.32c-3.81 0-6.55.12-8.21.26zm177.11-7.12q-9.31 10-18.51 14.27a51.24 51.24 0 01-21.18 4.32q-21.48.19-32.42-11.48T371.7 88.24q-.13-14.94 5.36-25.83a38.06 38.06 0 0115.68-16.55q10.18-5.67 23.75-5.78a50.39 50.39 0 0114.72 1.81 34.18 34.18 0 0110.88 5.31 29.84 29.84 0 017.55 8.28A46 46 0 01455 68.72a83.19 83.19 0 012.1 18.52l-58.47.49q.22 16.69 6.15 24.53t17.91 7.74a29.58 29.58 0 0012.62-2.73q5.6-2.69 12.09-9.37zm-25.23-38.43q-.48-14.12-3.86-21t-10.76-6.82q-7.09.06-11.24 7.31T399 77.77zm76.42 28.13a86.45 86.45 0 00.66 12.08 10.62 10.62 0 002.3 5.28q1.73 2 6.44 3.13l.05 6.08-45.19.38-.05-6.08a17.28 17.28 0 004.32-1.56 7.82 7.82 0 002.43-2 11.19 11.19 0 001.49-3 18.36 18.36 0 00.79-5c.11-2.12.14-5.15.11-9.09l-.61-71.93q-.06-7.93-.23-11.67A53.24 53.24 0 00478 16a10.71 10.71 0 00-1.39-4 7 7 0 00-2.74-2.42 21.73 21.73 0 00-5.64-1.61l-.05-6.09L493.71.32l11.53-.09zm86.92 14.85q-8.07 7-14.68 9.85a35.38 35.38 0 01-14 2.93q-13.74.12-20.58-7.24t-7-22.4l-.44-51.56-11.53.1-.05-6.36c3.75-.65 6.5-1.59 8.28-2.84a12.32 12.32 0 004.11-5 32.23 32.23 0 002.28-8.09 112.22 112.22 0 001.23-12.46l22-.19.2 23.06 26.28-.22.1 11.53-26.25.25.36 41.59a89 89 0 001.09 15.39c.68 3.32 1.79 5.75 3.34 7.31a7.7 7.7 0 005.74 2.3 20.6 20.6 0 004.61-.5 17.39 17.39 0 004.27-1.7 24.72 24.72 0 004.72-3.45zm60.39-1.49l-1.38-.45a54.57 54.57 0 01-14.62 10.82 35.75 35.75 0 01-15.15 3.45 30.81 30.81 0 01-13.81-2.82 20.41 20.41 0 01-8.92-8 23.3 23.3 0 01-3.1-11.88q-.11-13.56 13.15-21.46T650 78.51l-.08-8.77q-.07-8.56-2-13.21a12 12 0 00-12.33-8.33 16.82 16.82 0 00-7.32 1.53 13.86 13.86 0 00-5.54 5.63 32.54 32.54 0 00-3.59 11.42l-17.43.15-.14-16.79q8.46-3.86 14.06-5.93a109.16 109.16 0 0111.09-3.46 89.77 89.77 0 019.8-2 68.33 68.33 0 018.67-.63Q656.27 38.06 663 41a19.86 19.86 0 0110.08 9.51q3.39 6.61 3.48 18.32l.3 36q.06 6.09.36 9.4a19.63 19.63 0 00.92 4.93 7.35 7.35 0 001.54 2.57 7.08 7.08 0 002.27 1.55 35.36 35.36 0 005 1.48v6.08l-34.3.29zm-3.31-31.42Q635.85 88 629 93.07t-6.74 14.63q0 5.72 3.21 8.69t8.69 2.92a15.35 15.35 0 008-2.32 16.94 16.94 0 005.94-6.1 15.59 15.59 0 002.14-8zM302.2 229.37v-4.13a16.29 16.29 0 004.15-1.2 5 5 0 002.28-2 8.41 8.41 0 00.91-3.36c.11-1.36.16-3 .14-5l-.53-62.48-5.07.05a15 15 0 00-5.76.92 9 9 0 00-3.45 2.79 16.86 16.86 0 00-2.5 5.07q-1 3.16-1.7 6l-8.59.07-.18-22 73.75-.62.19 22-8.59.08c-.81-2.84-1.46-4.92-1.93-6.25a17.78 17.78 0 00-1.56-3.4 12 12 0 00-1.81-2.34 8.29 8.29 0 00-2-1.49 9.05 9.05 0 00-2.67-.82 25.09 25.09 0 00-4.17-.25h-4.51l.53 62.48a49.24 49.24 0 00.23 5 8.76 8.76 0 00.71 2.78 5.4 5.4 0 001.24 1.72 6.92 6.92 0 002 1.17 14.85 14.85 0 003.49.82v4.13zm82.21-53.9l.82.18a30.18 30.18 0 019.33-7.85 23.32 23.32 0 0110.44-2.46 41.38 41.38 0 018 .74l.15 17.3-11.34.09a14.47 14.47 0 00-2.84-5.55 5.85 5.85 0 00-4.62-1.9 6.58 6.58 0 00-3 .87 10.88 10.88 0 00-3.06 2.4 9.54 9.54 0 00-2 3.16 13.77 13.77 0 00-.76 3.23 47.63 47.63 0 00-.15 4.89l.17 20a53.42 53.42 0 00.51 8.33 7 7 0 001.79 3.71 8.17 8.17 0 004.46 1.88v4.13l-30.9.26v-4.13a8.46 8.46 0 004.15-2.17 7.19 7.19 0 001.53-3.59 53.26 53.26 0 00.34-8.21l-.17-25.78q0-4.64-.22-6.86a11.09 11.09 0 00-.78-3.57 5.25 5.25 0 00-1.84-2.18 12.46 12.46 0 00-4.24-1.43v-4.26l17.17-.65 7.9-.07zm71.06 44.4l-.94-.31a37 37 0 01-9.93 7.36 24.22 24.22 0 01-10.29 2.34 20.79 20.79 0 01-9.39-1.9 13.85 13.85 0 01-6.06-5.43 15.68 15.68 0 01-2.1-8.06q-.09-9.21 8.93-14.59t27.42-6.9l-.05-5.95a24.36 24.36 0 00-1.39-9 8.17 8.17 0 00-8.38-5.66 11.54 11.54 0 00-5 1 9.54 9.54 0 00-3.76 3.83 22.09 22.09 0 00-2.44 7.76l-11.84.1-.1-11.41q5.74-2.61 9.56-4a74.63 74.63 0 017.53-2.35 63.74 63.74 0 016.66-1.34 44.74 44.74 0 015.89-.42q7.57-.08 12.14 1.9a13.49 13.49 0 016.86 6.46q2.29 4.5 2.36 12.45l.2 24.44q0 4.14.24 6.39a13.54 13.54 0 00.63 3.35 5.19 5.19 0 001.05 1.75 4.88 4.88 0 001.54 1.05 24.52 24.52 0 003.43 1v4.14l-23.31.19zm-2.25-21.35q-9.71.33-14.35 3.75t-4.58 9.94a7.82 7.82 0 002.18 5.91 8.16 8.16 0 005.91 2 10.59 10.59 0 005.44-1.58 11.48 11.48 0 004-4.15 10.64 10.64 0 001.45-5.46zM547.57 209q0 4.77.21 7a11.31 11.31 0 00.75 3.5 5 5 0 001.84 2.15 12.52 12.52 0 004.21 1.43v4.2l-17 .71-7.58.01.49-9-.94-.06a35.77 35.77 0 01-9.43 7.13 21.54 21.54 0 01-9.54 2.56q-11.4.09-17.14-7.69t-5.87-23.52q-.09-10.65 3.29-18A24 24 0 01501 168.28a33.38 33.38 0 0116.35-3.89 40.62 40.62 0 015.43.3 45.87 45.87 0 016.3 1.29l-.05-5.7q0-6.71-.26-9.5a14.66 14.66 0 00-.82-4.25 5 5 0 00-1.81-2.27 12.59 12.59 0 00-4.33-1.41v-4.2l17.35-1 7.84-.07zm-18.31-23.15q-.06-7.65-2.66-11.32t-7.93-3.64a9.08 9.08 0 00-6.65 2.85 17.5 17.5 0 00-4.13 8.09 48.53 48.53 0 00-1.31 12.48q.1 12.34 2.85 18.4t8.45 6a11.62 11.62 0 005.35-1.39 11.79 11.79 0 006.21-10.61zm91.18 29.43a41.22 41.22 0 01-12.57 9.7 35 35 0 01-14.39 2.94q-14.61.12-22-7.81t-7.57-23.65a37.86 37.86 0 013.64-17.55 25.85 25.85 0 0110.66-11.25 33.27 33.27 0 0116.13-3.92 34.42 34.42 0 0110 1.23 23.2 23.2 0 017.4 3.6 20.54 20.54 0 015.12 5.63 31.39 31.39 0 013.65 9 57.41 57.41 0 011.42 12.59l-39.73.33q.15 11.35 4.18 16.67t12.15 5.21a20 20 0 008.57-1.85 30.11 30.11 0 008.22-6.37zm-17.14-26.11q-.33-9.58-2.63-14.27a7.55 7.55 0 00-7.3-4.64q-4.83 0-7.64 5t-3.29 14.12zm51.57-15.98l.82.18a30.15 30.15 0 019.33-7.85 23.33 23.33 0 0110.44-2.47 42.21 42.21 0 018 .75l.15 17.29-11.34.1a14.4 14.4 0 00-2.84-5.55 5.86 5.86 0 00-4.62-1.91 6.83 6.83 0 00-3 .87 11.1 11.1 0 00-3.06 2.41 9.5 9.5 0 00-2 3.15 13.85 13.85 0 00-.76 3.24 47.4 47.4 0 00-.15 4.89l.17 20a53.58 53.58 0 00.51 8.34 7 7 0 001.79 3.71 8.1 8.1 0 004.46 1.87v4.14l-30.9.26v-4.13a8.62 8.62 0 004.15-2.17 7.19 7.19 0 001.53-3.59 53.26 53.26 0 00.34-8.21l-.21-25.75c0-3.1-.1-5.38-.22-6.86a11.09 11.09 0 00-.78-3.57 5.25 5.25 0 00-1.84-2.18 12.21 12.21 0 00-4.24-1.44v-4.26l17.16-.64 7.9-.07z" fill="#fff"/></svg>