<svg id="Camada_1" data-name="Camada 1" xmlns="http://www.w3.org/2000/svg" viewBox="0 0 590 345"><defs><style>.cls-3{fill:#857d2b}.cls-11{fill:#015586}.cls-12{fill:#36642b}.cls-25{fill:#3081ae}.cls-29{fill:#004e76}.cls-37{fill:#2c7daa}.cls-38{fill:#3384b0}.cls-42{fill:#20739e}.cls-61{fill:#2678a3}.cls-81{fill:#cdbe38}.cls-85{fill:#437c34}.cls-86{fill:#4b833b}.cls-92{fill:#4e863e}.cls-100{fill:#3c8bb9}.cls-104{fill:#998e2e}.cls-117{fill:#736a24}.cls-119{fill:#61994e}.cls-121{fill:#bcae34}.cls-127{fill:#6aa256}.cls-130{fill:#025585}.cls-134{fill:#e87421}.cls-156{fill:#3c8cb9}.cls-161{fill:#254a1e}.cls-164{fill:#7bb2d3}.cls-178{fill:#cebf37}.cls-185{fill:#f3eebc}.cls-190{fill:#9e932f}.cls-191{fill:#ab9f31}.cls-195{fill:#c0b235}.cls-200{fill:#c1b335}.cls-211{fill:#dece3b}.cls-248{fill:#749e69}.cls-260{fill:#427b34}.cls-298{fill:#b1a432}.cls-302{fill:#b7aa33}.cls-352{fill:#669e53}.cls-356{fill:#82ba6b}.cls-359{fill:#8ac272}.cls-368{fill:#69a057}.cls-387{fill:#7db567}.cls-390{fill:#75ad60}</style></defs><path d="M437.16 169.09c17.39 21.24 20.94 45.47 15.47 71.64a17.74 17.74 0 00-8.43 8.66c-2 1.18-3.22-.57-4.74-1.24a37.5 37.5 0 00-4.1-3.08c-1.73-1-3.56-1.77-5.37-2.6a27.65 27.65 0 00-8.3-2.69c-5.4-1.41-10.91-.69-16.36-.82-2.47-.07-4.67 1-7 1.68-3.71 1.14-6.45 3.64-9 6.37a18.54 18.54 0 00-5.28 9.73c-.73 2.31-.44 4.69-.46 7 .72 8.7 10 17.6 20.19 19.34 17.25 2.95 32.69-6.53 37.83-23.24 1.62-3.18-.2-7 2-10.1 2.77-1 2.72 1.45 3.49 2.9a36.4 36.4 0 01-51.85 32 91.31 91.31 0 01-8.55-4.9c-2.67-3.69-5.46-1.76-8.24-.14-1.51-.31-2.15-1.5-2.77-2.72-1.09-2.53-1.53-5.26-2.33-7.88a22.15 22.15 0 01-.36-5c-.51-13.69 5.46-23.81 17-30.86a43.13 43.13 0 018.35-3.67 39.34 39.34 0 015.46-1.08c6.62-.54 6.69-.6 5.1-4.76-1.34-3.59-3.67-4.65-7.16-2.83-2.45.89-5 1.34-7.47 2.18s-5.17 1.37-7.71 2.22-5.33 1.38-7.92 2.3c-5.29 1.5-10.55 3.07-15.87 4.46-3.17 0-7 2-8.68-2.71.51-1.75 2.14-2 3.48-2.59 3.29-.7 6.45-1.84 9.7-2.7 2.64-.44 5.11-1.56 7.72-2.13a27 27 0 005.16-1.8c1.77-.54 3.65-.57 5.39-1.25 3.64-1 7.17-2.44 10.82-3.47 4-.73 7.76-2.71 11.93-2.86 2.54.39 3.16 2.71 4.41 4.39 1.69 3.59 3.55 6 7.18 1.65a4.66 4.66 0 015.38-1.5c4.47 2.88 6.8 7.75 10.55 11.31 2.33 3.27 4.75 6.47 6.83 9.88 1.07.68 1.3-.21 1.42-.88 1.54-8.8 2.71-17.61 1-26.54-.84-6.07-1.88-12.09-4.21-17.81-2.56-6.69-6.49-12.66-9.87-18.93.21-3.96 1.37-6.71 6.17-4.93z" fill="#005284"/><path d="M446.13 252.85l-2.22-3.29c.34-5.47 3.21-8.44 8.71-8.83-1.53 3.52-.72 6.27 1.79 9.3 7.55 9.09 11.7 19.56 10.23 31.54-1.91 15.54-15.11 27.27-31.75 28.56-3.29.26-6.79.73-9.88-.08-5.89-1.52-9.67.81-14 4.5-17.23 14.57-36.9 23.08-60 21.89-2.84-.62-3.55-2.11-1.81-4.54 1.54-2.15 3.84-3.12 6.25-3.89a12.94 12.94 0 012.54-.48 82.73 82.73 0 0018.81-3.79 76.4 76.4 0 0030.69-18.4c-.87-1-2-.11-2.92-.38a6.52 6.52 0 01-4-1.1c-1.77-4.55 1.67-6.32 4.49-8.43 3.46-.18 6.28 1.71 9.33 2.87 8.47 3.23 17.16 4 25.82 1.35 14.47-4.36 21-18.08 15.67-32.19a54.39 54.39 0 00-5-9.73c-1.17-1.51-1.61-3.38-2.75-4.88z" fill="#004d81"/><path class="cls-3" d="M176.76 310.74c-1.83-1.6-3.79-1.41-6.12-1-8.06 1.29-16.09 1-23.86-1.9-16.13-6-24.55-21.42-20.86-38.28a42.18 42.18 0 0112.22-22.24c3.45-.55 4.22 2.55 5.94 4.35-.26 4-3.77 6.16-5.18 9.5-2.51 3.21-3.36 7.05-4.14 10.91-1.26 4.94 0 9.65 1.24 14.37 4.65 10.77 14.14 13.66 24.54 15 4.45.72 8.82-1.73 13.28-.34 1.6 3.03 4.32 5.71 2.94 9.63z"/><path d="M176.76 310.74c-.49-3.31-3.5-5.78-3.17-9.38 1.94-3.28 5.83-3.3 8.61-5.18 3.72-1.25 6.72-3.73 9.86-5.94 1.46-1 2.61-2.71 4.75-2.34a20.45 20.45 0 013.71 6.69c-.75 2.13-.92 4 2.16 4.06 1.28 1 3.11 1.43 3.07 3.53-2.17 2.65-5.56 1.27-8.16 2.49a46.34 46.34 0 01-9.56.38 15.3 15.3 0 01-5.43-.72c4.25 3.15 7.91 6.76 12.26 9.48 2.84 2.26 6.26 3.56 9.3 5.49 5.5 3.23 11.82 4.32 17.64 6.69a2.4 2.4 0 01.84 1.23c-.77 3 1.23 5.4 1.68 8.13-18.57-2.96-34.14-11.71-47.56-24.61zm-32.95-58.98c-2.86-.27-3.07-3.87-5.67-4.48-2.53-13.49-4.61-27-2.14-40.75.55-3 .72-6.15 2.22-8.94 2.44 1.72 5 3.32 7.29 5.2.36 2.73-.36 5.36-.68 8C143.1 220 144.41 229 146 238c.36 2.05 1.13 1.25 1.86.16 1.79-3.14 3.42-6.37 6-9 1.19-1.28 2-3.1 4.12-3.13a7.34 7.34 0 012.87 2.4c.66 1.06 1 2.26 1.58 3.36 1 2.29 3.14 4.1 2.94 6.9-.53 1.71-2.11 2.12-3.48 2.79a73.41 73.41 0 00-6.62 3.21 31 31 0 00-7.54 5.46c-1.18.85-2.13 2.32-3.92 1.61z" fill="#827a2a"/><path d="M263.93 27.94c7-12 16.89-19.73 31.29-19.71 14.2 0 23.85 7.87 30.95 19.46a11.06 11.06 0 01.79 2.5c-1.83 1.68-4.32 1.69-6.46 2.59-3.63-.57-4.05-4.58-6.69-6.22-5.08-5.55-11-9.35-18.86-9.28a17.71 17.71 0 00-8.18 1.56 27.4 27.4 0 00-9.87 6.57c-2 1.87-2.93 5.17-6.43 5.25-2.23-.78-4.75-.89-6.54-2.72z" fill="#3d7130"/><path d="M320.34 32.4c1.43-3 4.23-2 6.62-2.21 1.9 8.12 8.33 10.56 15.32 13a70.59 70.59 0 0124.88 14.36c-2.71 2.79-6.29 1.33-9.44 1.93-3.94.39-6.46-2.88-9.87-3.84A113.87 113.87 0 00332.33 49a24.39 24.39 0 002.35 4.13c.85 1.76 2.45 3.42.71 5.5-3.15 2-6.39 2.38-9.75.55-1.88-2.89-1.62-6.3-2.09-9.48a61.05 61.05 0 00-2.92-12.16c-.63-1.7-1.63-3.36-.29-5.14z" fill="#396a2d"/><path d="M263.93 27.94c2.54 0 5.07 0 6.81 2.36 0 4.95-2.89 9.18-3.55 14-1.14 5.13-.07 10.32-.5 15.46a5.83 5.83 0 01-1.11 3.37c-4 .17-2.71-3.08-2.9-5-.27-2.69-.59-5-3.49-6.09C258 50 256.48 49 254 50.38c-2 1.1-4.34 1.68-6.39 2.82-4.53 1.55-8.17 5.4-13.39 5.18-2.28-1.37-5.52-1.13-6.85-4.08 7.43-6.17 16.13-10 25.18-12.89 4.66-1.48 7.69-3.41 8.51-8.47.29-1.77 1.88-3.34 2.87-5z" fill="#3a6b2d"/><path d="M353.45 329c-1.44 1.38-3.53 1.59-5 3.12-1.9 2-1.09 3.07.56 4.31-18.62-.58-34.91-7.45-49.72-18.33-.22-3.77 2.17-5 5.32-5.52 4.94 1.59 8.84 5.33 13.9 6.66 4.53 2.56 9.48 4 14.44 5.45 3.55 1.2 7.27 1.54 10.95 2.13 3.04 1.33 6.83-.56 9.55 2.18z" fill="#015183"/><path d="M437.16 169.09c-3.59 0-5.35 1.77-5.4 5.32l-.69.32c-3.6-3.09-5.73-7.65-10-10-3.78-2.51-6.87-6-11-8-5-3-10.23-5.5-15.18-8.57-.68-3.13-.77-6.12 2.15-8.32 13.79 5.86 26.42 13.45 36.69 24.55 1.27 1.33 3.08 2.54 3.43 4.7z" fill="#015788"/><path d="M294.69 315.43c-12.23 8.9-25 16.63-40.3 19.09-5.07.57-5.06-2.94-5.16-6.37 1.26-1.88 3.42-2 5.31-2.49 11.88-3.06 22.33-9 32.3-15.91 4.16-.27 6.63 1.85 7.85 5.68z" fill="#7c7327"/><path class="cls-11" d="M294.69 315.43l-7.25-5.53c-1.33.14-2.15-.76-3.05-1.49-.54-.47-1.06-1-1.57-1.46-2.91-3-6.62-5-9.38-8.18-2.18-2-3.74-4.57-5.7-6.78a7.79 7.79 0 01-2.12-3.26c.3-3.59 2.42-5.39 5.84-5.89a5.09 5.09 0 012.91 1.29 82.08 82.08 0 0010.28 11.05c5.77 4.82 11.35 9.82 17.5 14.12 1.24 1.19 3.24 1.85 2.88 4.14-2.93.31-4.38 2.44-5.75 4.67z"/><path class="cls-12" d="M356.75 58.86c3.24-2.27 7-.46 10.41-1.32a70.49 70.49 0 0124.73 33.26 10.18 10.18 0 01-7.72.87 5 5 0 01-2.66-2.62c-5.47-11.16-13.6-20-23.42-27.51-.84-.63-1.78-1.35-1.34-2.68z"/><path d="M151.52 170.18c8.82-12.16 20.59-20.59 34.08-26.85 2.06 1.6 3.16 4 4.81 5.9-.92 3.24-4.27 3.43-6.42 5.12a60.18 60.18 0 00-11.91 7.73c-5.28 3.85-9.54 8.78-14.13 13.37a3.63 3.63 0 01-1.35.83c-3.71-.36-5.12-2.63-5.08-6.1z" fill="#7b7227"/><path class="cls-12" d="M227.37 54.3c2 1.72 5.55.36 6.91 3.4-.19 3.32-3.25 4.24-5.13 6.14-3.79 2.35-6.51 5.85-9.67 8.89-2.72 2.55-4.48 5.8-6.55 8.83-1.09 1.42-2 3.13-4.18 3-2.1-.93-4.58-1-6.38-2.61a68.65 68.65 0 0125-27.65z"/><path d="M384.33 90.82c2.52.55 5-1.06 7.56 0a74.47 74.47 0 015.52 35.3c-2.52 1.77-5.16 2.37-8 .85-1.36-2.14-1.13-4.56-1.11-6.9a68 68 0 00-3.82-23c-.73-2.07-1.84-4.15-.15-6.25z" fill="#315c26"/><path d="M190.1 149.23c-3.52-.43-3.84-3.29-4.5-5.9l7.64-4.05c1.52-2 3.71-2.82 6-3.47 1.72-.53 3.43-1.1 5.12-1.77a14.59 14.59 0 011.49-.53c3.61-.84 7-3 10.91-2.12 1.67 2 2.17 4.38 2.61 6.82a2.34 2.34 0 01-.57 1.51c-2.21 1.75-5.08 1.72-7.53 2.83-3.94 1.64-8.09 2.7-12 4.33-3.07.77-5.69 3.25-9.17 2.35z" fill="#766d25"/><path d="M151.52 170.18c1.75 1.82 2 5 5.19 5.5 1 1 .41 2.08-.13 2.95-4.12 6.67-7.78 13.53-9.82 21.16a3.27 3.27 0 01-2.09 2.35c-4.32 1.54-4.69-2.48-6.45-4.55a63.36 63.36 0 0113.3-27.41z" fill="#807629"/><path d="M389.89 127.2c2.34-1.53 5-1 7.52-1.1a64.13 64.13 0 01-.37 13.64l-1.47 8.5a5.28 5.28 0 011 4.07 8.94 8.94 0 01-.3 1.69c-1 1.87 0 4.88-3.19 5.49-2.38-1.05-5.37-.66-7.22-3a111.93 111.93 0 014.03-29.29z" fill="#2d5524"/><path d="M200.07 137.05l-6.83 2.23c-1.31-10.67-1.6-21.33.43-32 2.05-3.26 4.75-2.82 7.64-1.35 1.23 1.87.48 3.86.37 5.82-.22 6 .14 12 .11 18-.01 2.59-.13 5.11-1.72 7.3z" fill="#305a25"/><path d="M249.73 327.83c.92 2.67 1.06 5.88 4.66 6.69-9.95 2.89-20 2.81-30.07.83-2.09-2.12-4.83-4.05-2.17-7.54a6.27 6.27 0 015.65-1.23c4.51.83 9.06.65 13.6.69 2.74.73 5.66-1.09 8.33.56z" fill="#7f7629"/><path d="M201.17 106.25c-2.53.14-5.18-.52-7.5 1.07 1.44-8.94 3.57-17.64 8.7-25.32 2.45.16 5.31-.79 6.63 2.45.55 2.26-1 4-1.54 5.94-1.77 4.71-2.68 9.69-4.39 14.43a2.64 2.64 0 01-1.9 1.43z" fill="#335f28"/><path d="M391 234.14c-11.33 6.56-16.84 16.42-16.78 29.45-.87 1.38-1.71.62-2.55 0-1.18-1.92-2.52-3.73-3.78-5.6-.83-1.78-2.25-3.16-3.27-4.81-2.23-3.73-4.85-7.2-7.41-10.69-1.86-1.65-1.71-5.05-4.87-5.54-1.42 1.24-2 3-2.91 4.53-4.31 6.77-6.86 7.43-14.23 3.62-4.32-2-8.6-4.15-13-5.92a8.91 8.91 0 01-4.63-3.73c-1-2.2-.46-4.27.55-6.29a9.29 9.29 0 011.32-1.85 19.45 19.45 0 002.51-3.27 26.6 26.6 0 002.14-3.3c.39-.78.79-1.56 1.25-2.31.75-1.08 1.5-2.16 2.18-3.3a28.78 28.78 0 002.14-3.38c.79-1.43 1.43-2.94 2.24-4.36.38-.65.79-1.27 1.2-1.89 1.65-2.65 2.85-5.88 6.92-5.44 3.16.62 5.52 2.73 8.12 4.39 1.6 1.15 3.25 2.24 4.91 3.3 1.83 1.29 3.78 2.42 5.52 3.86a8.14 8.14 0 012.35 3.18c.51 5.73-2.5 9.94-6 14 1.6 2.18 1.6 2.18 8.43 2 4.3-1 8.65-.26 13-.4 3.37 0 6.58 1.29 10 1.16a8.39 8.39 0 014.47 1 1.15 1.15 0 01.18 1.59z" fill="#fefefe"/><path d="M403.1 295.85c-1.1 2.76-4.62 4.13-4.41 7.64-2.1 2.11-4.7 1.54-7.23 1.41-4.6-1.06-9.29-1.77-13.81-3.2-3.59-1.18-3.3-3.92-2.54-6.69.85-3.08-.07-4.57-3.38-4.28-2.61-.05-5.3.19-7.4-1.88-2-3.45-2.17-7.52-3.63-11.16-.1-1.86-.89-3.82.68-5.47a3.26 3.26 0 013.2 0c2 1.75 2.17 4.32 2.92 6.63.48 1.63.56 3.41 1.8 4.74a11.62 11.62 0 009 .23c.72-1.45-1-3.17.49-4.52 2.15-3.28 4.34-6.34 7.74-1.14 1.54 2.25 4 3.69 5.36 6.09a50.9 50.9 0 008.61 8c1.22.88 3.06 1.47 2.6 3.6z" fill="#005082"/><path d="M442.82 260.58c-5.59 22.72-35.4 32.07-52.82 17.42-4.68-3.93-8-7.88-7.85-14.12 3-.15 2.87 3.33 4.93 4.28a11.81 11.81 0 011.08.91 9.27 9.27 0 002.38 1.64c4.45 2.4 7.94 6.28 13.31 7.3 12.93 2.45 22.86-1.45 30.25-12.37 1.31-1.92 2.15-4.31 4.72-5.07 1.33-.32 2.67-.79 4 .01z" fill="#0d628c"/><path d="M408.62 213.17c-4 1.19-7.8 2.83-12 3.23-2.42-2.55-1.77-5.52-1.14-8.47.64-1.27 1.48-2 2.69-.63.77.86 1.47 1.43 2.58.6 6-5.93 9.83-13.42 15-19.93 2.43-3.05 3.87-7.08 8-8.55a3.92 3.92 0 011.59.27c2.2 1.85 3.6 4.07 3.39 7.07-6.08 7-11 15-16.58 22.34-1.05 1.45-1.95 3.05-3.53 4.07z" fill="#3889b5"/><path class="cls-25" d="M425.06 217.68c-2.57-.6-4.16 1-5.42 2.75-3.46 4.66-5.46 3-7-1.39-.18-.51-.45-1-.67-1.47 4.81-7.42 10.19-14.45 15.43-21.57 1.1-1.49 2.44-2.79 4.6-1.85a6.85 6.85 0 011.9 2.73c1.23 4 2.66 7.93 2 12.21-2.56 2.16-5.37 4-7.25 7-.75 1.13-1.87 2.22-3.59 1.59z"/><path d="M391 284.83c-1.51-2.18-4.07-3.66-4.41-6.62 5.93 3.19 11.59 6.56 18.48 8 19.79 4.22 38.2-13 40-27.49.25-2 .72-3.94 1.08-5.91a6.93 6.93 0 013.31 3.32c-.31 17.29-16.07 33.46-33.64 34.49-3.11.18-6.22.08-9.33 0a22.32 22.32 0 01-15.49-5.79z" fill="#00537c"/><path d="M431.68 194.45c-6 3.29-8.05 9.87-12.17 14.73-2.44 2.88-4.11 6.43-7.56 8.39l-3.33-4.4c5-9.42 11.75-17.67 18.25-26.07.25-.32 1-.26 1.55-.37 3.14 1.71 4.16 4.27 3.26 7.72z" fill="#3484b1"/><path d="M441.7 238.41c-2.83-2.85-4.79-6.32-6.84-9.72a7.9 7.9 0 01-.76-4.54c.69-2.26.49-4.62.75-6.92.59-5.1 3-7.86 7.65-8.76 3.63 4.42 1 9.66 1.94 14.44-.12 5.31.65 10.77-2.74 15.5z" fill="#7baec9"/><path class="cls-29" d="M396.57 206.55c0 3.28.05 6.57.07 9.85-3.65 1.4-7.21 3.09-11.19 3.39-1.34.32-1.61-.71-1.48-1.51.73-4.34.5-8.92 3.06-12.83a4.08 4.08 0 011.52-.95c2.69-.51 5.38-.93 7.64 1.23.13.27.25.55.38.82z"/><path d="M375.51 223.09l-7.73 2.19c-.55-3.95 3.08-6.61 3.18-10.36 1.59-4.18 2.56-8.73 6.74-11.4a3.44 3.44 0 013.3.8c.7 6.99 0 13.58-5.49 18.77z" fill="#0e628c"/><path d="M435.23 224.14c-.12 1.52-.24 3-.37 4.55-3.93-3.09-6.45-7.42-9.8-11 2.18-.93 2.86-3.25 4.4-4.72s2.27-4.65 5.52-3.08c2.1 4.71.23 9.5.25 14.25z" fill="#2a7ba8"/><path d="M441.7 238.41l1.3-15.36c1.4-4-1.32-9 3.2-12.13 2.15 3.58.88 7.51 1 11.26.25 6.77-1.29 13.32-2.78 20.53a4.84 4.84 0 01-2.72-4.3z" fill="#20739f"/><path d="M367.79 284.8a9.49 9.49 0 01-1.15-5.45c1.54-4.14 3.26-8.14 7.78-10a17.6 17.6 0 012.21 7.71c1.08 3.74-1.29 6-3.64 8.18-1.74-.02-3.54.61-5.2-.44z" fill="#2174a0"/><path d="M446.16 210.92c-1.89 3.83-2 8.14-3.2 12.13-.8-4.75 1-9.71-1.12-14.36-2.44-3.58-2.45-7.89-3.58-11.87.06-2.36.58-4.38 3.48-4.61 3.26 5.79 4.26 12.16 4.42 18.71z" fill="#297ba7"/><path d="M372.1 215c.13 4.07-2.56 7-4.32 10.24-3.35.54-6.35 2.64-9.91 2.25-.71-2.82 1.69-4.16 3-5.85 1.92-2.4 2.86-5.33 4.74-7.71a8.52 8.52 0 016.49 1.07z" fill="#1c6f9a"/><path d="M391 234.14c0-.36 0-.72-.07-1.08-1.58-4.49 2.89-7.2 3.28-11.11a17.94 17.94 0 017.74-2.2c2.38 0 1.93 1.74 1.48 2.91-1.13 2.94-1.8 6.22-4.77 8.1z" fill="#2779a5"/><path class="cls-37" d="M374.42 269.38l-7.78 10c-.72-2.22-1.44-4.43-2.15-6.65a2 2 0 01-.36-2.25 20.89 20.89 0 004.2-4.91c.79-1.47 1.51-3.48 4-2.78l1.95.83z"/><path class="cls-38" d="M441.74 192.21c-1.19 1.25-2.66 2.35-2.22 4.42-2 .32-2-1.4-2.57-2.55-1.68-5.4-5.21-9.92-7.24-15.16-.19-1.83.07-3.44 2.07-4.19v-.32c4.81 5.09 7.61 11.32 9.96 17.8z"/><path d="M394.23 222c1.95 2.25-.11 4-.92 5.76s-2.19 3.28-2.36 5.35l-4.44-.26c-2.07-.43-3.39-1.31-2.51-3.76a36.78 36.78 0 012.5-4.88 18.09 18.09 0 017.73-2.21z" fill="#3181ae"/><path d="M365.56 214.4c.38 6.1-5.22 8.7-7.69 13.13-.71 1.11-1.85 1.14-3 1.18 1.54-4.87 5.81-8.77 5.17-14.41a2.89 2.89 0 011.18-3.61c2.32.23 4.49.62 4.34 3.71z" fill="#2b7ba5"/><path d="M398.68 230.76c.5-3.84 4.61-6.61 3.29-11 4.43-3.15 6.59-1 7.78 3.34-.74 3.13-2.24 5.62-5.55 6.59z" fill="#1e719d"/><path class="cls-42" d="M387.63 269.4h-1.06c-1.54-4.3-4.79-8.17-3.35-13.22a13.1 13.1 0 015.46-10c1.91 3.49-.14 7.16.48 10.71v7.31c-.05 1.85.04 3.8-1.53 5.2z"/><path d="M375.51 223.09c3.59-5.72 3.6-12.5 5.54-18.71l.6-.61a8 8 0 015.07-.56c1.08.38 2.32.62 2 2.24h-1.11c-3 1.56-3.21 4.58-3.85 7.39-.68 3-.7 6.26-3.87 8a6 6 0 01-4.38 2.25z" fill="#045b83"/><path d="M379.93 220.89c2-3.69 2.57-7.86 3.11-11.87.44-3.31 2-3.78 4.61-3.56-.81 4.77-2.41 9.41-2.2 14.33-1.55 1.84-3.66.83-5.52 1.1z" fill="#00547d"/><path d="M404.21 237.56c6.27-.05 12.59-1 18.74 1.05 2.79 1.83 5.58 3.67 5.78 7.5a2.27 2.27 0 01-1.29.79 9.5 9.5 0 01-3.82-.82 15.26 15.26 0 01-2.82-1.5c-4.39-5-10.72-4.22-16.35-5.58a1 1 0 01-.24-1.44z" fill="#408ebc"/><path d="M387.72 257.39a32 32 0 011-11.24 16.13 16.13 0 018.9-6.49c.08 3.34-2.54 5.73-3.08 8.86-.51 1.08-1.06 2.15-1.66 3.18-.36.6-.78 1.16-1.19 1.72-1 1.26-1.45 2.88-2.64 4a1.17 1.17 0 01-1.33-.03z" fill="#3081ad"/><path d="M386.5 224.16c1.33 1.8-.37 3-1.05 4.23-1.11 2-.63 3.26 1.06 4.41-3.36.37-6.58-.57-9.86-1-.93-2.46 1.1-3.76 2.14-5.44a17.88 17.88 0 017.71-2.2z" fill="#3c8bb8"/><path d="M378.79 226.38c.75 2.38-1.79 3.48-2.14 5.44-4.51.4-8.91-.41-13.33-1.08a67.58 67.58 0 0115.47-4.36z" fill="#4593c0"/><path d="M393.35 248.83a16.23 16.23 0 014.23-9.17l6.63-2.1v1c.41 3.6-3.22 4.67-4.53 7.2a11 11 0 01-4.87 3.35 2.63 2.63 0 01-1.46-.28z" fill="#3e8dbb"/><path d="M425.17 225.3c4.07 1.08 4.9 5.12 7.27 7.91-3.46-1.62-7.55-.94-10.58-3.5-.5-2.71.19-4.45 3.31-4.41z" fill="#00527c"/><path d="M442.82 260.58l-3.31 1.1c-1-2 1.68-3.13 1-5a11 11 0 00-1.07-1.8 7 7 0 01-1.15-2.88c-.15-1.7-.25-3.39 1.2-4.68 1.91-.12 2.86 1.62 4.39 2.24-.27 3.68.91 7.5-1.06 11.02z" fill="#0e638d"/><path d="M428.49 246.2l-5.49-7.6c2.79.57 5.58 1.12 7.76 3.17 2 1.61 3.74 3.33 2.78 6.25a1.88 1.88 0 01-1.3.89c-1.78-.22-3.18-.91-3.75-2.71z" fill="#2e7fab"/><path d="M373.3 284.81c0-3.06 3.07-4.78 3.33-7.72l2.18 2.26c.74 1.81 1.47 3.63 2.21 5.44a11.62 11.62 0 01-7.72.02z" fill="#176c97"/><path d="M425.17 225.3c-2 .8-2.4 2.8-3.31 4.41-1.54-.22-3.19.5-4.75-.59.87-2.33 3-3.52 4.53-5.23 2.36-2.73 2.67.11 3.53 1.41z" fill="#045b84"/><path d="M404.2 229.68c2.7-1.48 2.72-5.22 5.55-6.59 1.16 1.47 3.68 3.55 2.47 4.66-1.95 1.76-5.12 2.15-8.02 1.93z" fill="#146994"/><path d="M383.22 256.16c-.16 4.73 3.83 8.41 3.35 13.22-2.6-.93-2.39-4.12-4.43-5.5.4-2.57-1.01-5.39 1.08-7.72z" fill="#126691"/><path d="M432.91 248.39c.26-2.54-1.35-4.45-2.2-6.61l5.46 2.33a5.28 5.28 0 01.62 5.88c-2.25 1.78-3.11.2-3.88-1.6z" fill="#2274a0"/><path d="M436.22 250.63c0-2.18 0-4.35-.05-6.52a6.61 6.61 0 013.36 3.21v5.52a1.15 1.15 0 01-1.22.4 4.06 4.06 0 01-2-1.92z" fill="#186c97"/><path class="cls-29" d="M391 284.83a56.22 56.22 0 0018.24 4.6c17.74 1.55 35.22-11.75 38.63-28.77.3-1.49 0-3.4 1.61-4.49 6.56 10 11 20.26 4.85 32.34-4.7 9.24-12.66 12.8-22.19 13.92-10.4 1.22-19.91-1.86-29-6.58-4.3-3.44-9.14-6.25-12.14-11.02z"/><path d="M391 303.55l7.74-.06 4 .3c.81 2.79-1.48 3.81-3.07 5.13-6.52 5.42-14.06 9.07-21.84 12.29-1.87.29-3.71 1.26-5.64.28-1.61-4.26 2.42-6.27 3.74-9.36 4.72-3.33 9.45-6.69 15.07-8.58z" fill="#86b4cc"/><path d="M377.7 320.24c7.42-3.63 14.88-7.2 21.34-12.47 1.42-1.16 3-2.15 3.68-4h6.19c-10 10-20.33 17.51-33.38 20.76-1.53-2.53.57-3.3 2.17-4.29z" fill="#1d709c"/><path class="cls-61" d="M377.7 320.24c-.71 1.44-2.36 2.41-2.17 4.31-6.23 3.24-13 3.78-19.86 4.3.26-2.8 3.27-3.12 4.53-5 3.85-1.64 7.79-2.8 12.05-2.35 1.82-.42 3.43-1.75 5.45-1.26z"/><path d="M360.08 324.65c.13 3.07-3.06 2.68-4.41 4.2l-2.22.16c-3.31-.63-6.87.95-10-1.15 3.18-3.12 7.39-3.58 11.44-4.45 1.87-.23 3.76-.47 5.19 1.24z" fill="#2a7ca8"/><path d="M160.35 302.46c-11.15-.71-20.68-4.1-25.41-15.4 5.23.05 9.14 3.9 14.39 4.54 11.58 1.39 20-3.53 26.52-12.1 6.34-8.27 6.61-17.53 2.54-27-.79-1.83-2.22-3.39-2.39-5.48a4.53 4.53 0 011.86-3.68c.17-.14.8 0 .45-.52-.07-.11-.65.13-1 .2a6.5 6.5 0 01-3.85-.73c-1.31-2.15-4.93-1.66-5.44-4.74 4-3 8.31-1.66 12.59-1.2 6.33 3.15 9 9.11 10.78 15.29 5.3 18.51-1.15 35.7-17 46.75-4.26 2.99-9.16 3.42-14.04 4.07z" fill="#9e942f"/><path d="M176.82 246.17c4.67 8.12 6.91 16.45 4.62 26-2.86 11.95-19.4 22.95-31.5 20.89a37.68 37.68 0 01-15-6c-1.78-5.08-3.48-10.17-1.15-15.55 2.49 1 3.38 3.5 5 5.29a7.53 7.53 0 01.63 1.35c.48 1.4.88 2.82 1.26 4.25 1.64 4.69 4.7.56 7 1.11 2.38-.18 4.74-.44 7.1-.65 13.36-1.16 21.1-16.61 15.44-26.91a6.64 6.64 0 01-.7-2.64c1.08-3.78 3.03-6.64 7.3-7.14z" fill="#beb134"/><path d="M160.35 302.46c5.57-2.48 11.6-3.4 16.56-7.88 11.9-10.76 17.12-23.31 13.94-39.26-1.4-7-4.88-12.71-9.54-17.89 2.72-2.22 5.39-1.43 8.05.1 6 4.54 6.84 11.47 8.21 18.06 3.47 16.78-4.11 35.7-15.15 41.36-2.38 2.6-5.89 2.92-8.83 4.41-4.39.64-8.67 2.64-13.24 1.1z" fill="#8c822c"/><path d="M143.81 251.76l3.24-2.24c2.57-1.24 5.06-2.83 8.13-1.85 2.33 2.39-.21 3.39-1.44 4.56-3.14 3-6.51 5.73-8.91 9.4a38.91 38.91 0 00-2.43 4.61 30.6 30.6 0 00-1.2 2.82c-.73 1.39-.41 3.48-2.57 3.95a2.36 2.36 0 01-1.28-1.26 16.06 16.06 0 01.82-11.37c.94-3.49 3.83-5.68 5.64-8.62z" fill="#daca3b"/><path d="M138.17 260.38q.08 6.17.14 12.34c1.09 1.5 1.34 3-.14 4.4-2.33-1.19-3.29-3.45-4.37-5.61.3-4.17 1.2-8.11 4.37-11.13z" fill="#cdbe37"/><path d="M189 238.53c-2.41-1.52-5.11-1-7.73-1.1-4.41.52-9-1.18-13.29 1a2.24 2.24 0 01-3.25.09c-.65-2.44-3.09-4-3.31-6.65 1.69-2.63 4.68-2.15 7.12-3 .6-.26 1.87-.39 1.49-1.08-1-1.73-2.26-3.42-4.75-2.65-1.92.74-2.31 3.75-5 3.39a2.11 2.11 0 01-2.25-2.31c.69-4.7 4.6-6.69 7.8-9.28 2.84-.59 4.25 1.6 6.05 3.06 3 2.85 3.53-.44 4.73-1.9 1.74-2.12 1.86-5.87 5.85-5.68 2.46.63 4.86 1.45 7.34 2 1.2.37 2.4.77 3.6 1.13 1.43.47 2.91.74 4.36 1.14a50.47 50.47 0 005.78 1.72c1.25.28 2.46.69 3.69 1.06 1.72.58 3.46 1.13 5.21 1.62 2.35.7 4.75 1.2 7.09 1.92 5.34 2.21 11.65 1.77 16.23 6-1.43 5-5.35 2.85-8.48 2.95-4.24-1.06-8.4-2.4-12.64-3.46a66.63 66.63 0 00-8-2.31c-3.55-1.35-7.31-2-10.9-3.2-2.44-.89-5-1.28-7.47-2.19-2.24-.69-4.55-2-6.4.72-3.65 6.05-3.46 6.39 4 6.81a22.46 22.46 0 015.5 1.22 50.44 50.44 0 018.42 3.52q17.59 10.51 17.21 30.83a23.52 23.52 0 01-.45 5.09c-.48 1.55-.76 3.16-1.18 4.73a62.28 62.28 0 01-4 9.38c2.43.64 4.73.24 7 .28 3-.23 3.14-2.69 3.65-4.83.74-2.85 1.44-5.71 2.08-8.59q1.71-6.52 3.27-13.08c1.17-5 2.76-9.91 3.57-15 1.65-3.18 1.64-7.92 7.06-7.6 2.14 4-.33 7.62-.9 11.4-.3 1.94-1.05 3.78-1.42 5.71s-1 3.73-1.47 5.6c-.51 1.51-.79 3.08-1.19 4.62s-.73 3.06-1.12 4.58c-.76 2.57-1.3 5.2-1.94 7.8-.34 1.35-.69 2.7-.95 4.06q-.65 3-1.25 5.91c-.86 4.31-3.21 7-7.88 6.72-3.92-.2-5.56.85-4.93 5.33.72 5.17-3.38 7.31-9.3 5.36a3.39 3.39 0 01-3.33-2.21 2.66 2.66 0 011.32-1.85c4.29-2.14 4.29-2.14 3.35-8a19.07 19.07 0 01-4 4.8c-.88.6-1.76 1.22-2.89.61-1.69-1.91-3.58-3.72-3.31-6.61-.67-2.42 1.26-3.69 2.43-5.2a36.91 36.91 0 006.71-14.38c2.46-10.73-1.82-20.78-11.22-26.58-1.9-1.14-3.87-2.15-5.71-3.42z" fill="#7e7528"/><path d="M205.61 301.37a24.72 24.72 0 002.73-.11c4.48-.67 7-2.51 4.87-7.57-.69-1.6-2.07-4.91 1.36-4.28 10.42 1.94 12.22-4.5 13.14-12.26 2.89-.95 4.81 1.38 7.2 2.12 2.87 1.66 6.13 2.38 9.13 3.73 2 1.44 2 3.37 1.41 5.48-3.42.89-6.08 3-8.56 5.41-7.6 7.28-16.82 12.21-25.66 17.7-2.85.42-4.91-1.51-7.31-2.44-2.45-1.48-5.41-2.44-6.08-5.79 2.24-2.04 5.62.37 7.77-1.99z" fill="#aa9e31"/><path d="M189 238.53c18.38 4.44 24.2 24.66 13.67 41.81a92.19 92.19 0 01-6 7.79c-4.64 3.16-8.26 8-14.34 8.82 6.81-6.84 12.3-14.62 13.68-24.3 1.82-12.07 1.18-23.95-7.01-34.12z" fill="#847d2b"/><path d="M197.84 303.36l6.64 4.79c1.74 2.85.61 5.05-1.61 7-1.79.66-3.38.06-5-.75a86.92 86.92 0 01-8.18-6c-1.42-1.14-3.48-2.14-2.56-4.66z" fill="#e3deb5"/><path d="M242 328.91c-6.67.67-13.22-.91-19.85-1.1v-1.09c.25-3.06 2.53-3.43 4.89-3.69 4.17-.31 8.34-.06 12.5-.11 2.56 0 5.14-.25 7.54 1 .46 3.84.46 3.84-5.08 4.99z" fill="#948a2e"/><path d="M226.67 324.46c-2.06-.35-3.28 1-4.53 2.26-6.65-1.07-13-2.86-18.74-6.63 1.27-2 3.25-2.3 5.36-2.33a25.56 25.56 0 015.77 1.39c3.82 1.67 8 2.24 11.84 3.8a1.19 1.19 0 01.3 1.51z" fill="#9e9331"/><path d="M187.18 303.76c2.49 4.55 7.69 6 11 9.56a2.85 2.85 0 01-3.68 1.29c-5.59-2-8.82-7-15.11-10.85z" fill="#aca032"/><path d="M194.53 314.61l3.68-1.29 3.84 1.42c2.72.72 6.17.26 6.86 4.25l-5.51 1.1c-2.95-1.84-6.72-2.35-8.87-5.48z" fill="#a59b33"/><path d="M203.38 298.05l-1.1 1.11H197c1.31-1.9 2.18-3.16 3.06-4.42l2.19-1.13c1.54 1.18 2.4 2.54 1.13 4.44z" fill="#998f2e"/><path d="M165.86 217.43l-7.75 8.87-3.22 3.23c-1.63-1.46-1.52-3.45-1.63-5.36.27-3-.35-6.14.66-9.11.67-1.5 2.14-1.81 3.48-2.36 11.47-4.65 13.5-14.2 4.92-23.06a8.26 8.26 0 01-1.36-1.7c-.52-3.53 1-6.13 3.72-8.18a2.48 2.48 0 011.71.26c11.19 9.36 13.91 20.31 7.89 31.53-1.83 3.45-4.12 6.04-8.42 5.88z" fill="#eedd3d"/><path d="M144.67 202.14c2.27-9.61 6.67-18.25 12-26.46.17-.35.35-.7.53-1.05 1.64-1.32 3-.86 4.35.55a3.07 3.07 0 01.39 1.54c-1.32 4-4.78 6.79-6.06 10.81a46.52 46.52 0 00-4.19 10.29 93.21 93.21 0 00-3 14.43c-.47 5.18 1.49 10.59-1.53 15.52-2.65.71-3.83-.78-3.83-3.05 0-4.63-.59-9.29.38-13.9.29-2.89.64-5.82.96-8.68z" fill="#f1df3e"/><path d="M146.94 227.51l.34-16.47c4.26 1.42 7 4 7 8.84 0 1.42-.33 2.89.37 4.26.08 1.79.15 3.59.23 5.39l-5.79 8.78c-4.03-2.94-3.75-6.74-2.15-10.8z" fill="#fbf3b9"/><path d="M146.94 227.51c.39 3.67.6 7.37 2.16 10.8l-3.1 6.14c-2.71-11.93-4.79-22.58-2.29-33.63 0 4 .09 8 .08 11.92.01 2.31.21 4.43 3.15 4.77z" fill="#e0cf3b"/><path class="cls-81" d="M156.06 248.51l-9 1a15.21 15.21 0 017.7-5.53c2.28-1 4.51-1.29 6.55.55a1.88 1.88 0 01.48 1.6c-1.51 1.78-2.97 3.65-5.73 2.38z"/><path d="M164.77 238.57l3.25-.09c2.4.13 5.16-.39 5.6 3.18a4 4 0 01-2.45 2.1 9.35 9.35 0 01-3.32.48c-2.68-.2-5-1.09-6.44-3.54z" fill="#b3a735"/><path d="M161.41 240.7c2.45.06 4 2.87 6.67 2.25-1.11 3.43-3.48 3.5-6.31 2.36-2.33-.51-4.54-1.61-7-1.32a13.44 13.44 0 016.64-3.29z" fill="#c0b338"/><path d="M160.36 228.61c1.61-1.33 2.24-3.64 4.4-4.42 1.88 1.53 3 3.66 4.44 5.53-2.29 1.78-5.29 1-7.74 2.2-1.3-.8-1.07-2.1-1.1-3.31z" fill="#8f862c"/><path class="cls-85" d="M320.34 32.4c3.48 8.47 5.67 17.22 5.52 26.45 1.56 9.63-3 17.4-7.68 25.13-11.37 16.89-36.81 14.21-45.18 1.32-2.26-3.46-4.75-6.8-6.42-10.63-.85-2-2.05-3.92-.42-6.07 2.08-.49 3.38 1.06 4.91 2 12.71 7.47 27.48 6.19 38.15-3.39 7-6.28 13.87-22 6.28-35.79-.91-1.67-2.24-3.51-.71-5.59 2.76 1.42 3.21 4.77 5.55 6.57z"/><path class="cls-86" d="M314.82 25.79c1.46 3.53 3.31 7 4.31 10.6 5.24 19.09-7.46 37.49-27.16 40.2-10 1.37-18.15-1.89-25.71-7.8-1.69.19-1.89-1.08-2.21-2.24a3.76 3.76 0 011.09-3.3l.06-3.31c2.57-.53 3.76 1.35 4.52 3.11 1.5 3.48 4.34 4.55 7.67 5.4a44.11 44.11 0 0016.33.82c11.19-1.4 21.26-16 19.15-27.44A37.21 37.21 0 00309 30.47c.21-2.47-.18-4.68-2.65-6a13.78 13.78 0 01-1.6-1.47 18.2 18.2 0 00-6.69-4.2c-1.31-.56-3.33-.59-3.09-2.89 8.28-.06 14.62 3.8 19.85 9.88z"/><path d="M266.27 43.4a31.41 31.41 0 014.47-13.1c2.63-1.09 3-4.4 5.47-5.62 2.32-1.25 4.18-3.76 7.35-2.72 1.14.9.58 1.81 0 2.73-1.35 1.33-3.08 2.22-4.34 3.66a14 14 0 00-2.45 3.17c-.36.58-.76 1.13-1.15 1.69a28.16 28.16 0 00-1.93 3.64c-.41.84-.83 1.67-1.19 2.53a31 31 0 00-1.1 3.42c-.46 1.48-.63 3-1 4.54-.85 2 .09 4.75-2.29 6.23-3.34-2.89-2.55-6.57-1.84-10.17z" fill="#649c51"/><path d="M284.11 22.57c-3-.66-5.12 2-7.9 2.11a17.15 17.15 0 019.92-6.62c4-.93 8.09-2 11.26 2a19.84 19.84 0 01-13.28 2.51z" fill="#5a9249"/><path d="M297.19 20.08a29.86 29.86 0 00-11.06-2c2.6-2.12 5.68-2.29 8.84-2.18 3.52 2.46 8.57 2.42 11 6.69-1.29 1-2.58.4-3.88 0-1.61-.88-3.75-.73-4.9-2.51z" fill="#518940"/><path class="cls-85" d="M389.89 127.2c.49 10.1-2.27 19.82-3.39 29.74.72 6.94-2.67 13-4.34 19.39a42.17 42.17 0 01-2.23 6.11c-2.62 6.23-5 12.55-7.89 18.68s-4.61 6.55-10.34 2.39c-2.51-1.83-5-3.68-7.56-5.45-8.09-5.65-8.18-6-4.95-15.26 3-7.48 3.16-15.55 5-23.27 1.57-7.77 1.23-15.54.07-23.3-.6-8.63-4.95-15.57-10-22.2-1.13-1.4-2.42-2.65-3.65-4a5.62 5.62 0 01-1.16-1.95c-1.2-3.55 3.06-3.18 3.82-5.34A84.59 84.59 0 00349.79 79c.39-2.89.44-5.89 2.59-8.22a2.9 2.9 0 011.58-.42c5.28 1.79 8.34 6.36 12.26 9.85 3.27 3 5.65 6.69 8.11 10.33a54.78 54.78 0 015 10.08 49.76 49.76 0 014.33 14.87 60.06 60.06 0 01.66 12v11.37c-1 3.19-.95 6.56-1.6 9.8-1.17 6.46-2.14 13-4.41 19.2a97 97 0 003.84-15.86c.87-4.73 1.58-9.48 2.19-14.25v-10.49a78.66 78.66 0 00-.45-11.38 47.38 47.38 0 00-2.52-15.39c-.94-3-1.64-6.14-3.35-8.87-2.27-3.63-3.46-7.87-6.44-11.09-2.37-3.84-5.67-6.85-8.87-9.95a46.83 46.83 0 00-10.16-7.46c-2.21-1.51-4.85-2.58-5.61-5.56a3.37 3.37 0 011-3.08c3.53.29 5.69 3.33 8.82 4.42 12 8.25 20.82 19.21 27.58 32 .86 5.58 3.62 10.59 4.55 16.22 1.11 6.65.79 13.36 1 20.08z"/><path d="M317.05 83.11c5.41-7.19 7.32-15.65 8.81-24.26a24.6 24.6 0 009.75-1.09c1.67.75 2.13 2.37 2.76 3.86 1.61 3.66 2.77 7.49 4.26 11.2 1.57 3.91.85 7-3.54 8-3.29.72-3.93 2.65-3.83 5.43a3.24 3.24 0 01-2.37 1.89 2.91 2.91 0 01-3.13-1.71c-1.18-3.87-3.52-2.15-5.71-1.42-2.4-.41-4.99-.07-7-1.9z" fill="#35642a"/><path d="M336.94 62.05c-.44-1.43-.89-2.86-1.33-4.29-.73-1.48-1.47-3-2.2-4.43-.12-1.28.83-1.63 1.68-1.4 4.62 1.23 9.39 2.23 12.65 6.23l5.68 4.17c1.15 2.76-1.07 2.94-2.7 3.33-2.1.5-4.27.19-6.41.15-3.08-.03-5.23-1.89-7.37-3.76z" fill="#bad0b3"/><path class="cls-92" d="M347.74 58.16c-4.91-1.21-8.78-5.48-14.33-4.83l-4-6.47a69.55 69.55 0 0118.48 7.58 92.49 92.49 0 01-.15 3.72z"/><path d="M266.27 43.4c0 3.48-.2 7 2.18 10a2.89 2.89 0 01.94 1.19c1.58 6.8 2.92 7.6 9.8 5.78 6.31 1.77 12.46 2.52 18.3-1.64 7.17-5.11 9.21-12.24 6-21.75-.63-1.86-2-3.57-1.22-5.73 1.91-2.27 4.08-3.64 7.09-2 7.58 9.79 7.1 24.39-2 33.3-8.69 8.55-25.5 11.48-35.87 6-1.3-.69-1.66-1.8-2.08-3-.78-2.28-1.91-4.37-4.23-5.51.56-5.6-1.3-11.26 1.09-16.64z" fill="#5f974d"/><path d="M265.14 63.25v3.32c-1.79 1.63-4.05 1.5-6.24 1.66-2.33-.31-2.56-2-2.32-4-.59 2.38-.6 4.88-3.35 5.89a6 6 0 01-3-2.53 5.78 5.78 0 01.34-4.71c1.43-3.36 2.54-6.87 4.76-9.85.86-.92 1.44-2.29 3.09-2 4.72-.75 6.1 1.47 5.68 5.89-.1 2.13-.82 4.5 1.04 6.33z" fill="#37682c"/><path d="M228.63 63l5.65-5.26L247.43 52a3.49 3.49 0 012.64 2.81 2.8 2.8 0 01-1.57 2.08c-6.69 3.16-12.71 7.46-19 11.24a1.66 1.66 0 01-1.36-.93 4.08 4.08 0 01.49-4.2z" fill="#93cb7b"/><path d="M249.82 54.49a3.93 3.93 0 01-2.39-2.49c2.94-1.29 5.82-2.73 8.83-3.82 3.54-1.28 2.84 1 2.21 3l-2 2.32c-2.2.23-4.09 2.74-6.65.99z" fill="#89c171"/><path d="M305 313.44l-3.46-3.25a2.89 2.89 0 012.34-3c6.45 2.16 12.26 5.35 16.82 10.54-.39 1.35-.6 2.89-2.65 2.42-4.99-.93-9.05-3.73-13.05-6.71z" fill="#4190bd"/><path d="M318.08 320.14l2.31-2.28c3.91-1.75 6.78 1.47 10.2 2.1 1.88.94 4.52.58 5.48 3.14-.74 1.52-1.51 3-3.64 2.56-5.13-.93-10.08-2.34-14.35-5.52z" fill="#3888b5"/><path class="cls-25" d="M332.43 325.66c1.17-.73 1.69-2.43 3.44-2.3 5-2.75 10.14.41 15.19-.32a4.41 4.41 0 013.5 1.59c-3.86.55-7.12 3.18-11.13 3.23-3.83.07-7.58-.24-11-2.2z"/><path d="M395.35 152.52c.07-1.43.14-2.86.22-4.28 5.94.83 10.38 4.66 15.25 7.62 1.12 1.57.37 2.68-.89 3.68-5.93-.08-9.93-4.2-14.58-7.02z" fill="#4a98c5"/><path class="cls-100" d="M431.78 174.73a6.47 6.47 0 00-1.08 4.27c-1.64.59-2.15-.88-3.06-1.63a100.25 100.25 0 01-7.47-9.47 3.66 3.66 0 011.66-4.13c4.36 2.69 7.24 6.75 9.95 10.96z"/><path d="M421.83 163.75c-.36 1.4-.71 2.8-1.06 4.19a17.73 17.73 0 01-11.06-8.77l1.11-3.31c4.42 1.59 7.18 5.42 11.01 7.89z" fill="#4391bf"/><path d="M242 328.91c1.83-1.48 5.07-1.19 5.52-4.4-.32-1.59.91-1.83 1.95-2.26a50.89 50.89 0 008.68-2.12c3.42-.51 6.3-2.48 9.5-3.55 3.72-1.07 6.66-3.62 10-5.35 2.5-1 4.2-3.86 7.41-3.31l2.34 2c-5.9 6.14-13.26 10.15-21 13.17-5.34 2.08-10.71 4.66-16.69 4.76-2.52.58-5.03 1.43-7.71 1.06z" fill="#8a812c"/><path d="M271.82 283.72a6.55 6.55 0 00-5.53 5.3 1.05 1.05 0 01-1.17.46 4 4 0 01-1-1c-.82-1.14-1.63-2.3-2.46-3.44-2.32-2.79-4.88-5.38-6.95-8.39-1.16-1.51-2.14-3.17-3.42-4.59s-2.15-3.11-3.26-4.64c-1.1-1.8-2.27-3.55-3.46-5.3-.82-1.2-1.6-2.43-2.42-3.64a5.19 5.19 0 01-.94-3.7 8.56 8.56 0 014.8-5.16c2.68-.91 5.13-2.38 7.78-3.39a51.58 51.58 0 006.91-3 40.21 40.21 0 006.26-2.7c2.85-1.31 5.62-2.86 8.88-3a5.48 5.48 0 012.85 1.19c1.68 1.48 3.22 3.11 4.77 4.72a38.05 38.05 0 005.55 6.53c2.37 2.39 4.59 4.93 7.51 6.71 1.15 1 2.29 2 2.07 3.8a21.88 21.88 0 01-5.74 4.8c-1.68.19-2.87-.88-4.19-1.63-4.13-3-7.31-7-11.06-10.37-2.43-3.63-5.43-4.19-9.32-2.16a84.12 84.12 0 01-10.92 4.88c-2.81 1-3.13 2.68-1.24 4.93s3.58 5 5.36 7.53a70.23 70.23 0 005.54 7c1.3 2.97 4.98 4.47 4.8 8.26z" fill="#005b89"/><path class="cls-104" d="M265.2 289a2 2 0 001.09 0l2.12 2.57c.71 1.82-.15 3.31-1.3 4.49-8.31 8.54-16.15 17.62-26.6 23.78a13 13 0 01-4.2.57c-1.73-.1-3.48-.18-4.66-1.75-1-2.31.19-3.95 1.93-5.11 9.93-6.58 18.11-15.05 26-23.85 1.81-.7 3.64-1.34 5.62-.7z"/><path d="M240.91 318.86a254.38 254.38 0 0023.37-21.52 18.16 18.16 0 004.13-5.75l5.92 6.32a71.9 71.9 0 01-12.73 14.78c-1.51 1.37-3.11 2.56-2.69 4.94a2.5 2.5 0 01-1.14 1.2 24.19 24.19 0 01-9.66 1.7c-2.52-.05-5.18.47-7.2-1.67z" fill="#948b2e"/><path d="M258.57 316.8c-1.51-.24-2.89-1.29-1.2-2.33 6.94-4.26 10.38-12 17-16.56l9.54 8.83c-1.58 2.26-4.26 2.9-6.41 4.32-3.13 1.43-6.14 3.12-9.28 4.54-3.22.74-6.22 2.89-9.65 1.2z" fill="#8e852d"/><path d="M271.82 283.72l-5.72-7.65c2.17-1.76 3.21-4.26 4.57-6.6 1.52-2.64 3.07-5.46 6.47-6.24a4.87 4.87 0 012.94 1.08c2.09 1.91 5.21 2.92 5.62 6.32-1.19 4.92-5.77 7.94-7.13 12.87-.47 1.73-2.82 2.12-4.79 1.47z" fill="#5faada"/><path d="M273.78 285c5.71-1.13 4.6-7.83 8.56-10.49 1.24-.84 1.82-2.64 2.7-4 3.29-.24 5.2 1.83 7 4.15a3.09 3.09 0 01.06 1.51c-2 4.15-6.24 6.94-7.36 11.65.41 2.85 4.81 3.78 3.59 7.41-1.3 1-2.61 1.93-4.22.58A43.2 43.2 0 01273.78 285z" fill="#59a4d3"/><path d="M284.08 295.78l4.27-1c2.24-.77 3.38 1 4.54 2.23 3.39 3.58 8.16 5.51 11.18 9.5a1.46 1.46 0 01-.24 1.46l-2.26 2.25a94.82 94.82 0 01-17.49-14.44z" fill="#4c99c8"/><path d="M277.27 310.15a14.15 14.15 0 016.6-3.41l1.22 1.18-6.71 4.32a2.3 2.3 0 01-1.11-2.09z" fill="#a7a164"/><path d="M161.48 175.7a7 7 0 00-4.24-1.07c4.3-4.86 8.58-9.72 14.09-13.3 1.81-.5 2.45.63 2.88 2.06-.11 2.45-1.88 3.76-3.51 5.18a19.39 19.39 0 00-5 4.66c-1.05 1.34-1.95 3.14-4.22 2.47z" fill="#e3d23c"/><path d="M190.1 149.23c2.86-1.37 5.69-2.81 8.87-3.3a7.35 7.35 0 013.62 2.33 1.79 1.79 0 01-.38 1.41c-3.84 2.07-7.86 3.79-11.72 5.85-1.46.65-2.92 1.35-4.6.93a3.83 3.83 0 01-2.55-2.92z" fill="#d0c139"/><path d="M183.34 153.53a4.12 4.12 0 012.4 2.35c-.18 3.28-3.57 3.26-5.18 5.07-2.26 1-4 3.48-6.94 2.72a3.87 3.87 0 00-2.29-2.34 37 37 0 0112.01-7.8z" fill="#daca3a"/><path d="M206.75 89.84l2.25-5.39c1.05-1.21 2.1-2.43 3.16-3.64a3 3 0 013 2.27c.27 3.48-2 6-3.23 9-.77 1.15-1.46 2.41-3.13 2.38-1.74-1.07-3.29-2.21-2.05-4.62z" fill="#7cb366"/><path d="M228.63 63l.1 4.5c-.55 3-3.29 4.33-5 6.45-1.23 1-2.35 2.27-4.21 1.61-1.19-1-1.78-2.09-.73-3.53 2.82-3.54 5.78-6.9 9.84-9.03z" fill="#8bc373"/><path d="M218.8 72c.42 1.2.84 2.4 1.25 3.59 1.2 2.12-.57 3.3-1.47 4.76-1.18 1.22-1.8 3.26-4.1 2.86l-2.32-2.4c1.78-3.26 3.59-6.5 6.64-8.81z" fill="#84bb6d"/><path class="cls-117" d="M219 138.28c-1.8-1.84-2.2-4.18-2.34-6.61 3-3.09 7.41-2.52 11-4.1a16.6 16.6 0 012.1-1 6.44 6.44 0 012.26-.27c2.38.36 4.32-1.23 6.56-1.49a54.92 54.92 0 015.87-.28 19.37 19.37 0 007.14-.79c5.31-.34 10.53-1.63 15.87-1.42 5.1.2 7.21 2.08 6.95 7.15a224.5 224.5 0 01-3.56 29.92c-1 5.29-6.08 5.07-10 6.13-2.75.77-5.55 1.39-8.31 2.13-2.92.59-5.88 1.09-7.9 3.64-2.65.1-5.35-.16-7.87 1a23.63 23.63 0 01-4.64.82 3.81 3.81 0 01-1.58-.5c-2.28-2.19-3.45-4.55-1.16-7.45 3-2.68 6.85-3.5 10.41-5 3.49-.79 6.83-2 10.22-3.16a61.29 61.29 0 017.35-1.6c2.65-.08 3.79-1.67 4.2-4.09a64.7 64.7 0 001.22-10.75 9.94 9.94 0 01.13-1.08c1.19-6.59.76-7-6-5.71-3.41.61-6.93.25-10.29 1.23-4.31 1-8.74 1.21-13.09 1.92-2 .49-4.05.46-6 1.26-2.85.72-5.71 2.37-8.54.1z"/><path d="M228.82 128.39c-3.89 1.76-8.06 2.45-12.19 3.28l-11.06 3.18c-.9-3-.25-5.9.12-8.85 1.87-7 2.12-7.16 8.81-4.52 3.23 1.27 6.56 2.16 9.87 3.14 1.95.57 4.5.72 4.45 3.77z" fill="#659d52"/><path class="cls-119" d="M200.07 137.05l.19-26.33c4.1 2.62 1.91 7.74 4.4 11.08.67.89.72 2.42.9 3.69-.23 3.14.75 6.42-1 9.39-1.14 1.51-3.1 1.26-4.49 2.17z"/><path d="M202.27 148.13c-1.61 0-3.2 0-3.3-2.2 3.74-2.3 8-3.26 12.12-4.42 2.17-.34 3 1 3.59 2.75-3.53 3.24-7.5 5.05-12.41 3.87z" fill="#c8b936"/><path class="cls-121" d="M219 138.28l8.65-1.19c3.1.83 6.9-.41 9.1 3.08-1.06 1.69-2.79 1.83-4.52 2-3.25-.86-6.49.8-9.74.08a9.69 9.69 0 01-3.7-2.92c.03-.33.1-.71.21-1.05z"/><path d="M218.76 139.29c1.6 0 3.27 0 3.38 2.24-.19 2.89-2.82 2.26-4.46 3.08a3.49 3.49 0 01-3.23-.86c-1.72.15-2.21-1.54-3.36-2.24a17 17 0 017.67-2.22z" fill="#bfb134"/><path d="M204.52 134.88q-.06-4.95-.11-9.9a3.61 3.61 0 010-3.49 2.21 2.21 0 012.56.14 6.08 6.08 0 01-.16 4.44c-.34 2.93.61 6-1.2 8.78l-.52.05z" fill="#8db780"/><path d="M393.22 159.27l2-5.83c4.08 2 8.78 3.19 10.93 7.88-3.08 7.67-7.38 14.45-14.21 19.39-2.35-.45-3.32-2.17-3.92-4.24.78-6.01 2.03-11.9 5.2-17.2z" fill="#4a98c6"/><path d="M393.22 159.27c-.41 6.15-3.36 11.68-4.31 17.7a1.89 1.89 0 01.08 1.44c-.36 2.26-.75 4.51-2.32 6.34a2.83 2.83 0 01-1.52.18c-2.07-1-4.61-.91-6.38-2.64q3.87-12.67 7.73-25.35c2.25.75 5.64-1.77 6.72 2.33z" fill="#284f21"/><path d="M405.32 161.33c-2.4-3.87-7.7-4.05-10.12-7.89a1.34 1.34 0 01.15-.92c5.52.64 9.27 5.09 14.36 6.65l11.06 8.77c3.51 2.14 5.18 5.87 7.71 8.86a9.37 9.37 0 01-3.32 3.33l-1.05-.06c-2.27-1.5-3.62-3.82-5.22-5.91a65.21 65.21 0 00-5.5-5.65c-2.39-2.78-6.19-3.88-8.07-7.18z" fill="#64a4cb"/><path class="cls-127" d="M204.57 121.65c0 1.11-.11 2.22-.16 3.33-2.55-4.42-2.93-9.46-4.15-14.26.31-1.49.61-3 .91-4.47l1.06-1.17c2.63.74 3.36 2.81 3.67 5.19-.15 3.83 1.22 7.84-1.33 11.38z"/><path d="M204.53 109.64c.11-2-1.62-3-2.3-4.56a42 42 0 014.52-15.24c-.16 1.88 1.58 2.81 2.16 4.31 1.47 1.92.18 3.75-.14 5.62-1.23 3.11-1.19 6.58-2.73 9.6a1.14 1.14 0 01-1.51.27z" fill="#72a95d"/><path d="M336.92 239.52c-3.52-1.43-7-2.93-10.56-4.26-3.22-1.2-3.75-3.17-1.94-5.89s3.9-5.66 5.86-8.48c3.78-.59 7.33-.11 10.23 2.59 1.32 1.22 3 1.2 4.5 1.79a5.89 5.89 0 011.71 5 15.31 15.31 0 01-9.8 9.25z" fill="#eb7e1d"/><path class="cls-130" d="M364.57 270.48c0 .74-.05 1.48-.08 2.22h-3.32c-3.75-3.77-3.46-9-4.79-13.6-2.28-7.88-2.09-7.93-9.66-5.67-3.07-.58-6.27-.93-7.91-4.19 1.41-3.2 4.76-1.86 7.11-2.81 3.94-1.59 6.85-3.07 5.59-8.05a5.42 5.42 0 01.84-4.11c3.2 1.47 4 4.72 5.57 7.43 2.24 4.75 3.42 9.83 4.63 14.89.66 3 1.43 6 2.17 9 .28 1.64 1 3.3-.15 4.89z"/><path d="M318.15 235.21c5.34 4.08 12.18 5.15 17.72 8.8-1.82 2-4.35 1.32-6.58 1.81a15.09 15.09 0 01-7.29-2.32c-3.81-2.32-8.12-1.83-12.14-2.87-3.83-4.25-6.2-8.77-2.56-14.36 2.57 0 2.91 2.25 3.9 3.83.4 3.23 2 4.64 5.34 3.62.89.14 1.11.97 1.61 1.49z" fill="#166992"/><path d="M334.36 214.14c.72-1.45 1.55-2.87 2.16-4.37 1.77-4.39 4.48-4.06 7.75-1.73a53.37 53.37 0 007.27 4.88c5.11 2.51 4.75 5.83 1.8 9.59-1.46 1.86-2.88 3.67-3.4 6-1.49.11-1.6-1-1.75-2a11.34 11.34 0 01.65-3c1.41-3.18 2.82-6.35-1.49-8.53-2.81-3.15-4.07.46-6 1.36-2.7.53-5.35.86-6.99-2.2z" fill="#e26123"/><path d="M340.29 200.87c-4.2-.44-4.58 3.65-6.72 5.66-2.49-2.2-6.55-2-8.27-5.41 2.45-6 8.6-10.15 14.2-9.66 1.24 1.93 2.21 4 3.26 6 .24 1.95-.84 2.88-2.47 3.41z" fill="#a4d0ec"/><path class="cls-134" d="M334.36 214.14c2.52 1.57 5.34 1.22 8.1 1.25 3.23 2.77 3.8 6.1 2.07 9.91-.95.36-1.81 2.47-2.37 1.56-2.79-4.59-7.74-4.39-11.88-6a23.07 23.07 0 014.08-6.72z"/><path d="M329.19 245c2-1.69 4.47-.55 6.68-.94 7.9 3.55 8.55 3.34 12.78-3.92 1.15-2 2.46-3.88 3.7-5.82.83 11 .83 11-13.22 15-4.13.48-7.69-.51-9.94-4.32z" fill="#0b6089"/><path class="cls-134" d="M349 226.41l.9 2.14c-.67 3.28-3 5.76-4.24 8.76-2 4.83-4.88 5.36-8.78 2.21a52.31 52.31 0 008.79-8.68c1.41-1.28.11-4.56 3.33-4.43z"/><path class="cls-38" d="M364.57 270.48c-.35-1.49-.71-3-1.06-4.48 1.15-3.23 1-7.24 5.18-8.67 1.22 1.8 3.59 2.83 3.6 5.43-2.09.8-2.57 2.84-3.43 4.56s-1.78 3.55-4.29 3.16z"/><path d="M361.34 257.19c-1.25-5.14-3.39-10.08-3.42-15.49 3 3.42 5.92 6.87 7.57 11.19-.6 2.18-.89 4.67-4.15 4.3z" fill="#4693c1"/><path d="M328.23 215.59a5.5 5.5 0 01-2.11 3.41c-3.91-.06-7.89.14-10.82-3.23-.52-2.41.15-4.25 2.55-5.25 3.8.98 8.44.26 10.38 5.07z" fill="#75afd1"/><path d="M361.34 257.19c2-.8 2.66-3 4.15-4.3 1.11 1.45 3.15 2.24 3.2 4.44l-5.18 8.67c-.72-2.94-1.45-5.87-2.17-8.81z" fill="#3d8bb8"/><path d="M332.72 207.72a8.11 8.11 0 01-2.41 4.41c-3.92-.2-7.67-.85-10.47-4a5 5 0 011-4 2.85 2.85 0 012.94-1.12c2.54 2.47 6.47 2.2 8.94 4.71z" fill="#8ec1e1"/><path d="M320.33 207.63c2.85 2.56 7.14 1.92 10 4.5a5 5 0 01-2.08 3.46c-2.8-2.78-7.22-2.05-10.11-4.65a1.44 1.44 0 01-.38-1.33c.52-1.08.87-2.41 2.57-1.98z" fill="#83bada"/><path d="M332.72 207.72c-3.18-1.19-7.8.53-9.08-4.5-.33-1.77.5-2.43 2.19-2.25 1.95 2.73 7.26.78 7.74 5.56z" fill="#99c9e7"/><path d="M324.83 221a5.19 5.19 0 01-2.16 3.37c-3.63 0-7.28 0-9.73-3.38-.29-1.63-.25-3.11 1.65-3.79 2.9.23 5.6 1.45 8.52 1.68 1.12.12 2.08.66 1.72 2.12z" fill="#61a0c3"/><path d="M313.72 220.88c2.55 2.26 6.47 1 8.95 3.49a5.36 5.36 0 01-2.24 3.27c-2.86-.57-5.95-.35-8.34-2.51-.51-1.82-1.17-3.7 1.63-4.25z" fill="#5597bc"/><path d="M340.29 200.87l2.1-3c3.73-1 5.27 1.68 7 4.06a3.24 3.24 0 01-1.48 3.52z" fill="#93c3e0"/><path d="M324.83 221c-2.92-2.36-7.32-.41-10-3.44a1.68 1.68 0 01-.28-2.16 1 1 0 011.39 0c2.92 2.55 7.31 1 10.18 3.62-.43.65-.86 1.32-1.29 1.98z" fill="#68a6c9"/><path d="M318.15 235.21l-1.15-1c-2-1.33-4.88-1.25-6-3.91-.3-1.21-.37-2.36.74-3.25a7.88 7.88 0 017.93 1.72c-1.09 1.99-2.02 4.05-1.52 6.44z" fill="#3e86ac"/><path d="M347.92 205.49l1.05-3.11c3.72-.27 5.74 1.83 7 5-.76 1.53-2.3.88-3.48 1.21z" fill="#72adce"/><path d="M319.66 228.73l-8.11-1.24a1.76 1.76 0 01-.31-2.16 1 1 0 011.37 0c2.84 0 5.78-.35 7.82 2.34z" fill="#468db2"/><path d="M352.46 208.6c.9-1.14 2.21-.93 3.42-1 1.47-.72 2.26 0 2.82 1.3a3.11 3.11 0 01-.89 3.34z" fill="#418db8"/><path d="M357.81 212.21v-3.38c2.11-.68 2.87.59 3.32 2.31-.37 1.05-.74 2.1-1.1 3.16z" fill="#3784ad"/><path class="cls-29" d="M346.78 253c7.13-5.07 8.13-4.74 10.2 3.38 1.38 5.45 2.79 10.89 4.19 16.33 0 1.45 1.09 2.91 0 4.36-.54 2.5-2.73 3.27-4.58 4.41-4.13 1.5-8 3.95-12.73 3.07-3.51-2.58-7.12-5.05-9.74-8.63-.53-2.44 1-4.16 2.25-5.87 4-5.38 7.83-10.83 10.41-17.05z"/><path d="M356.63 280.33l4.54-3.27c2.76 3.2 2.93 7.16 3.29 11.08-5.72 8.06-11.44 16.14-17.36 24.06-1.78 2.38-2.21 5.38-4.21 7.56a8.87 8.87 0 01-8.1-.74c-2-1.64-2.39-3.66-1-5.8 6-9.33 12.75-18.14 19-27.32 1.21-1.9 5.05-1.9 3.84-5.57z" fill="#3485b2"/><path class="cls-25" d="M343.53 318.9a3.08 3.08 0 01.07-4c6.21-8.54 12.26-17.21 18.44-25.76.45-.61 1.6-.71 2.42-1 2.4 1.59 5.14.91 7.73 1.16 1.74 2.91-.6 4.81-1.92 6.75-3.66 5.4-7.43 10.74-11.39 15.92a6.27 6.27 0 00-.91 6.86c-1 1.33-2.51 1.54-4 1.66-3.56-.15-7.31 1.13-10.44-1.59z"/><path d="M358 317.94c-3.64-.09-4.13-1.38-1.95-4.3 4.65-6.26 9.09-12.68 13.65-19 1.18-1.64 2.34-3.25 2.53-5.34 4.65-.8 6.29.58 4.57 5.44-.56 1.57-3.22 4.42.93 5.58.94 2.74-1 4.54-2.36 6.33-2.54 3.34-4.54 7.07-7.49 10.1-3.17 1.76-6.29 3.64-9.88 1.19z" fill="#2b7ca9"/><path class="cls-61" d="M367.79 315.63l9.9-15.31 13.31 3.23c-4.18 3.94-9.37 6.3-14.32 9.05-2.5 2.45-5.02 4.69-8.89 3.03z"/><path d="M382.63 286.39c2 4 5.46 5.87 2.68 9.45-1.09 1.41-3.23 1.65-3.85.83-2.36-3.09.47-5.88 1.17-10.28z" fill="#055c85"/><path class="cls-130" d="M373.3 284.81h7.72a16.8 16.8 0 01-13.23 0z"/><path d="M441.73 256.16c2.34 3.08-2.14 3.41-2.22 5.52-2.62.17-2.81 2.6-3.8 4.21-7.66 12.34-20.64 17-35 12.83-4.75-1.37-7.29-6-12-7.22 0-2.36 1.48-2.93 3.43-3a9 9 0 014.48 1.9c10.48 7.93 26.26 5.08 34.32-6 2.64-3.67 5.66-7.48 10.79-8.24z" fill="#1d709b"/><path d="M391.93 269.28a4 4 0 00-3.28 2.22l-1-2.1c0-1.85 0-3.69.05-5.54 3.05-2.23 6.41-1.61 9.76-1a3.58 3.58 0 011.43.93c.43 1.32-.5 2-1.32 2.69a17.78 17.78 0 01-1.81 1.27 14.45 14.45 0 01-3.83 1.53z" fill="#5f9bbc"/><path class="cls-156" d="M419.64 173.5c1.57 2.14 4 3.68 4.47 6.57-6 5.18-9.19 12.48-14.25 18.34-3 3.46-4.14 8.51-9 10.36a3.2 3.2 0 01-.95-1.27c-.6-2-.27-4.22-1-6.24a9.61 9.61 0 01-.27-1.59c-.27-3 2.31-4.39 3.79-6.4 3.92-5.32 7.58-10.84 11.63-16.06 1.44-1.79 2.54-4.27 5.58-3.71z"/><path d="M425.16 180.13a3.12 3.12 0 013.32-3.33l2.22 2.2a90.39 90.39 0 017.56 14.38c-1.63 1.37-2 4.85-5.39 3.29-.39-.74-.79-1.47-1.19-2.2q-1.62-3.87-3.26-7.72-1.63-3.32-3.26-6.62z" fill="#6da7c8"/><path d="M400.88 207.63v1.14c-2.13 2.75-2.13 2.75-4.33-2.22h-.2a23.91 23.91 0 01-1.73-3.65 3.52 3.52 0 01.52-2.43c1.39-1.45 2.9-1.91 4.63-.56v1.1c1.4 2.06-.31 4.6 1.11 6.62z" fill="#3f8ebb"/><path d="M432.87 196.65c2.52.09 2.72-3.63 5.39-3.29.27 1.14 0 2.51 1.26 3.27 1 4 2.73 7.81 2.32 12.06-3.85 2.6-6 6.06-5.67 10.87.1 1.56.48 3.29-.94 4.59q-.12-7.14-.25-14.27c.34-4.58-1.86-8.75-2.11-13.23z" fill="#74abc8"/><path d="M395.49 203.25c1.17.88 1 2.13.88 3.34-2.34-1.64-5-1-7.61-1.14a2.38 2.38 0 00-2.23-1.11c-1.26-1.82-.38-3.22.88-4.56 3.39-.46 5.99.91 8.08 3.47z" fill="#126186"/><path class="cls-161" d="M361.16 211.14l-3.32-2.31-2-1.26a24.41 24.41 0 00-6.91-5.19c-2-1.74-3.88-3.72-6.58-4.47-2.29-1.18-2.83-3.32-3-5.62a13.91 13.91 0 011.11-6.34c.8-2.1.58-4.79 3.35-5.76 2.83-.28 5.93-1.08 6.37 3.27-2.43 8.44-2.41 8.42 4.84 13.44a99.23 99.23 0 019.27 6.83c2.93 2.59 4.35 1.54 5.65-1.45 2.9-6.68 5.88-13.33 8.83-20 2.39.24 5.23-.84 6.69 2.22.92 2.51-1 4.44-1.35 6.69-.82 2.18-1.44 4.42-2.26 6.61-1.14 2.34-2.06 4.84-4.19 6.55A52.63 52.63 0 00372.1 215a8.65 8.65 0 01-6.54-.64z"/><path d="M377.66 204.36a17.64 17.64 0 013.24-6.86 3.42 3.42 0 013.75 1.18c1.19 3.42-1.6 4.29-3.62 5.66z" fill="#2f7593"/><path d="M387.72 257.39a5.08 5.08 0 01.95-.15c4-2.67 8.55-1.61 12.77-1.35 7.08.43 12.87-1.3 17.33-7a10.08 10.08 0 015.28-3.72l3.27 1.15c-1.92 6.47-7 10-12.44 13.1a34.34 34.34 0 01-5.52 2.13 8 8 0 01-1.73.39c-6.67.25-13.25-.63-19.84-1.4z" fill="#8dbedc"/><path class="cls-164" d="M387.79 260.54c6.95-2.81 13.89 1 20.84 0-1.18 3.83-5 2.6-7.52 4a3 3 0 01-2.37-.64l-11.06-.09c.03-1.05.07-2.16.11-3.27z"/><path d="M381 204.34c.78-2 3.4-2.9 3.29-5.45 1.46-.71 2.47-.08 3.3 1.09-.36 1.46-.72 2.91-1.09 4.36z" fill="#226d90"/><path d="M424.05 245.17c-2.76 2.92-5.38 6-8.32 8.72a12.22 12.22 0 01-9.46 3.46c-5.85-.33-11.73-.1-17.6-.11a7 7 0 012.15-4.56c1.11.21 2.21-.23 3.29-.13 10 1 19.29 0 26.06-8.62a1.72 1.72 0 011.66 0z" fill="#9cc9e3"/><path class="cls-164" d="M409.71 260.55c7.43-2.82 12.84-8.13 17.61-14.23l1.17-.11 3.3 2.23c-1.35 6-6.39 8.76-10.79 12.08-3.76.21-7.52 2.77-11.29.03z"/><path d="M421.83 243.91l-1.13.24c-1.54 1-3.19.34-4.8.29h-2.53c-5-1-9.67 2.49-14.65.81l5.49-6.69c6.54-.42 12.95-.37 17.62 5.35z" fill="#4996c4"/><path d="M416.31 243.09l4.39 1.06c-7.94 9.75-19.46 13-29.88 8.53.28-.34.55-.69.82-1 2.51-1.69 5.33-2.85 8.3-2.35 6.76 1.09 12.11-1.01 16.37-6.24z" fill="#acd2ea"/><path d="M416.31 243.09c-2.41 4.87-4.84 9.34-11.79 7.66-4.23-1-8.58.52-12.87.89l1.7-2.81a4.52 4.52 0 011-.09 158 158 0 0019.69-5.65z" fill="#badbef"/><path d="M414.08 243.09a28.21 28.21 0 01-19.69 5.65l4.33-3.51c5.01-1.48 10.01-3.08 15.36-2.14z" fill="#c4dfef"/><path d="M391.93 269.28a4 4 0 013.41-2.2c4.23 1.53 7.57 5 12.4 5.33 10 .78 17.18-3.51 22.28-11.82a4.66 4.66 0 011.3-.9c3.87 0 5.22-5.06 9.3-4.63l1.11 1.1c-4.86 3.55-8.77 8.07-13 12.33-8.81 9-21 10.41-31.73 3.92z" fill="#2476a2"/><path d="M440.62 255.06c-3.22 1.38-4.41 6.05-8.84 5.5.27-4.25 3.44-6 6.65-7.72h1.09c.37.74.74 1.48 1.1 2.22z" fill="#357fa5"/><path d="M421.8 259.43l10-11 1.12-.05c1.11.74 2.21 1.49 3.31 2.24l-.09.09c-.85 5.14-4.83 7.46-8.82 9.78a8.3 8.3 0 01-4.17-.06 2.81 2.81 0 01-1.35-1z" fill="#5799bd"/><path d="M427.37 259.47a40.17 40.17 0 008.76-8.75 3.57 3.57 0 012.3 2.12l-6.65 7.72h-1.09a2.56 2.56 0 01-2.05.82 3.11 3.11 0 01-1.4-.59 1 1 0 01.13-1.32z" fill="#448bb2"/><path d="M367.79 315.63l8.84-3c-.55 3.41-4.26 5.26-4.38 8.88-3.77 2.15-8.12 2.11-12.17 3.18h-5.52l-3.3-.23c-1.6-3.43 1.38-4 3.27-5.3 1.22-.16 2.55 0 3.43-1.15a19 19 0 009.83-2.38z" fill="#7eb0cb"/><path d="M171.38 242.88l2.24-1.22 4.32.36c-2.45 4.77-5.69 8.61-11.36 9.58a4.46 4.46 0 01-.42-4c.96-2.41 2.96-3.71 5.22-4.72z" fill="#e0da9e"/><path d="M167 251.75c3.88-3 8.13-5.55 11-9.73.7 0 1.74-.29 2 .06 1 1.17-.66 1.14-1.05 1.71a27.59 27.59 0 01-2.09 2.38 26.61 26.61 0 00-6.63 6.59 8.53 8.53 0 01-4.34 5.06 2.74 2.74 0 01-2.25-.25 2.68 2.68 0 01-.59-1.42 5.15 5.15 0 013.95-4.4z" fill="#dfd686"/><path class="cls-178" d="M165.81 257.25l4.39-4.49c9 17.75-1.34 32.06-23.07 32.06 1-3.7 5.26-3.75 7.19-6.43a7 7 0 011.73-1.35c8-3.63 10.93-9.82 9.22-18.33a2.59 2.59 0 01.54-1.46z"/><path d="M154.85 279.32c-1.78 2.95-5.23 3.56-7.72 5.5-2.79 0-7 4.93-7.71-2.23 1.09-2.17 3.2-2.65 5.27-3.21 2.6-.18 5-1.42 7.56-1.68a3.33 3.33 0 012.6 1.62z" fill="#cec14a"/><path d="M144.92 280.41l-5.5 2.18c-.36-1.47-.71-2.94-1.07-4.41 2.38-2.45 5-4.25 8.57-2.51 1.9 2.67-.42 3.55-2 4.74z" fill="#dbd06a"/><path d="M147.11 276c-3.27-.7-5.75 1.79-8.76 2.17 0-.35-.11-.71-.18-1.06 0-1.47.09-2.94.14-4.4l1-.15c2.41.64 4.2-1.1 6.3-1.63a3.32 3.32 0 011.49.24 4.09 4.09 0 011.59 2.53 2.34 2.34 0 01-.84 2z" fill="#e6db78"/><path d="M140.41 268.22c.31-.73.61-1.46.91-2.19a15.45 15.45 0 003.06-4c1.61-2.78 4.34-4.22 6.92-5.85 2.5-1.1 4.45-3 6.68-4.49 1.48-1 2.85-2.37 4.83-1.08 1 2.26-.45 3.58-1.84 4.94-6.42 4.85-11.94 10.94-19.49 14.25-.86-.2-1.54-.5-1.07-1.58z" fill="#f8f1b1"/><path d="M151.53 257.26c-2.18 1.87-4.93 3.06-6.63 5.51-1.05.21-1.65 0-1.21-1.25 2.57-5.81 8-8.87 12.37-13l5.39-2.27c3.08 1.72.29 2.74-.63 3.47-3.14 2.45-6.17 5.05-9.29 7.54z" fill="#f9f5cd"/><path d="M140.41 268.22l1.2 1.17c1.69-.83 3.26-2.14 5.36-1.4 1.13 1.59-.08 2.55-1 3.6-2.31-.11-3.7 6-6.73 1 .24-1.52-.24-3.21 1.17-4.37z" fill="#ede492"/><path class="cls-185" d="M143.69 261.52l1.21 1.25a5.76 5.76 0 01-3.58 3.26 8.1 8.1 0 012.37-4.51z"/><path d="M226.63 230.75c2.77-.84 6.47 2.24 8.43-2-3-2.77-4.3-6.58-6-10.13a6.43 6.43 0 010-4 11.29 11.29 0 013.62-4.17c1.95-1.19 3.64-2.76 5.58-4 3.32-1.44 5.71-4.33 9-5.8 5.21-2.2 7.87.94 10 4.9a174.5 174.5 0 0014.15 22.72 8.37 8.37 0 011.39 5.73c-.68 2.68-2.71 4.07-5 5.21a46.07 46.07 0 00-6.4 2.69c-1.63.76-3.22 1.59-4.9 2.22-2.78.78-5.14 2.62-8 3.19a5.82 5.82 0 01-4.57-1.31 23.94 23.94 0 01-6.12-11.68c-3.53 1.1-4 4.66-5.71 7.18-1.6 4.9-5.06 8.67-7.88 12.82-1.58 2.2-3 4.49-4.56 6.73-1.15 1.12-1.55 3.39-3.95 2.6 0-13-5.51-22.93-16.85-29.5a1.2 1.2 0 01.36-1.6 8.8 8.8 0 014.44-1c3.38.28 6.57-1.26 9.94-1.12a83.38 83.38 0 0113.03.32z" fill="#fefefd"/><path d="M190 215.44a12.66 12.66 0 01-7.73-2.19c6.94-12.73 2.28-28.34-7.39-36.7-1.51-1.31-3.19-2.5-3.27-4.79a7.82 7.82 0 016-6.4c8.24 4.88 13 12.61 17.2 20.86.62 2.26-1.09 4.22-.81 6.44-1.51 2.58.8 4.34 1.4 6.47a17.64 17.64 0 01-.45 4 34.2 34.2 0 01-.63 5.14c-.57 1.54-.36 3.2-.76 4.76-.41 1.8-1.02 3.56-3.56 2.41z" fill="#e3d23b"/><path d="M165.86 217.43c11.21-4 14.1-23.68 3.15-33.39-1.35-1.21-3.21-1.84-3.19-4-1-3.28.82-4.34 3.61-4.67a27.16 27.16 0 0110.36 38.17c-1.15 1.86-2 3.95-3.45 5.6-1.34 1.48-2.64 3.27-5.08 1.85-2.02-.88-2.8-3.61-5.4-3.56z" fill="#ebd93c"/><path d="M171.26 220.94c8.32-3.64 13.13-16.64 10.55-26.85-2-7.89-6.76-13.54-12.71-18.55-1.24-2.3.4-3.38 1.91-4.52a1.5 1.5 0 011.47.24c0 2.26 1.92 2.8 3.24 4 9.9 9.07 13.43 20.93 10.09 33.69-.51 1.94-1 4-3.54 4.29-3.58 1.2-3.94 4.9-5.52 7.52-2.1 3.46-3.54 3.53-5.49.18z" fill="#e7d53c"/><path class="cls-190" d="M197.81 217.66c-1.53-.22-3.32.42-4.38-1.33-1-1.55-.33-3.27-.47-4.9 4.2-6.33 9.27-11.52 17.14-13.05 2 1.38 3.1 3.18 2.64 5.7-5.17 4.32-10.11 8.92-14.93 13.58zM248.79 267a11.2 11.2 0 013.24 4.53c.5 2.66-1.66 3.38-3.31 4.33a36.86 36.86 0 01-14.42 4.59l-6.59-3.25 1.08-3.36a6.36 6.36 0 013.8-2.06c5.72-.58 10.95-2.72 16.2-4.78z"/><path class="cls-191" d="M248.79 267c-2.52 4-6.95 4.35-10.89 5.41a78.87 78.87 0 01-9.11 1.43 17.83 17.83 0 012.12-7.79c5.48.85 9.88-1.92 14.4-4.28a14.09 14.09 0 013.48 5.23z"/><path d="M215.71 263.61l3-3.11c4.91 1.51 4.62 6.47 6.6 9.92-.73 3-1.45 5.92-2.18 8.87-2.73 1.4-4-.63-5.13-2.4-1.42-2.27-2.69-4.69-2.5-7.54.06-1.92.14-3.83.21-5.74z" fill="#ccbd36"/><path class="cls-178" d="M244.18 245.15a7.76 7.76 0 004.45 1.13c1.52 2.58-.79 3.16-2.2 4.21a10 10 0 00-4.45 4.59c-3.65 4.75-6 5.31-8.89 2.1a9.42 9.42 0 011.23-5.44 43.35 43.35 0 015.22-5.36c1.32-1.09 2.6-2.7 4.64-1.23z"/><path d="M197.81 217.66a27.68 27.68 0 0114.57-13.37c2.57.42 2.83 2.2 2.53 4.3-3.89 3.64-8.61 6.44-11.51 11.12-1.98-.35-3.97-.71-5.59-2.05z" fill="#aca031"/><path d="M229.89 214.28v4.41c1.36 2.76-.88 3.08-2.54 3.46-2.8.64-5.58 1.4-8.42 1.89-2.29-.54-4.73-.55-6.77-1.94 1-5.36 5.6-6.14 9.7-7.56a9.63 9.63 0 011.61-.36c2.12-.02 4.29-.9 6.42.1z" fill="#d0c138"/><path class="cls-195" d="M199 233.05a1.5 1.5 0 00-.12 1.06l-7.63-3.37c-3.18-2-4.4-5.14-5-8.59-.19-1.13-.39-2.73 1.73-2.41a18.6 18.6 0 017.74 2.2c1.53 3.58 4.59 6.7 3.28 11.11z"/><path d="M225.3 270.42c-3.6-2.37-3.4-7.28-6.6-9.92l4.6-6.51c2.81-.63 3.73 1.79 5.26 3.24q-1.63 6.6-3.26 13.19z" fill="#d8c83a"/><path d="M199 233.05c-.45-3.89-3.92-6.9-3.26-11.11 3.83.69 7.69 1.27 11.15 3.25a8.33 8.33 0 000 3.75c.94 3.17-1.11 3.6-3.4 3.85z" fill="#ccbe38"/><path d="M218.9 224c1.73-2.62 4.59-2.74 7.26-3.11 1.63-.22 3.46.16 3.7-2.24l5.2 10.06z" fill="#dccc3e"/><path d="M244.18 245.15c-4.46.45-5.4 6.14-9.86 6.59q1.74-8.73 3.49-17.46z" fill="#dbcb3c"/><path class="cls-200" d="M222.17 215.61c-3.91 1.3-7.49 3.1-10 6.49l-5.39-1.36c0-4.94 3.38-8.23 9.6-9.32 2.09 1.12 4.29 2.16 5.79 4.19z"/><path d="M245.31 261.72c-2.51 4.5-11.68 7.23-14.4 4.28.15-1.53-.33-3.22 1.1-4.43 4.2.68 7.71-1.06 11.1-3.19.73 1.11 1.46 2.23 2.2 3.34zM188 219.74c-1.35 4.38 1.86 7.42 3.25 11l-5.51-1.1c-3.2-2.07-4.36-5.17-4.46-8.8 1.44-5.15 4.32-1.67 6.72-1.1z" fill="#b6a933"/><path d="M215.49 269.35c3 2.93 2.09 8.93 7.63 9.94-.67 2.44 0 5.89-4.28 5.58-3.75-2.81-5-6.62-4.46-11.14.13-1.52-.3-3.18 1.11-4.38z" fill="#c4b635"/><path d="M228.56 257.23c-2.45.06-3.29-2.51-5.26-3.24a71.34 71.34 0 018.8-12.53c-.19 5.48-2.2 10.54-3.54 15.77z" fill="#e5d53f"/><path d="M216.37 212.1a13.65 13.65 0 00-9.63 8.64l-3.34-1c1.08-6.32 6-8.71 11.12-11 2.22.26 2.77 1.39 1.85 3.36z" fill="#b5a933"/><path d="M243.11 258.38c-2.24 4.18-8.33 5.93-11.1 3.19.14-1.52-.31-3.18 1.08-4.39 3.72 2.49 6.06-.82 8.89-2.1.37 1.1.75 2.2 1.13 3.3z" fill="#c0b234"/><path d="M203.45 232.79c1.85-.85 3.29-1.83 2-4.24-.84-1.57-1.1-3.1 1.41-3.36a15.57 15.57 0 017.75 2.21c-.52 1.45-.11 3.18-1.32 4.42-3.29.36-6.48 1.38-9.84.97z" fill="#daca39"/><path d="M214.38 273.73l4.46 11.13c-9.41.12-9.41.11-5.88-8.23.42-.99.95-1.93 1.42-2.9z" fill="#bbad33"/><path d="M203.38 298.05c-.37-1.48-.75-3-1.12-4.44 1.5-2 3-3.92 4.59-6 4.26 8.61 4.03 9.25-3.47 10.44z" fill="#a59930"/><path d="M213.31 231.82c.27-1.52-2.48-3.95 1.32-4.42 4.22.35 8.12 1.81 12 3.35a48.5 48.5 0 01-13.32 1.07z" fill="#dfcf3e"/><path d="M181.27 220.84l4.46 8.8c-2.94.15-6.77.54-8-2-1.23-2.28 1.95-4.64 3.54-6.8z" fill="#ada131"/><path class="cls-104" d="M169.2 229.72c-3.35-.35-3.85-3-4.44-5.53.78-1.66 1.81-2.25 3.21-.64 1.61 1.85 3.88 3.15 4.89 5.54-1.17 1.02-2.47.47-3.66.63z"/><path class="cls-211" d="M193.46 211v5.36c-1.26.16-2.5.23-3.42-.89 4.64-1.09.67-5.83 3.3-7.79 1.12 1.03.88 2.15.12 3.32z"/><path d="M211.11 311.18c1.62-4 5.94-4.49 9-6.41a94.92 94.92 0 0019.51-15.48c2.06-2.21 4-.14 5.68-1.16a1.63 1.63 0 011.46-.38c1.33.51 2.36 1.27 2.45 2.84-1.72 4.69-5.7 7.51-9.26 10.49a145.32 145.32 0 01-20 14.19c-2 .63-3.77 0-5.58-.64-1.56-.72-2.96-1.57-3.26-3.45z" fill="#a49930"/><path d="M234.3 280.4c3.51-3.31 8.74-2.42 12.53-5.12 1.75-1.25 4.19-1.53 5.2-3.8a10.84 10.84 0 013.33 4.52 31.09 31.09 0 01-9.76 8.12 1.53 1.53 0 01-1.4-.36c-3.62-.19-6.76-1.76-9.9-3.36z" fill="#90872d"/><path d="M211.11 311.18l3.29 2.45c2.23 4.24 2.21 4.76-.27 6.69l-5.22-1.32-6.86-4.25c1.87-1.81 2.26-4.16 2.43-6.59z" fill="#dfdbb0"/><path d="M244.2 283.76h1.12c5.86-.93 11.68-1.4 17.32 1.07l2.35 3.36c-4.34 2-8.79 3.24-13.61 2.16-1.64-.79-3.29-1.53-5-2.18h-1.08z" fill="#a09631"/><path d="M232 318c1.26 1.3 3 .78 4.48 1.14 2 1.18 3.59 2.58 3.23 5.21l-13.07.11a5.59 5.59 0 01-.16-.91 4.71 4.71 0 01-.25-5.84 4.27 4.27 0 015.77.29z" fill="#cfcb9b"/><path d="M239.74 324.35c-1.08-1.74-2.16-3.47-3.23-5.21l4.4-.28 7.7.28c1.22 1.2 2.52 2.37 1.11 4.25l-2.2 1.12z" fill="#c9c392"/><path d="M226.56 317.85c0 1.9 0 3.8-.05 5.7a28.18 28.18 0 01-12.38-3.23c1.43-2.18-.28-4.48.27-6.69l5.39 1.25c2.93-.53 5.31.12 6.77 2.97z" fill="#d7d3a7"/><path d="M161.35 187.8c5.62 3 8.77 8.92 7.67 14.34-1.49 7.37-6.41 11.58-14.15 12.14-2.91-4.47-1.46-9-.28-13.56 1.42-3.41 2.38-7 3.71-10.45.7-1.2 1.22-2.65 3.05-2.47z" fill="#f4e13e"/><path d="M156.09 200a46.49 46.49 0 00-1.22 14.3l-.21 9.86c-.54-5.45-3.28-9.66-7.38-13.1a80.52 80.52 0 013.28-14.38c3.36-1.44 4.16 1.41 5.53 3.32z" fill="#fdf6b0"/><path d="M161.35 187.8l-2 2.35c-2-.43-3.24-1.91-4.43-3.42a33 33 0 016.47-10q3.78-.39 3.41 3.39-1.73 3.88-3.45 7.68z" fill="#f9ef9b"/><path d="M164.79 180.14a7.11 7.11 0 00-3.41-3.39c0-.35.08-.7.1-1.05 3.61-1.86 4.22-7 8.75-7.88 1.61.77 2.24 1.87 1.2 3.54-.65 1.47-2.29 2.38-2.32 4.18-1.6 1.11-3.05 2.33-3.29 4.45z" fill="#f4ea8f"/><path d="M154.91 186.73c2.27.11 3.43 1.65 4.43 3.42a33.24 33.24 0 01-3.25 9.83c-2.61.16-2.83-3.65-5.53-3.32a42 42 0 014.35-9.93z" fill="#fdf5a6"/><path class="cls-185" d="M151.53 257.26a27 27 0 016.88-6.81c1.4-1 3.65-1.65 3-4.21.1-.31.21-.63.32-.94 2.21-.5 4.45-.92 6.31-2.35l3.3-.07q-2.2 2.25-4.42 4.49c-1.25 1.38-1.5 4.11-4.4 3.29-4.38.96-6.52 5.64-10.99 6.6z"/><path d="M317.05 83.11c2.64 0 5.36-.39 7.8 1.12 1.34 2.13-.39 3.36-1.4 4.81-1.81 2-3.33 4.38-5.74 5.83-1.55 1.27-3.22 2.39-4.82 3.6a17.11 17.11 0 01-2 1.37c-10.67 5.45-21.33 5.55-32-.08-1.36-.84-2.65-1.79-4-2.67-2.24-1.75-4.12-3.87-6.17-5.82-1.1-1.23-2.2-2.47-2-4.3 1.52-3.2 4.16-3.48 7.18-2.76 8.72 13.27 33.34 14.27 43.15-1.1z" fill="#336028"/><path d="M274 84.21c-1.95 1.62-5.4.23-6.61 3.32-1.63.49-2.14-.91-3-1.75-1.23-2.06-2.44-2.82-3.61 0-1 2-2.26 3.78-3.17 5.79a3.72 3.72 0 01-1.46 1.75 5.3 5.3 0 01-4.46-1.24c-1.17-2.37.65-4 1.48-5.83 3.92-5.45-1.47-4.74-4-6a4.55 4.55 0 01-2.77-3.89c.64-3.29.54-6.92 4.08-8.89 1.46.09 2.44.71 2.51 2.31 1.34 5.23 1.34 5.23 5.69 6.39.16-2.9-2.75-5.75-.18-8.6 1.94-2 4.42-.74 6.62-1.1a2.34 2.34 0 001.09 2.22c.68 6.21 4.79 10.58 7.79 15.52z" fill="#34632a"/><path d="M302.64 21.53l3.33 1 1 1.25c-.27 2.78-2.68 3.36-4.58 4.47-6.53 2.3-13 5.27-20.15 2.67-1.55-.56-3.88-.33-3.86-3a6 6 0 014.1-3.38c6.52-2.54 13.64-.67 20.16-3.01z" fill="#bad4b0"/><path d="M302.69 26.89l4.3-3.07c1.27 1.58 6.16 1.58 2.35 5.38-2.43.09-4.49 1.23-6.56 2.34-1.28 1.46-2.33 3.22-4.52 3.52a2.08 2.08 0 01-1.39-.47 3.07 3.07 0 01-.34-1.46c.65-3.45 3.74-4.52 6.16-6.24z" fill="#b1cea8"/><path d="M297.17 33.5v1.09c.78 1.49-.45 2.1-1.26 2.9a19.55 19.55 0 00-2.66 2.15 19.12 19.12 0 00-2.25 2.64c-1.73 2.06-2.77 5-6.3 4.67-4.29-4.14-8.48-8.36-9.59-14.59l1-1.23a7.58 7.58 0 014.16 1c4.71 2.38 9.43 3.48 14.44.86a2.08 2.08 0 012.46.51z" fill="#b1d5a3"/><path d="M297.17 33.5c-7.59 4.23-14.53 2.63-21.08-2.37A4.33 4.33 0 01278.4 28c8.33 5 16.29 1.47 24.29-1.07z" fill="#b6d4aa"/><path d="M302.64 21.53c-6 5.65-13.39 2.3-20.14 3l1.61-2a30.29 30.29 0 0113.08-2.49c1.9.19 3.81.33 5.45 1.49z" fill="#c0d7b9"/><path d="M269.56 46.69c.11-1.54-.4-3.24 1.09-4.44 2.65 4.51 7.61 6.32 11.28 9.65a3.37 3.37 0 01.46 1.54 3.68 3.68 0 01-1.1 2.22 3.8 3.8 0 01-1.53.76c-7.62-1.07-10.59-3.9-10.2-9.73z" fill="#90bd7f"/><path d="M275.08 32.36l10 14.42.3.72a1.78 1.78 0 01-1.19.93c-5.32-2.42-9.55-5.89-11.33-11.72a6.58 6.58 0 012.22-4.35z" fill="#aad09a"/><path d="M272.83 36.71c3.72 4.09 6.79 8.88 12.2 11.12.47 1.35-.24 2.17-1.3 2.82C278 50.37 272 44.5 271.77 39a2.46 2.46 0 011.06-2.29z" fill="#a2cb93"/><path d="M271.77 39c2.81 5 6 9.65 12.11 11.05a1.39 1.39 0 01.29 1.33c-.61.8-1.27 1.49-2.41.92-4.34-2.63-10.35-3.42-11.11-10 .01-1.3-.05-2.51 1.12-3.3z" fill="#9cc68b"/><path d="M269.56 46.69c.86 6.48 5.82 7.85 11.07 8.86.64 1.58 0 2.76-1.18 3.78-4.78.91-8-1.66-10.92-4.9 0-.36 0-.72-.08-1.08.39-2.22-.8-4.7 1.11-6.66z" fill="#83b272"/><path class="cls-86" d="M336.94 62.05l6.35 2.42c2.46 1.07 6 .66 6.36 4.63a94.24 94.24 0 01-5 26.86 18.76 18.76 0 00-1.08 8.09c.19 2.39-4.68.69-3.29 4-.9 1.11-1.91.4-2.89.19-4-1.41-8.13-.87-12.18-1.47-1.62-1.51-.24-2.67.57-3.73a28.14 28.14 0 015-5.09c3.93-3 5.84-6.63 4-11.59-2.16-4.3-1-6.38 4-6.8 3.5-.28 4.48-2.5 2.94-5.89-1.84-3.77-3.24-7.73-4.78-11.62z"/><path d="M355.62 134.92c1.55 8.45 1.91 16.9 0 25.35a8.31 8.31 0 01-8 1.11 4.43 4.43 0 01-.84-1.73c.39-6.82.77-13.65.75-20.49 1.84-5.59 2.87-6.16 8.09-4.24z" fill="#2c5323"/><path d="M348.13 161.38c2.31-1.66 5-1 7.5-1.11-2.21 7.64-1.38 16-5.45 23.19-1.46-3.11-4.33-2-6.76-2.27-1.21-1.58-.28-3.21-.13-4.82.65-2.69 1.37-5.37 1.94-8.08.39-2.55.12-5.37 2.9-6.91z" fill="#294f21"/><path d="M355.62 134.92c-3.31-.08-6.87-.52-6.66 4.55-1.3.18-1.71-.78-2.16-1.69a9.52 9.52 0 01-.66-2.93 15.4 15.4 0 00-3-8.27c-2.53-2.94-.84-6.18-.71-9.32.43-1.62.77-3.29 2.27-4.36a39.32 39.32 0 0110.92 22.02z" fill="#2f5a25"/><path d="M343.53 104.05c-1.7-.83-2.59-2.1-1.84-4a105.74 105.74 0 006.6-30.26c0-.42.7-.79 1.07-1.19 2.17-.6 3.86-.39 4 2.4-3 6.28-2 13.44-4.35 19.84-1.65 4.48-1.68 9.63-5.48 13.21z" fill="#477f37"/><path d="M365.62 80.88Q360 76 354.39 71.05c2.72-2.48 5.94-1.5 9-1.27a31.93 31.93 0 018.88 9.88c-1.52 4.09-4.15 2.34-6.65 1.22z" fill="#a6c19f"/><path d="M363.43 69.78c-2.73 2.39-6.05.64-9 1.27a8.87 8.87 0 00-1 0 7 7 0 00-4-2.4l-6.06-4.14c3.28-1.16 7.5 2.07 10.13-2.14a27.87 27.87 0 019.93 7.41z" fill="#afc9a9"/><path d="M338.06 107.46l2.18.64 1.13 1.46a4.11 4.11 0 01.69 2.48c-1.23 4.41-.42 9.36-3.57 13.26a4.64 4.64 0 01-3.35.59c-2.65-.69-4.91-1.67-3.82-5.13.54-1.74 1.71-3.15 2.47-4.78a37.41 37.41 0 001.79-4.84c.54-1.42.97-2.91 2.48-3.68z" fill="#aecba5"/><path d="M365.62 80.88c2.24-.34 4.78 1 6.69-1.22 3.58 2.9 4.39 7.44 6.61 11.14-1.89 1.83-3.81 1-5.74.08z" fill="#9dbb95"/><path d="M382.26 115a77.16 77.16 0 00-4.21-14.35c1.17-1.25 2.66-1.33 4.22-1.21a32.19 32.19 0 013.08 15.57 2.07 2.07 0 01-3.09-.01z" fill="#87ac7e"/><path d="M382.27 99.48c-1 1.66-2.71 1.18-4.22 1.21l-4.87-9.81 5.74-.08c2.08 2.53 2.84 5.56 3.35 8.68z" fill="#94b58b"/><path d="M361.15 179c-.86 2.75-1.6 5.54-2.63 8.23a2.68 2.68 0 01-3.65 1.46c-2-.7-.78-2.17-.37-3.15.88-2.14.58-4.68 2.25-6.53a3.22 3.22 0 014.4-.01z" fill="#4e8340"/><path d="M361.15 179h-4.4c.58-3 .59-6.11 2.16-8.86a3.51 3.51 0 013.34 1.14q-.54 3.86-1.1 7.72z" fill="#5b8c4e"/><path class="cls-248" d="M360 163.54c.45-3.69-.9-7.56 1.07-11.1 1.36.87 1.68 2.74 3.26 3.4-.35 2.94-.69 5.87-1 8.81-1.51.8-2.98 1.52-3.33-1.11z"/><path d="M383.2 152.51c-1.44 5.62-2.38 11.39-5.63 16.53l4.54-19.83c1.08.86.05 2.42 1.09 3.3z" fill="#598b4c"/><path d="M382.26 115h3.09l.06 12.14a1.31 1.31 0 01-2.06 0z" fill="#7da472"/><path d="M360 163.54c.79 1.27 2.07 1.12 3.3 1.11.5 2.34-.67 4.42-1.07 6.63-1.23 0-2.54.16-3.34-1.14.4-2.2-.76-4.66 1.11-6.6z" fill="#66945a"/><path class="cls-248" d="M383.35 127.17h2.06v11c-.55.66-.86 1.79-2.11 1.1z"/><path d="M383.26 139.31l2.11-1.1q-1.08 7.14-2.17 14.3c-1.3-.79-1-2.12-1.09-3.3a26.54 26.54 0 011.15-9.9z" fill="#67945a"/><path d="M360.25 137.11l-1.25-7.72c.35-.45.47-1.13 1.18-1.25 2.32 3.36 2.21 7.38 3.07 11.13-2.71 1.62-2.25-1.05-3-2.16z" fill="#b2caac"/><path d="M364.35 155.84c-4.53 2.16-2.63-1.83-3.26-3.4 0-.7.07-1.4.11-2.1a2.19 2.19 0 013.13 0c.01 1.82.01 3.66.02 5.5z" fill="#86ab7c"/><path d="M360.16 128.14l-1.16 1.25q-2.25-5.14-4.49-10.31a14.55 14.55 0 015.65 9.06z" fill="#c3d6bd"/><path d="M364.33 150.32h-3.13c0-1.48 0-3 .05-4.42 1.52-1.14.48-3.53 2.21-4.57 1.7 2.88.87 5.97.87 8.99z" fill="#90b287"/><path d="M341.19 111.52l.18-2a7.82 7.82 0 013.3 3.34c-.39 1.46-.77 2.92-1.15 4.38-3.33-.85-2.86-3.24-2.33-5.72z" fill="#588f48"/><path d="M363.46 141.35c-.42 1.68.79 4.14-2.21 4.57-.33-2.94-.66-5.87-1-8.81 1 .71 1.33 2.34 3 2.16.06.73.14 1.39.21 2.08z" fill="#98b890"/><path d="M334.68 86.41c3.45 3.75 3.59 6.88-.8 10.38a39.33 39.33 0 00-9.06 9.49c-1.11 3.18-4.1 4.79-6.08 7.24q-4 3.84-7.8 7.83-5.24 5.06-10.19 10.39c-3.8 1.39-4.83-.19-3.75-3.65a14.34 14.34 0 013.25-5.67 121.4 121.4 0 009.42-9c2.71-2.47 5.1-5.28 7.95-7.61a22.93 22.93 0 004.15-3.6 29 29 0 003.55-3.21q2.22-2.16 4.37-4.39c1-1.11 2.29-2.09 2.26-3.83-.08-1.12-.51-2.28.43-3.26z" fill="#325e28"/><path class="cls-260" d="M333.33 61.94c1.18 2.74 1.92 4.37 2.59 6 3.27 8.06 2.66 9-6.65 9.74 1.28-4.92 2.52-9.76 4.06-15.74z"/><path d="M332.38 87.53l1.1 3.31c-4.35 2.68-7.88 1.34-11-2.24.65-1.52 2.32-2.51 2.31-4.37 2-2.2 3.84-3.7 5.2.52a4.45 4.45 0 002.39 2.78z" fill="#589046"/><path d="M279.51 58.84c.37-1.1.74-2.19 1.12-3.29a3.94 3.94 0 012.13-.06c12.15 2.45 18.36-3.87 15.49-15.76-.42-1.74-1.27-3.47 0-5.21l4.53-3c2 4.29 3.43 8.54 3.33 13.47-.3 14-13.89 22.42-26.62 16.24a4.06 4.06 0 00-1.07-.18c-.61-1.19.44-1.6 1.09-2.21z" fill="#73ab5e"/><path d="M279.51 58.84l-1.09 2.23c-1.68 3.52-4.23 1.66-6.46.94-3.82-1.24-3.58-4.46-3.43-7.58 3.91.86 6.65 4.57 10.98 4.41z" fill="#78aa67"/><path d="M249.82 54.49c2.29 0 4.19-2.42 6.7-1.06l-4.83 9.65c-4.23 2.88-8.21 6.26-13.59 6.86-2.85-.69-6.06-.09-8.46-2.35 5.36-6.42 13.45-8.73 20.18-13.1z" fill="#d5eccb"/><path d="M238.86 68.87c4.59-1.23 7.92-5.26 12.83-5.79-.38 1.5-.77 3-1.16 4.49l-3.13 8.91c-5.4 3.51-10.71 2.52-16-.33-1.72-2.64 1-3.32 2.14-4.62 1.4-1.53 3.56-1.74 5.32-2.66z" fill="#8fc776"/><path class="cls-260" d="M258.55 67.67c-.43 3.74 1.79 6.87 2.55 10.39-9.8-1.53-9.8-1.53-8.06-8.18l3.67-7.19c1.29 1.72.06 4.02 1.84 4.98z"/><path d="M238.86 68.87L231 75.39a3.26 3.26 0 01-2.65 1.61c-2.07-.78-4.84-.63-5.13-3.81l5.51-5.68a7.09 7.09 0 00.91.12 25.12 25.12 0 019.22 1.24z" fill="#cde8c1"/><path d="M303.83 307.94v-1.08c-.36-1 .27-1.46 1.05-1.82a4 4 0 012.37.11 129.43 129.43 0 0011.55 6.07 39.28 39.28 0 007.77 3.11c1.88.84 4.23.91 5.23 3.19a4.25 4.25 0 01-1.48 3.61l-9.9-3.27c-5.42-3.49-10.72-7.19-16.59-9.92z" fill="#6aa8cb"/><path d="M330.29 321.13c0-1.22-.16-2.51 1.15-3.28 1.07-1 2.15-.7 3.24 0 2.79 1.66 5.85 1.1 8.85 1.07l11 .19c-.81 1.94-3.34 2.82-3.27 5.3-5.21.87-10.25-.89-15.39-1z" fill="#75acca"/><path d="M258.57 316.8l9.91-2.34a2.23 2.23 0 010 3.26c-3.47.64-6.06 3.83-9.9 3.37a2.45 2.45 0 010-3.36 4.85 4.85 0 01-.01-.93z" fill="#bab47d"/><path d="M258.51 317.73v3.36c-2.76 1.46-5.61 2.56-8.82 2.31l-1.11-4.26z" fill="#c1bc87"/><path d="M268.44 317.72v-3.25a26.32 26.32 0 018.79-4.32 2.11 2.11 0 011.11 2.1z" fill="#b0aa6e"/><path class="cls-117" d="M245.43 176.81c29.08 6 49.48 39.57 45.18 66.69-.4 2.51-.64 5.06-2.11 7.26a18 18 0 01-5.76-6.36c-1.13-2.21-1.09-4.51-.93-7 1.32-20.42-14.41-43.79-33.72-50.26a10.35 10.35 0 01-3.27-9.79zm50.18 80.56l5.85-6.45c1.92-4.32 5.55-7.08 9.07-9.94 2.61-2.06 5.29-1.78 8.15-.46 3.45 1.6 7 3 10.51 4.43 3 2.1 6.59 3 9.94 4.36l7.65 3.68c.73 3.56-1.24 6.16-3 8.94-3 4.73-6.94 8.78-9.28 13.92-3.59 4.67-7.25 1.81-10.9.12 1.71-5.1 6-8.44 8.84-12.77 3.6-5.45 3.66-5.95-2.6-8.38-4.24-1.63-8.14-4.2-12.76-4.81-2.19-.31-3.15 1.36-4.38 2.66-3.46 3.67-6.67 7.61-10.94 10.44a3 3 0 01-3.48-2.55z"/><path class="cls-11" d="M323.64 275c3.56 1.07 7 3.36 10.88.86 3.31 2.29 6.94 4.23 9 7.94-2.53 4.59-6.9 1.75-10.36 2.58-5.52.11-10.65-1.57-15.75-3.37-4.61-1.75-8.73-4.44-13-6.83-4.06-3.49-9.81-5.21-11.71-11 1.32-2.2 2.74-4.28 5.6-4.61l3.28 2c1.71-.46 2.7.81 3.89 1.61s2.45 1.63 3.68 2.44c4.43 3.49 10.02 4.96 14.49 8.38z"/><path d="M279.52 265l-2.21-1.1c-6.87-3.95-6.85-3.93-12.33 2.69-1.06 1.29-1.76 3.32-4.12 2.77-2.39-3.2-4.71-6.45-7.2-9.58-1.62-2.05-1.08-3 1.18-4 5.72-2.36 11.4-4.86 17-7.4 4.6-2.07 4.26 3.41 6.86 4.35-1.59 4 3.3 5.38 3.4 8.68a5.34 5.34 0 01-2.58 3.59z" fill="#69b2e2"/><path class="cls-3" d="M248.63 186.67c6.13-.45 10.06 3.89 14.09 7.18 13 10.62 19.41 24.85 20.89 41.35.27 3-.55 6.13-.87 9.2l-4.26-4.7c-.69-2.86-.05-5.88-1-8.71a25.63 25.63 0 01-.55-3.13 33.38 33.38 0 00-2.58-8.86 47.73 47.73 0 00-20.12-24.65 15 15 0 00-4.59-2.07c-1.32-1.69-2.54-3.4-1.01-5.61z"/><path d="M260.86 269.34a27.69 27.69 0 006.26-8c2.29-4.19 4.51-4.66 7.44-.77.86 1.15 1.83 2.22 2.75 3.32a16 16 0 00-6.92 8.9c-.85 2.5-2.31 2.92-4.29 3.29-2.33-1.8-3.79-4.26-5.24-6.74z" fill="#63aede"/><path d="M262.64 284.79c-5.78-.19-11.64.83-17.32-1.07 3.24-2.72 5.93-6.14 10-7.72z" fill="#7a7228"/><path d="M292.7 265.17l12.12 9.92a2.9 2.9 0 01-1.09 3.53c-5.09.34-7.55-4.13-11.33-6.19-1.65-1.65-3.52-3.11-4.61-5.26a3.52 3.52 0 011.61-4.17z" fill="#55a1d0"/><path d="M289.4 263c-.34 1.38-.69 2.75-1 4.13-3.74 0-5.26-2.65-6.63-5.5-1.25-1.46-2.59-2.86-3.72-4.41s-2.21-3.46.73-4.53z" fill="#5fabda"/><path d="M278.52 230.7a9.21 9.21 0 010 9l-2.21-1.28a43.13 43.13 0 01-4.28-4.27l-1.53-5.2c-.33-2.31 1.22-1.72 2.38-1.44 2.12.49 3.5 2.55 5.64 3.19z" fill="#ada768"/><path d="M272 234.15c3.37-.52 3.38 2.32 4.28 4.27l-8.91 3.21c-1.05-1.11-.76-2.27-.12-3.44 1.61-1.31 4.04-1.67 4.75-4.04z" fill="#988f33"/><path d="M246.43 250.49c.72-1.41 2.33-2.36 2.2-4.21a25.19 25.19 0 017.72-3.31c.86 2.25-.77 3.24-2.2 4.32-2.46 1.35-4.81 2.93-7.72 3.2z" fill="#c1b53a"/><path d="M267.24 238.19l.12 3.44-6.48 2.72c-1.14-1.11-.94-2.26-.1-3.42z" fill="#a69e3a"/><path d="M260.78 240.93c0 1.14.07 2.28.1 3.42a18.51 18.51 0 01-6.73 2.94q1.09-2.16 2.2-4.32z" fill="#b4aa39"/><path d="M250.82 289.18c4.74-.13 9.53.41 14.17-1a1.94 1.94 0 01.21.89c-1.63 1.37-3.65 1.23-5.57 1.46-2.75 1.43-5.53 1.89-8.41.38a1.26 1.26 0 01-.4-1.73z" fill="#dddab3"/><path class="cls-190" d="M250.93 290.24l8.7.26c-5.87 9.12-14.08 15.84-22.62 22.27-1.9 1.43-4.92 2-5 5.23l-5.47-.15-6.77-3c5-5.38 11.69-8.44 17.24-13.09a87 87 0 0011.59-11.44 1.66 1.66 0 012.33-.08z"/><path d="M281.73 261.67l6.63 5.5a12.16 12.16 0 014.41 4.37c1.09 1.6.46 2.63-1.11 3.36l-6.66-4.42c-.91-2.76-4.37-3-5.52-5.5a3.33 3.33 0 012.25-3.31z" fill="#77b6de"/><path d="M282.83 288.12a30 30 0 018.91-12.12c3.83-1 5.72 1.34 7.32 4.2a20.11 20.11 0 01-9.23 13c-3.21-.5-4.33-3.86-7-5.08z" fill="#54a0cf"/><path d="M282.83 288.12c3.14.08 4.09 3.42 6.61 4.42 3.65 1.66 6.38 4.63 9.71 6.76 1.91 2.16 5.76 2.6 5.77 6.45l-1.12 1.11c-5.7-3.34-10.44-7.9-15.45-12.11z" fill="#62a7d1"/><path d="M298.31 280.33a12.66 12.66 0 00-6.57-4.37c0-.35-.06-.71-.08-1.06l1.11-3.36c4.06 1.59 6.61 5.67 11 6.69a1.37 1.37 0 01.2 1.31 6.46 6.46 0 01-2.62 2.35 3.25 3.25 0 01-3.04-1.56z" fill="#85bcde"/><path d="M171.43 171.36l-1.2-3.54 3.39-4.15 6.57-3.51a2.21 2.21 0 011.55 2.36c-.55 1.88-1.59 3.21-3.75 3.22a19 19 0 00-5.51 5.52z" fill="#eee384"/><path d="M181.29 162.39c-.37-.74-.73-1.49-1.1-2.23 1.1-2.4 4.12-2.3 5.55-4.28l4.33-1.21c1.07-.51 1.36.16 1.53 1-.52 1.9-2 3-3.43 4.17-2.23 1.03-3.87 3.64-6.88 2.55z" fill="#e6db76"/><path d="M214.45 143.75h3.27c1.17-.43 1.33.27 1.33 1.17-1 1.38-2.51 1.84-4 2.4a43.28 43.28 0 00-7 2.63 10.17 10.17 0 01-4.41.87 2 2 0 01-1.46-1.58v-1.07c4.22-1.29 8.5-2.17 12.27-4.42z" fill="#d2c65b"/><path d="M202.24 149.2l1.13 1.11c-1.26 2.17-3.51 3.05-5.49 4.27-2.16.72-4 2.93-6.65 1.23l-1.16-1.14c3.75-2.5 7.55-4.88 12.17-5.47z" fill="#ddd169"/><path d="M214.48 83.21l3.23-3.45c1.81.64 3.77.86 5.45 1.88.78 1 .29 1.89-.14 2.81-1.21 2.25-3.05 4.07-4.32 6.28-.86 1.42-1.72 2.85-3.52 3.24-1.87.2-3.48-.14-4.29-2.11q1.8-4.32 3.59-8.65z" fill="#bddbb0"/><path d="M210.89 91.86a8.37 8.37 0 004.63 1.14 1.45 1.45 0 01.45 1.31 40.84 40.84 0 01-2 4.72c-1.08 1.71-1.29 4-3.21 5.15-2.68-.44-3.93-1.79-3-4.58.37-1.82.75-3.65 1.12-5.47z" fill="#b0d2a4"/><path d="M223.15 82c-2-.41-4.76 1.3-5.44-2.22l2.34-4.17c1.06-.81 2.12-1.62 3.17-2.44l5.42 3.32c.9 1.82-.6 2.7-1.49 3.83a5.38 5.38 0 01-4 1.68z" fill="#c7e2bb"/><path class="cls-85" d="M259.64 164.62c10.49-3.73 10.35-3.74 11.13-16.06.39-6.35 1.39-12.66 2.14-19 .5-4.32-1.4-5.89-5.71-5.75-5.48.18-10.85 1.83-16.38 1.2a3.78 3.78 0 01-3.29.27c-2.7-3.12-1.85-7.4-3.56-10.85 0-4.85 4.46-6.23 7-9.11 2.65-2.16 5.31-4.29 8.76-5.07a5.64 5.64 0 013.78 2c7.08 6.86 13.89 14 21 20.8a2.26 2.26 0 01.72 2 27.52 27.52 0 00-5.12 7.67c-3.72 3.91-2 9.43-4.13 13.83-2.12 6.05-2 12.17-.74 18.37.48 2.3 1.31 4.61.46 7-1.54 2.14-3.56 1.49-5.35.65-4.04-1.93-8.03-4.08-10.71-7.95z"/><path d="M259.64 164.62c5.45 2 9.11 7.54 15.42 7.86 2.6-.54 4.95.75 7.44 1 3.4.86 6.87.65 10.33.68 1.77-.1 3.53 0 5.3 0 3.14-.21 6.32.42 9.41-.49a55.47 55.47 0 0010-3.41c4.64-1.57 8.07-5.55 13-6.58 2.66.49 5.75-.18 7.52 2.74C328 178.2 314.59 183 299.74 183.94c-18.29 1.12-34.88-3.27-47.71-17.46z" fill="#284e20"/><path d="M232.11 172.47a6.25 6.25 0 014.41-1.13c2.28 2 2.16 5.07 3.14 7.65.35 1.24.54 2.51.93 3.74 3 9.66 4.21 8.63-5.22 15.71-2.8 2.09-5.75 4-8.53 6.07-3.31 2.53-5.73 1.72-7.56-1.76a106.51 106.51 0 01-7.57-17.1c2.65-5.84 11.65-11.65 17.32-11.2 1.24 1.58 1.17 3.58 1.73 5.39.67 2.23.53 4.76 3.36 7.47-.07-3.88-1.23-6.61-1.86-9.39-.33-1.81-1.08-3.61-.15-5.45z" fill="#437b34"/><path d="M228.74 174.59a36.26 36.26 0 00-16.5 11.12c-.72 3.45-3 6.17-4.47 9.27-2.28 1.44-4.9 2-7.37 3-2 .76-3.9.85-4.61-1.83-.2-4.23 2.51-7.24 4.48-10.56 3.17-3.13 5.47-7.07 9-9.85 4.8-3.09 9.37-6.57 14.59-9 1.94-.64 3.71-2.54 6-.88-1.94 2.59.37 4.48 1.12 6.62.33 1.82-.98 1.95-2.24 2.11z" fill="#776e26"/><path class="cls-191" d="M246.42 133.79c3.51-1.82 7.31-.84 11-1.12 4.83.35 4.69 5 6.65 7.75.61 4.35-1 8.49-1.15 12.78-.1 3.52-2.87 3.56-5.44 3.65-.65-7-6.68-11.17-8.9-17.33a12.63 12.63 0 00-1.64-2.34c-.6-1.07-1.3-2.12-.52-3.39z"/><path d="M206.77 126.07c0-1.46-.05-2.92-.08-4.39-1.5-2.88-.16-5.75 0-8.63a4.25 4.25 0 012.13-2.73c1.92-.4 3.56.47 5.14 1.31a52.88 52.88 0 0014.78 5.2c1.78.35 3.59.66 4.75 2.29.95 3.63-.68 6.11-3.59 8-.37.41-.73.83-1.09 1.25-5.86-3.86-13-4.37-19.31-7.08-2.74-1.16-.5 3.84-2.73 4.78z" fill="#6ba357"/><path class="cls-298" d="M249.72 138.21a16.18 16.18 0 005.13 9.21c3.14 3 3.6 5.78 2.62 9.43l-7.72 1.28a3 3 0 01-1.38-3.46c1.09-1.69 3.35-1.68 5-3-2.49-1.65-5.23.76-7.31-1.16-1.45-4-6.34-6.56-4.83-11.76 2.7-1.98 5.57-1.82 8.49-.54z"/><path d="M244.24 114c3.94 2.81 2.22 7.28 3.22 10.94-.8 1.16-2.4.09-3.24 1.15l-6.72.11c-1.59-3.62 1.47-5.92 2.48-8.81 1.13-1.52 2.23-3.05 4.26-3.39z" fill="#305b26"/><path class="cls-195" d="M229.87 165.84l-5.54 2a3.52 3.52 0 01-.64-4c1.53-2.67 4.3-3.52 6.86-4.67 2.61-.62 5-2.33 7.92-1.47 1.2.91 1.91 2 1.28 3.57z"/><path d="M238.65 179.05a16.71 16.71 0 01-2.13-7.71c2.48-.63 4.89-3.58 7.48-.21.48 1.89.95 3.79 1.43 5.68l-.47.09c-1.61 2.15-3.85 2.47-6.31 2.15z" fill="#2a5022"/><path d="M241.09 117.36c-.68 3.15-3.31 5.5-3.59 8.82-1.83.27-3.17 3.14-5.45 1-.63-3.31 2.2-5.64 2.46-8.69a7 7 0 011.74-2.6 3.52 3.52 0 011.52-.44 3.86 3.86 0 013.32 1.91z" fill="#6da158"/><path class="cls-302" d="M239.75 161.26l-1.06-3.21c.08-.23.17-.47.26-.71 2.33-2.23 5.34-2.74 8.35-3.25a2.36 2.36 0 011.33.67c.38 1.13.75 2.25 1.12 3.37a22.15 22.15 0 01-10 3.13z"/><path d="M249.72 138.21c-3.05-.54-5.84 1-8.81 1.12-1.22 1.39-2.54 2.37-4.42 1.09-2.63-2-6.59-.43-8.87-3.33 1.57-1.62 3.62-.92 5.48-1.11 4.8.52 9.71-.46 14.42 1.13a2.29 2.29 0 012.2 1.1z" fill="#b7aa36"/><path class="cls-298" d="M247.52 137.11c-4.9.8-9.81 1.77-14.42-1.13 4.28-1.68 8.89-1.4 13.32-2.19.36 1.11.73 2.21 1.1 3.32z"/><path d="M264.06 140.42c-3.17-1.77-3.46-6-6.65-7.75 2.25-1.61 5.23-1.92 6.9-.31 2.31 2.23.22 5.34-.25 8.06z" fill="#a2972f"/><path d="M228.74 174.59l2.25-2.13h1.12a9 9 0 011.07 5.44c.8 3.59-1 3.25-3.32 2.22-1.86-1.56-.86-3.67-1.12-5.53z" fill="#598a4a"/><path d="M235.75 118.19l-3.7 9h-2.14l3.44-7.59a1.71 1.71 0 012.4-1.41z" fill="#d1e4ca"/><path d="M244.22 126.07c.77-1.25 2.07-1 3.24-1.15l3.36.1c-1.95 1.98-4.39.76-6.6 1.05z" fill="#617a46"/><path class="cls-302" d="M236.49 140.42l4.42-1.09c1.25 4 5.53 6.41 5.51 11a2.76 2.76 0 01-1.39 1.9c-2 .9-4 1.65-6.26 1.21-3.94-2.72-5.51-6.94-7-11.19.1-.25.21-.49.31-.74a7.58 7.58 0 014.41-1.09z"/><path d="M218.81 144.81l-1.09-1.1c1-1.76 3.46-.42 4.42-2.18 3.31.26 6.61-2.85 9.92 0-1.91 1.86-4.52 1.9-6.88 2.62-2.12.23-4.11 1.73-6.37.66z" fill="#c5b94a"/><path d="M207.69 112.83a19.58 19.58 0 01-1 8.85h-2.12v-12l1.05-.11c1.27.67 1.26 2.23 2.07 3.26z" fill="#99c08c"/><path d="M405.32 161.33c3.18 1.9 6.75 3.28 8.83 6.64-3.9 4.79-7.37 9.9-11 14.89-1.77 2.45-3.37 5.3-7 5.51-2.81-2-5.14-4.3-4.23-8.24a95.66 95.66 0 0013.4-18.8z" fill="#4593c2"/><path d="M391.94 180.13l4.44 7.74a2.3 2.3 0 01.4 3.14c-4.37-1.63-8.45-8.19-8.22-13.19a2 2 0 01.35-.85z" fill="#9ac6e0"/><path d="M383.2 191.18c-.25-2.56 1.44-4.47 2.26-6.67a3.86 3.86 0 01.76 0c5-.17 4.93 4.62 7.13 7.2.68 2.1 2.77 4.08.66 6.47-3.4.85-6.25-.82-9.12-2.16-2.05-.96-2.82-2.63-1.69-4.84z" fill="#015888"/><path d="M392.22 192.22c-1.87-2.67-2.77-6.1-6-7.72.52-2.32.92-4.67 2.35-6.68 1.16 5.27 5.38 8.74 7.83 13.26 1.61.17 1.24 1 .4 1.61-1.58 1.08-3.14.56-4.58-.47z" fill="#4793bf"/><path d="M392.22 192.22c1.35-.56 3.33 1.24 4.18-1.14v-3.21c6-3.93 8.61-10.66 12.93-16 1.38-1.7 2.26-3.78 4.84-3.92a17.26 17.26 0 015.49 5.53c-6 4.63-9.43 11.37-13.55 17.45-2 3-6.15 4.68-6.3 9a6.38 6.38 0 00-4.24 1.09 2.54 2.54 0 01-1.43-3.28c-.65-1.83-1.29-3.68-1.92-5.52z" fill="#408fbd"/><path d="M207.69 112.83c-2.25-.11-2.05-1.79-2.11-3.3a18.38 18.38 0 012.21-9.91c0 2.16 1.55 3.3 3.05 4.45l.52.55a7.15 7.15 0 01-2.34 6.09z" fill="#a6ca98"/><path d="M349 226.41l-3.33 4.43c-.39-1.84-.79-3.69-1.18-5.54l-2.07-9.91c.3-1.33-.8-3.41 1-3.83s3.42.86 4.46 2.52c2 3 2 6.44 2 9.87z" fill="#ec9057"/><path d="M310.53 241c-2.13 4.12-5.71 6.94-9.07 9.94-4.28-10.57-3.43-21.26.06-31.69 7.12-21.26 20.24-36.72 43-42.28-.36 1.41-.71 2.82-1.07 4.24-2 1.32-.13 4-2 5.41-6.93 3.84-14 7.48-19.14 13.79a23.93 23.93 0 00-4.5 5.61 49.11 49.11 0 00-3.43 5.58 42.49 42.49 0 00-3.95 9.83c-.69 1.68-.68 3.68-2.24 5-1.36 3.72-2.6 7.42 1.06 10.64 1.22 1.02 1.12 2.5 1.28 3.93z" fill="#015b8a"/><path d="M311.51 230.81c2 .79 4.9.22 5.49 3.36-4.94 2.89-6 2.36-6.58-3.35.36-.55.73-.52 1.09-.01z" fill="#2f7ba2"/><path class="cls-42" d="M311.51 230.81h-1.09c-.64-1.53-2.36-2.52-2.23-4.44a9 9 0 011.15-5.5c3.25.24 3 2.22 2.2 4.44v2.17c0 1.12-.01 2.23-.03 3.33z"/><path d="M349.92 224a18.81 18.81 0 01-2-9.86c6.33 2.1 3.82 6.03 2 9.86z" fill="#f2ad89"/><path d="M321.39 199.84c5.35-6.44 11.46-11.72 20.06-13.24l-2.1 5.69c-6.28.14-9.85 4.48-13.52 8.68l-2.19 2.25-2.11 1.27c-1.53-1.49-.95-3.07-.14-4.65z" fill="#539fce"/><path class="cls-156" d="M313.69 210.92c.4-2.26 1.83-3.9 3.33-5.5 1.45 1.21 1.47 2.79 1.13 4.46v1.07a6.38 6.38 0 00-2.19 4.43h-1c-3.18-.73-1.74-2.73-1.27-4.46z"/><path d="M318.15 209.88a7.67 7.67 0 01-1.13-4.46c1.05-2.18 2.19-4.28 4.37-5.58.05 1.55.09 3.1.14 4.65l-1.2 3.14z" fill="#4996c5"/><path d="M313.69 210.92c.22 1.55-.5 3.35 1.21 4.49 0 .72-.06 1.44-.08 2.15-1.23.82-1.08 2.1-1.1 3.32-1.58 1.17-.94 2.9-1.11 4.42h-1.08c.08-1.88-.2-3.58-2.19-4.44.87-3.55 1.81-7.09 4.35-9.94z" fill="#2e80ac"/><path d="M332.51 285c3.64-.66 7.52.87 11-1.17 4.71.15 8.69-2.47 13.1-3.46 2.64 1.91 3.41 3.54-.51 4.86a5.64 5.64 0 00-3.51 2.49c-4.81 9.06-11.7 16.7-17.2 25.29-1 1.62-2.16 3-.73 4.86h-3.24c-1.56-1.45-3.64-1.63-5.54-2.25-.82-3.13 1.38-5.12 2.82-7.39 3.72-5.86 8.86-10.8 11.37-17.42-2.07-2.51-6.24-2.37-7.56-5.81z" fill="#3989b6"/><path class="cls-37" d="M428.48 260.58h2.21c-2.22 7.92-8.6 11.41-15.66 12.88-7.35 1.53-14.63.35-19.69-6.39l1.15-1c2.17-.56 3.77.71 5.53 1.62 7.75 4 14.67 3.05 20.86-2.95a18.62 18.62 0 015.6-4.16z"/><path d="M428.48 260.58c-8.18 11.19-18.13 15.3-32 5.51a2.34 2.34 0 012.21-1.1c1.92-1.22 3.45.24 5.11.76 6.28 2 12.2 1.84 17.45-2.81 1.7-1.51 3.34-3.49 6.12-2.38z" fill="#3384b1"/><path class="cls-100" d="M427.38 260.56c-.7.21-1.64.19-2.05.64-7.83 8.79-16.81 9.2-26.63 3.79v-1l2.1-.11a4 4 0 013.1-.54 28.82 28.82 0 0019-3.79h4.39c.08.29.08.65.09 1.01z"/><path d="M400.88 207.63c-2-1.93-.75-4.39-1.09-6.58 2.01 1.95.74 4.38 1.09 6.58z" fill="#559bc2"/><path d="M394.12 197.76c.48 1.09.95 2.19 1.43 3.28l-.06 2.21-7.87-3.25-3.3-1.09-3.42-1.39c.41-2.23.81-4.47 2.3-6.32-.25 3.48 2.41 3.9 4.82 4.61 2.05.59 4.07 1.29 6.1 1.95z" fill="#01527a"/><path d="M423 259.51c-6.12 7.87-14.27 5.42-22.14 4.33 2.12-2.22 5.56-1.28 7.79-3.25a7.69 7.69 0 001.08 0l12.09-1.12z" fill="#4795c2"/><path d="M162.56 250.66l4.4-3.29v4.38l-3.32 4.41c-1 1.75-2 3.67-4.58 2.38-1-1.67 0-2.62 1.26-3.48.68-1.52 2.4-2.48 2.24-4.4z" fill="#ece49b"/><path d="M159.25 258.37c1.91.16 2.89-1.58 4.41-2.21v1.13c-1.89 7.18-9.47 13.74-16.54 14.31H146c.36-1.1.73-2.2 1.1-3.3 3.04-4.56 7.67-7.15 12.15-9.93z" fill="#f6eb85"/><path d="M147.12 271.6c7.21-2.81 12.26-8.11 16.54-14.31h2.15v1.09c-1 3.91-3.57 6.79-6.15 9.68-2.18 1.62-4.26 3.37-6.56 4.8-1.44.9-2.86 2.51-4.84 1a2.23 2.23 0 01-1.14-2.26z" fill="#f0e374"/><path d="M159.23 267.19c2.33-2.85 3.57-6.49 6.54-8.85 3.15 7.75.54 15-6.68 18.67-1.44.73-2.83 1.54-4.24 2.31a2.31 2.31 0 01-2.22-1.1c.88-2.16 3.07-3.58 3.43-6 .55-2.03 2.14-3.36 3.17-5.03z" fill="#ddcd3a"/><path d="M157 272.69c-.15 2.88-1.86 4.53-4.39 5.53-2.43 1.25-4.81 2.63-7.71 2.19.6-1.53 2.36-2.49 2.19-4.4 3.42-.83 5.72-4.92 9.91-3.32z" fill="#e0d255"/><path d="M157 272.69c-3.55.35-6.12 3.65-9.9 3.31.37-.73.73-1.47 1.1-2.2 4.46-.9 6.9-5.14 11-6.61.01 2.12-1.42 3.68-2.2 5.5z" fill="#ecde63"/><path d="M159.25 258.37c-3.06 4.52-7.93 6.81-12.14 9.92l-5.5 1.1c6.2-4.83 12-10.13 18.73-14.33z" fill="#f9f09d"/><path d="M278.52 230.7c-1.5 2-2.4.24-3.53-.52-1.35-.91-2.4-3.13-4.53-1.23-6.18-7.28-10.59-15.69-15.14-24-1.89-3.45-4.13-5-7.9-3.05a2.73 2.73 0 01-1.79-3.26 7 7 0 015.15-4.58 7 7 0 014 3.53c6.25 11.22 15.39 20.15 23.52 29.88z" fill="#bbb372"/><path d="M258.37 218.72l2.1 3.29c-3.15 4.14-7.9 4.39-12.45 5.11-2.28.92-4.26-1.79-6.56-.52a4.5 4.5 0 01-1.63 1.9c-1.63-3-3.29-6-4.89-9-1.47-2.76-.47-4.47 2.38-5.33 1.79-.74 2.59.67 3.57 1.66 6.3 6.42 7.21 6.59 15.91 2.94a2.18 2.18 0 011.57-.05z" fill="#e56d20"/><path d="M240.6 211.91c9.68-7.92 10.27-7.78 15.71 3.49-1.34 3.68-4.39 4.78-7.78 4.35-4.41-.56-6.67-3.81-7.93-7.84z" fill="#eb801d"/><path d="M239.83 228.5a2.12 2.12 0 011-2.07 2.45 2.45 0 011.68 1c.52.72 1 1.48 1.49 2.2.81 1.11 1.54 2.28 2.37 3.38 1.69 2.61 3.48 4.92 7 2.83.81-.4 1.64-.77 2.46-1.16a7.93 7.93 0 002.11-1.26c.38-.86-.15-1.69-.09-2.55 1.21-2.59 2.74-4.61 6.07-3.31 3.81 5.14 3.66 5.91-1.75 8.31-3.85 1.7-7.79 3.21-11.57 5-2.52 1.23-4.12.75-5.35-1.69-1.72-3.56-3.58-7.11-5.42-10.68z" fill="#de5324"/><path d="M240.6 211.91a8 8 0 011.74 1.24c5.66 7 6.68 7.21 14 2.25.68 1.11 1.37 2.21 2.06 3.32-7.69 6.26-12.65 5.6-18.69-2.41a16.88 16.88 0 00-2.36-2.17 5.58 5.58 0 013.25-2.23z" fill="#e8741e"/><path d="M264 227.53c-2.47.64-4.66 1.65-5.45 4.37-4.65.12-8.43-1.49-11-5.49l13-4.4z" fill="#e2621f"/><path d="M246.32 198.67c.36 1.08.73 2.17 1.1 3.25-3.3 1.24-5 5-8.74 5.55a3.07 3.07 0 01-1.52-2.59 10.34 10.34 0 019.16-6.21z" fill="#b4ab4e"/><path d="M237.22 205.31a2.23 2.23 0 011.46 2.16c-1.7 1.2-2.77 3.25-5 3.67-1.11.25-2.19.85-3.37.31-.31-5.02 3.04-5.84 6.91-6.14z" fill="#b7ac37"/><path d="M229.61 210.86l4 .28-3.75 3.14c-2.06 1.28-4.35 1.14-6.63 1.11.63-3.63 3.26-4.39 6.38-4.53z" fill="#c4b739"/><path d="M181.29 162.39l6.54-3.29c1.51-.59 2.4.4 3.19 1.36 4 4.86 8.72 9.14 11 15.2a17.7 17.7 0 01-7.68 11.05 110.06 110.06 0 00-16.38-21z" fill="#dccc3a"/><path d="M193.46 211l-.15-3.32c.14-1.8.28-3.6.41-5.4 2.39.81 3.57-1 5.1-2.21 3.07-2.49 6-5.4 10.53-4.73 1.06 1 1.74 2.14.59 3.54-6.67 2.41-11.08 7.93-16.48 12.12z" fill="#938a2d"/><path class="cls-211" d="M201.31 185.89c-1.17 3.38-4 6-4.54 9.65-1.24.85.44 3.44-2.1 3.52-1.94-2.08-3.44-4.24-1.27-7.06 1.57-3.83 1.92-8.54 7-9.84a2.66 2.66 0 01.91 3.73z"/><path d="M194.67 199.06l2.1-3.52c.23 2.24 1.41 2 3 1.26a22.18 22.18 0 018.19-2.47c.84.06 1.34.32.72 1.23-4.58 1.19-8.11 4.06-11.06 7.52-2.23 2.61-2.94 1-3.89-.83.27-1.07.62-2.13.94-3.19z" fill="#8c832c"/><path d="M200 182.15c-3.15 2.65-4.44 6.54-6.59 9.85-1.71-2.14.92-3.48 1-5.29l6.92-10.8c.47-1.69 1.37-2.95 3.26-3.22 1.15 0 2.12.3 2.47 1.57a17.8 17.8 0 01-7.06 7.89z" fill="#f1eaa9"/><path d="M189 206.16c.08-1.37.17-2.73.29-4.7 1.3 2.16.71 3.65-.29 4.7z" fill="#e8d956"/><path class="cls-161" d="M208.67 195.56l-.72-1.23c-.76-4 1.79-6.28 4.29-8.62 3.82 5 5.13 11.26 8.25 16.64 1.5 2.58 2.52 3.64 5.31 1.28a98.57 98.57 0 0112.84-9.38c3.16-1.89 3.26-3.84 2.06-6.74-1.11-2.69-2.27-5.42-2-8.46 1.76-1.71 4.24-1.33 6.31-2.15 1 3.34 1.62 6.83 3.67 9.77l2 5.58c.89.63.76 1.36.19 2.13l-4.48 4.29a39.88 39.88 0 00-9.1 6.64 29.29 29.29 0 00-7.61 5.55l-6.35 4.53-1.09.22c-2.76.19-4.53-1.25-5.8-3.51l-1.85-3.37a8.38 8.38 0 00-2.14-4.44q-1.23-2.72-2.44-5.44c-.49-1.09-.92-2.19-1.34-3.29z"/><path d="M250.93 290.24l-2.31.11-2.23-2.22c1.54.07 3.23-.48 4.43 1.05a5.37 5.37 0 00.11 1.06z" fill="#bbb366"/><path d="M275 145.94a78.82 78.82 0 001-8.61 5.63 5.63 0 013.56-5.49c3.07-2.94 7.14-1 10.54-2.16 1.14-2.45-1.39-3.75-1.8-5.7a98.38 98.38 0 00-6.3-12.76c-1.14-1.67-1.46-3.66-2.12-5.52-.63-2.08-2.09-3.87-2.17-6.14a2.5 2.5 0 01.62-1.31c11.05 5.36 22.12 5.53 33.21.12a3.09 3.09 0 01.83 3 33.48 33.48 0 01-2.2 5.07c-1.24 2.23-2.34 4.54-3.4 6.87-1.82 3.11-2.74 6.73-5.35 9.39-1.16 2-2.5 4-3.45 6.16-1.9 4.25.83 2.61 2.69 2 1.59-2 3.84-1.77 6-1.85a12.35 12.35 0 013.67.63 7.58 7.58 0 014.73 6.38 45.42 45.42 0 001.07 8c.28 3.06.68 6.11 1.08 9.17.45 3.36.09 6.55-3.07 8.69a9 9 0 01-3.76 1 36.62 36.62 0 01-5.83-.11c-5.41-1.2-10.9-1-16.39-.95-3.7-.19-7.44.4-11.1-.55-2.91-1.18-3.07-3.65-3.06-6.28a44.35 44.35 0 011-9.05z" fill="#fdfdfc"/><path d="M256.44 93v-2.16a12.71 12.71 0 0113.08 0 20.15 20.15 0 015.63 5.45c-3.79 2.87-8.24 1-12.33 1.74-3.36-.03-5.4-1.87-6.38-5.03z" fill="#619a4f"/><path class="cls-352" d="M330.29 95.25a12 12 0 01-4.45 4.36c-4.57.11-9.51 2.4-13.29-2.22l4.57-3.23a15.76 15.76 0 019.07-1.58c1.72.25 3.81.12 4.1 2.67z"/><path class="cls-127" d="M261.88 97.39c4.28-2.22 8.89-.49 13.3-1.1a3.52 3.52 0 013.14 2v.28c-.63 2.73-2.54 3.61-5.14 3.67-2.15 0-4.31 0-6.45.27-2.89-.51-5.09-1.65-4.85-5.12z"/><path d="M330.29 95.25c-4.22-2.33-8.79-.58-13.17-1.09 1.8-1.85 3.61-3.7 5.41-5.56 3.62.9 7 3.19 11 2.24.06 2.32-1.53 3.37-3.24 4.41z" fill="#60994e"/><path d="M269.55 90.84h-13.08l3.24-5.52a4.27 4.27 0 015.46 0l2.21 2.22c.72 1.09 1.45 2.19 2.17 3.3z" fill="#599147"/><path d="M312.55 97.39c4.09 2.74 9.2-.52 13.29 2.22a5.67 5.67 0 01-3.42 3.1c-3.8.41-7.7 1.93-11.22-.94l.33-3.4z" fill="#6ea65a"/><path class="cls-356" d="M218 89.74c1.42-1.84 2.85-3.67 4.27-5.5 1.36-1.12 2.8-.67 4.11 0 7.56 3.62 15.27 4.62 23.31 1.69 1.54-.56 3.22-.84 4.61.55-.83 1.81-1.65 3.62-2.48 5.42a3.36 3.36 0 01-.74 2.52C241.77 100 227.57 98 218 89.74z"/><path d="M250.9 92.93l.87-1.07 4.67 1.14 5.44 4.38a10.73 10.73 0 004.5 4.3c3.5 0 4.76 3.23 7.07 5 1.85 1.94 3.76 3.83 5.7 5.69 3.62 3.68 7.46 7.17 10.34 11.52 1.33 2.08 2.77 4.11 3.15 6.64-4.47.84-6-2.44-7.64-5.49-7-6.78-13.9-13.58-20.89-20.33-1.44-1.39-2.57-3.16-4.58-3.88-2.35.41-3.37-1.55-4.83-2.72-1.49-1.58-3.18-2.99-3.8-5.18z" fill="#325e27"/><path d="M254.25 86.44c-3-.2-5.66 1.35-8.45 2.14-8.62 2.46-16-1.48-23.58-4.34l.93-2.26 3.3-2.25a3.45 3.45 0 013.12.44c6.82 3.75 13.54 3.21 20.19-.46a14.86 14.86 0 012.11.14c6.21 1.25 6.21 1.26 2.38 6.59z" fill="#86be6e"/><path class="cls-359" d="M249.76 79.71c-2.8 4.05-8.82 5.68-15 4.1a23.32 23.32 0 01-8.26-4.08l2.19-3.26a2.49 2.49 0 012.31-1.08 33.51 33.51 0 0016.42 1.09c-.2 1.78 1.35 2.3 2.34 3.23z"/><path class="cls-92" d="M265.17 85.31h-5.46c.75-1.39 1-3.12 2.71-3.89 1.7.77 1.95 2.58 2.75 3.89z"/><path d="M298.25 34.54c.53 3.39 2.26 6.44 2.33 10 .1 5.1-1.63 8.8-6.16 11.23s-9.24 3.18-13.77-.24c.37-.73.74-1.46 1.12-2.19 1.43-.69 2.86-.19 4.31 0 7.2.77 12-5 9.91-11.78-.46-1.53-1.67-2.92-1-4.7l2.17-2.28z" fill="#7bb365"/><path class="cls-356" d="M295 36.87c2.82 4.25 5 8.56 1.26 13.44s-7.16 5.57-14.49 3.07v-1.11l2.14-1.16c.84-.87 1.94-.74 3-.89 5.33-.74 7-3.19 5.94-8.58a4 4 0 01-.1-2.63 3.68 3.68 0 012.25-2.14z"/><path class="cls-359" d="M292.76 39c2.51 3 2.95 6 .79 9.39-2.44 3.83-6.06 3.15-9.65 2.71v-1.09c.39-.73.77-1.46 1.15-2.19h.06c4-.43 5.49-2.92 5.47-6.64a3.88 3.88 0 012.18-2.18z"/><path d="M290.56 41.23c1.06 2 1.72 4-.08 6.1s-3.46 1.65-5.39.54v-1.09c2.46-1.2 3.56-3.78 5.47-5.55z" fill="#91c979"/><path d="M318.16 112.87a23.88 23.88 0 016.66-6.59c4.53-1 9-1.06 13.24 1.18l-1.4 4.28a29.46 29.46 0 01-18.5 1.13z" fill="#558d44"/><path d="M338.07 166.44l-8-2c-3 .3-5.91.31-8.58-1.36-3-2.18-3.1-5.62-3.45-8.76-.47-4.11-1-8.21-1.39-12.33a32.07 32.07 0 00-.79-8 14 14 0 01-.29-2.75c.06-2.2-.19-4.46.94-6.51 1.54-2.08 3.78-2.34 6.11-2.38 4.31-.6 8 1.91 12.08 2.41l3.4.09c2.46-1.5 4.27.76 6.41 1.11 1.14 2.82 3.45 5.29 2.6 8.7-5.14.64-10.14-.67-15.2-1.12s-5.33-.15-4.83 4.88c.36 3.63.83 7.26 1.17 10.88s1.75 5.84 5.53 6.17c4.8 1.37 10 1.72 14.11 4.94.07.31.16.61.25.92a20.77 20.77 0 00-1.55 7.5 27.7 27.7 0 00-8.52-2.39z" fill="#005b8a"/><path d="M347.88 160.46l-14.3-3.62c-.34-5.23 9.08-18.2 14.32-19.72.35.79.71 1.57 1.06 2.35.15 7.03.27 14.05-1.08 20.99z" fill="#67b1e1"/><path d="M347.9 137.12a65 65 0 00-14.32 19.72c-4.39.35-6.75-1.05-6.8-6.06A97.52 97.52 0 00325 136.1c-.53-3.25.16-5.1 3.83-4.34 6 1.25 12.46.17 18.25 3 .29.75.55 1.56.82 2.36z" fill="#6cb5e7"/><path d="M344.5 126a15.13 15.13 0 01-6.41-1.11c1.91-4.25.94-9.18 3.11-13.38.11 2.19.45 4.28 2.32 5.76.93 2.85-2.44 6.17.98 8.73z" fill="#5e9651"/><path class="cls-119" d="M322.52 123.73c-1.88.1-3.76.25-5.35 1.45-4.06.53-6.71 3.66-10.08 5.46l-6.44.21c2.2-4.41 6.14-7.17 9.7-10.3 5.44-4.54 12-5.71 18.75-5.9 2-.06 4-.12 5.57 1.52.13 1.93-1.56 2.93-2.29 4.42-1.08 2.15-3 2.38-5 2-1.84-.41-3.53-.46-4.86 1.14z"/><path d="M334.67 116.17c-8.49-.7-16.5 1.33-24.32 4.38a35.13 35.13 0 017.81-7.68c6.1-1.44 12.32-1.05 18.5-1.13-.61 1.5-.66 3.26-1.99 4.43z" fill="#5c934a"/><path class="cls-368" d="M322.52 123.73c-.59-3.88 2.25-3.17 4.1-2.63a6.7 6.7 0 005.76-.51c-1.07 2.42.19 3.55 2.31 4.22-4.16.79-8.07-1.14-12.17-1.08z"/><path d="M306 112.86c.33-2.57 1.73-4.63 3.16-6.67 3.14-2 6.26-2.35 9.32.16l-7.92 7.77c-1.67-.01-3.39.27-4.56-1.26z" fill="#7eb668"/><path d="M318.44 106.35l-9.32-.16a8.85 8.85 0 012.08-4.42c3.72.54 7.61-.86 11.22.94-1.32 1.22-1.76 3.4-3.98 3.64z" fill="#74ac60"/><path d="M306 112.86c1.6.14 3.41-.49 4.56 1.26-2.8 3.11-5.45 6.38-9.11 8.58a29.63 29.63 0 014.55-9.84z" fill="#89c072"/><path d="M318.15 312.35c-3.7-2.18-8.15-3.06-11.07-6.54a1.77 1.77 0 01-.44-2c3.46-5.53 6.55-11.33 11.71-15.59a11.19 11.19 0 015.21 0c2.68 1.1 5.72.19 8.38 1.42 1.64 1.21.94 2.73.19 3.89-4.26 6.54-8.13 13.38-13.98 18.82z" fill="#4290be"/><path d="M318.15 312.35c3.88-7.86 10.28-14.07 14.34-21.81 2.08-2.45 4.83-.93 7.27-1.22a6 6 0 012.66 1c-4.58 9-12.11 16.13-16.52 25.27z" fill="#3d8cba"/><path d="M318.32 289.14c-3.76 5.55-8.35 10.54-11.24 16.67l-2.16-.06-6.64-5.5c-.46-5.05 5.31-13.26 10.82-15.42a22.26 22.26 0 018 2.28 2.11 2.11 0 011.22 2.03z" fill="#4a97c5"/><path d="M323.64 275c-5.86-1.18-10.82-4.14-15.44-7.77.69-2.88 3.45-4.18 4.93-6.46 1.94-2 .29-4.51.94-6.71s1.18-4.14 3-5.59c6.38 1.63 12.18 4.66 18.09 7.41 1.07.5 3 1.1 2 2.56C332.92 264.2 330 271 323.64 275z" fill="#847c2b"/><path d="M317 248.46c-.43 3.44-3.12 6.53-1.31 10.38.56 1.2-.79 2.25-2 2.84-1.61-1.36-3.05-1.44-4.58.26-1.16 1.3-2.33 2.74-4.26 3-1.11-.78-2.21-1.57-3.31-2.36 3.43-4.64 8.51-7.78 11.58-12.76.93-1.42 2.45-1.38 3.88-1.36z" fill="#89802c"/><path d="M342.42 290.34l-2.46-.09c-5.07-1.33-10.41.47-15.45-1.3a12.3 12.3 0 00-4-1c-1.75-.7-3.71-1.05-4.83-2.82a3.1 3.1 0 011.35-3.55c5.15 1.17 10.06 3.43 15.47 3.4 2.96 2.41 7.26 2.38 9.92 5.36z" fill="#4593c1"/><path d="M317 281.55l-1.09 3.21c-2.61 2.17-4.58 0-6.73-1-1.81-1.46-4.14-2.32-5.33-4.52 0-.34-.06-.68-.1-1 .35-1 .69-2.09 1-3.14z" fill="#4d9ac8"/><path d="M304.89 265c1.4-1.57 2.86-3.11 4.21-4.73 2.78-3.35 4.15-2.41 4.63 1.46a17.62 17.62 0 01-5.53 5.54c-1.11-.8-2.2-1.56-3.31-2.27z" fill="#8e8738"/><path d="M250.8 194.38c-.06-.71-.13-1.42-.19-2.13 1.61-1.42 2.52 0 3.56.87 6.4 6 10.6 13.75 16.23 20.35 1.51 1.77 2.76 3.82 4.91 5 2.08 2.66 2.3 5.94 3 9.06-6.51-2.85-9.54-9.25-13.9-14.15-5.17-5.82-9.14-12.64-13.61-19z" fill="#bdb77f"/><path d="M275.31 218.43c-1.15 1.46-1.91.24-2.57-.48a170.18 170.18 0 01-18.57-24.82c10.49 5.56 17.25 14.24 21.14 25.3z" fill="#c1bc8d"/><path d="M309.3 285.93c-5.76 3.17-8.55 8.62-11 14.32-2.94-2.57-6.8-4.1-8.84-7.71 4-3.3 6.61-7.63 8.87-12.21l3.3 1.14c2.63-.89 4.2 1.35 6.27 2.11.81.57 1.88 1 1.4 2.35z" fill="#4f9ccb"/><path d="M307.2 284.6l-5.6-3.13c0-1.49.89-2.12 2.28-2.21 2.24.44 3.86 1.91 5.53 3.3-.26 1.19-1.27 1.58-2.21 2.04z" fill="#97c5e0"/><path d="M204.41 173.44l-3.12 2.47a101.39 101.39 0 00-13.46-16.81l3.4-3.29 6.59-2.23c6 3.2 8.45 9.43 12.52 14.29-.55 3.37-3.6 4.13-5.93 5.57z" fill="#d4c438"/><path d="M209.94 168c-5.16-3.85-7.79-9.83-12.12-14.38 1.71-1.33 3.21-3 5.55-3.27l4.4-1.11a31.55 31.55 0 0110.35 13c.11 1.5-.94 2.26-1.93 3.07a34.45 34.45 0 01-5 3.12 1.3 1.3 0 01-1.25-.43z" fill="#ccbd37"/><path class="cls-200" d="M218.81 144.81l5.54-2.15c2.86 4.15 6.41 7.91 7.25 13.18a3 3 0 01-1.37 2c-2.25 1-4.35 2.52-7 1.9-3.89-2.81-6.07-7-8.84-10.76a2.22 2.22 0 01.06-3z"/><path d="M214.42 146c1.91 5.12 6.39 8.52 8.85 13.26a1.19 1.19 0 010 1.41c-1.64 1.26-3.23 2.68-5.57 1.83l-10-13.27c1.79-2.15 4.58-2.03 6.72-3.23z" fill="#c6b836"/><path class="cls-387" d="M250.9 92.93l4.62 4.38c-.57 2.27-2.35 3.3-4.36 3.74-11.27 2.45-22.24 2-32.53-3.85a6.51 6.51 0 01-3-3.06l-.11-1.14 2.48-3.26c6 1.81 11.3 5.67 17.84 6.26 5.4.48 10.49.21 15.06-3.07z"/><path d="M215.58 94.14a47.25 47.25 0 0028.14 6.66c4.25-.33 8.25-1 11.8-3.49l4 3.49-7.75 5.38c-2.49.22-4.8 1.33-7.31 1.47a48.24 48.24 0 01-25.71-4.8c-2.13-1-4.37-2-5.52-4.34a7.06 7.06 0 012.35-4.37z" fill="#79b163"/><path d="M213.24 98.51c10 5.45 20.49 8.84 32.07 7.74.55 2.87-1.82 3.8-3.46 5.23a7.31 7.31 0 00-2.95 3.06 5.12 5.12 0 01-1.31 1.65h-1.1c-2.4-2.12-5.41-2.65-8.38-3.51-6.16-1.79-12.9-2.62-16.92-8.65h-.34c.39-1.98.66-4.03 2.39-5.52z" fill="#75ae60"/><path class="cls-86" d="M275 145.94c-.07 3-.06 6.07-.23 9.09-.13 2.3.19 4.28 2.5 5.41a7.88 7.88 0 012.19 1.27c1.63 4.14 3.61 8.22 2.23 12.88a11.23 11.23 0 01-6.67-2.11c-1.31-8.18-3.75-16.33-1-24.67a11.19 11.19 0 01.98-1.87z"/><path class="cls-390" d="M241 110.63a11.57 11.57 0 004.32-4.38c2.16-.29 4.3-1.86 6.47-.07-2.4 2.71-5.72 4.53-7.54 7.8l-3.15 3.38-3.5-1.17v-2.24a9.54 9.54 0 003.4-3.32z"/><path d="M285 125c3 1.25 4.05 5.1 7.64 5.49-4.18 2.08-8.7.84-13.05 1.34 1.19-2.76 1.21-6.44 5.41-6.83z" fill="#4c833c"/><path d="M281.73 174.59q-1.68-6.59-3.34-13.16c2.2-1.22 4.58-.36 6.87-.58a2.53 2.53 0 013.05 2.37 16.35 16.35 0 004.77 10.48c.48.53.14 1.37-.31 2-3.71-.13-7.51.73-11.04-1.11z" fill="#548d43"/><path d="M318.23 171.33a22 22 0 01-10 3.3c-3.92.87-7.56-1.31-11.43-1-4.58-3.16-5.81-6.44-4.57-12.09 6.23-1.3 6.73-1.16 8.44 4.6.74 2.49 2 3.68 4.5 3.59s4.75-1 7.14-1.38a4.65 4.65 0 012.34.19 9.83 9.83 0 013.58 2.79z" fill="#74aa60"/><path d="M292.75 161.38c0 4.27.48 8.33 4.42 11 1.17.83 2.37 1.63 1.11 3.27h-5.51a3.33 3.33 0 00-2.93-3.35c-1.88-.44-2.39-1.82-2.61-3.61-.91-7.4-1-7.4-8.84-7.29l-1.08-1h11c1.38.96 3.16-.18 4.44.98z" fill="#659b53"/><path d="M318.23 171.33c-1.57-.08-3.29.06-3.4-2.24-.44-.83 0-1.38.57-1.92 2.34-1.57 5.28-2.21 7.16-4.5l7.5 1.81c-3.84 2.46-7.36 5.52-11.83 6.85z" fill="#82b96e"/><path class="cls-352" d="M298.28 175.66l-1.11-3.27c4.05-1 7.44 1.29 11.1 2.24-3.16 1.96-6.65.86-9.99 1.03z"/><path d="M229.86 180.12c1.6 0 3.21 0 3.32-2.22 1.56 2.33 1.82 5.06 2.35 7.7.22 1.12 1.45 2.54-.62 3.12a2.79 2.79 0 01-3.62-1.69c-.85-2.21-1.73-4.45-1.43-6.91z" fill="#4d833f"/><path class="cls-81" d="M224.34 163.67v4.2l-14.39 8.75c-1.54-.51-2-1.68-1.87-3.15a6.56 6.56 0 013.32-4.17c2-1 3.78-2.21 5.65-3.37 2.18-1 4.13-2.57 6.67-2.64z"/><path d="M208.85 173.36c.36 1.09.73 2.18 1.09 3.26l-8.63 9.27-1.31-3.74c1.51-3.16 4-5.45 6.59-7.71.53-.82 1.15-1.44 2.26-1.08z" fill="#d6c63c"/><path d="M211.19 104c6.39 4 13.12 7 20.74 8 2.13.27 5 .69 4.56 4.2l-.75 2-2.39 1.36c-8.48-1.92-16.81-4.27-24.33-8.84a18.75 18.75 0 012.17-6.72z" fill="#70a95c"/><path d="M245.31 151.45l1.11-1.11c1.75-.35 3.5-.77 5.26-1s3.42 0 3.85 2-1.35 2.07-2.74 2.37-2.77.71-4.16 1.07h-1.12c-1.08-.9-2.09-1.78-2.2-3.33z" fill="#b5a93d"/><path d="M229.86 157l1.11-1.14c.93-2 2.7-2.37 4.68-2.26 2.23.64 4.33 1.38 3 4.44l-7.65 2.18c-1-.87-1.88-1.79-1.14-3.22z" fill="#ccc05b"/><path d="M229.86 157c.36 1.07.72 2.15 1.09 3.23l-6.61 3.45v-.21c-1-.85-1.9-1.72-1.1-3.19v-1z" fill="#d4ca6a"/><path d="M238.67 158a3.07 3.07 0 00-3.29-3.28c-.26-2.8 2.31-1.32 3.32-2.19l6.61-1.11a3.3 3.3 0 012.2 3.3z" fill="#c1b64c"/><path class="cls-121" d="M238.7 152.56l-3.32 2.19a7.51 7.51 0 00-4.41 1.1c-1.42-4.79-6.12-7.94-6.62-13.19l7.71-1.14q3.33 5.48 6.64 11.04z"/><path d="M247.52 226.41l11 5.49c.71.39 1.66.67 1.39 1.72-.07.27-.86.35-1.31.52-6.3-.33-11.13-4.4-16.69-6.58l-1.08-1.13c.34-.75-2.83-3.28 1.07-2.2a55.23 55.23 0 015.62 2.18z" fill="#e6733b"/><path d="M241.94 227.56c6.34.2 11.14 4.33 16.68 6.58a2.47 2.47 0 01-2.15 1.19c-5.18-.16-9.07-3.35-13.33-5.65a2.38 2.38 0 01-1.2-2.12z" fill="#e87f51"/><path d="M243.14 229.68c5.05.44 8.92 3.67 13.33 5.64l-2.18 1.13a12.63 12.63 0 01-8.91-3.44z" fill="#eb8e67"/><path d="M245.38 233c3 1 6.29 1.37 8.9 3.44-5.04 4.22-7.06.62-8.9-3.44z" fill="#efa188"/><path d="M208.85 173.36l-2.27 1.08-2.17-1c1.26-2.41 3.81-3.53 5.53-5.48l1.12-.15c1 .46 1.61 1.15 1.13 2.34z" fill="#e9e095"/><path d="M288 135.82c6.11-1.43 12.37-1.23 18.47-.73 5.27.43 3.29 5.38 3.79 8.63-5.22 2-9.5 4.63-11.06 10.74-.9 3.52-4.66 1.45-7.15 1.86-4.5-3.39-1-7.52-1.05-11.32.64-2.66 3.21-3.24 5-4.62 1.47-1.11 1.51-1.91-.31-2.57-2.51-.81-5.63.56-7.69-1.99z" fill="#e7711d"/><path d="M291.61 155.7c4 .77 6.62-.13 7.59-4.82 1.18-5.72 5.62-7.45 11.05-7.16 2.22 13.48 2.23 13.46-11.43 13.13-5.1-.12-10.24-.41-15.32-.06-4.84.33-5.94-1.39-4.19-5.61 1.68 1.31 2.72 3.74 5.51 3.14 2.36.02 4.77-.23 6.79 1.38z" fill="#ec801d"/><path d="M322.56 162.67c.19 4.76-4.41 3.51-6.62 5.27-1.65-1.88-1.84-4.24-2.18-6.55 2.76-2.6 2.49-5.88 1.77-9.06a35 35 0 01-.72-8.59c.74-1.16 1.17-2.78 3.14-2.09.74 5.51 1.56 11 2.2 16.56.22 1.88.51 3.56 2.41 4.46z" fill="#a5ce95"/><path d="M284 155.71c-3.92.91-4.7-1.39-4.64-4.53.06-2.53.1-5.06.19-7.59.29-7.82.3-7.82 8.49-7.77 3 .86 6.38-1 9.18 1.3-2 2-4.74 1-7 1.9a15.87 15.87 0 01-2.25.41c-1.59.17-3.22.27-4.15 1.88-.86 1.46-.64 3.08-.68 4.66a5.17 5.17 0 001.68 5.16 4.26 4.26 0 01-.82 4.58z" fill="#e05b24"/><path d="M292.75 161.38c-1.5-.16-3.15.41-4.4-.94 5.55-.29 11.09-.41 16.55.91 2.54 3.05 3.53 6.28 1.14 9.89-4.21.47-7.35.21-6.84-5.63.36-4.2-3.2-4.51-6.45-4.23z" fill="#83b371"/><path class="cls-390" d="M272.78 107.51l-6.4-5.82c1.88-1.7 4.17-.88 6.26-.89 2.29 0 4.31-.26 5.71-2.27.74 2.22 1.49 4.45 2.23 6.68-1.58 4.24-5.07 1.95-7.8 2.3z"/><path d="M306 171.24c.46-3.39-.89-6.58-1.14-9.89l5.53.21c3.31 1.77 2.47 4.76 2.23 7.57-1.89 1.57-4.39 1.38-6.62 2.11z" fill="#91bf7f"/><path d="M289.49 123.86A85.71 85.71 0 01278.35 113c.31-3.1 2.81-2.26 4.66-2.59a77.21 77.21 0 016.48 13.45z" fill="#86bc6f"/><path class="cls-387" d="M283 110.36c-.87 2.08-3.66.72-4.66 2.59a22.28 22.28 0 01-5.56-5.44c2-2.73 5.69.14 7.79-2.3z"/><path class="cls-368" d="M307.09 130.64c2.69-3 4.64-7.48 10.08-5.46-.1 2.12-.2 4.25-.29 6.37-2.19-1.15-4.67-.15-6.91-.9z"/><path d="M318 141.65l-3.14 2.09a16.19 16.19 0 01-.94-7.77c.79-1.07 1.05-2.92 3.12-2.14 1.37 2.47 1.1 5.17.96 7.82z" fill="#77ae65"/><path d="M312.66 169.13c-2.28-2.07-.19-5.43-2.23-7.57l3.33-.17c3 1.42 2 4.2 2.18 6.55l-1.11 1.15z" fill="#9fc98e"/><path d="M317 133.83l-3.13 2.17a6.77 6.77 0 00-3.89-5.32c2.29.36 5.19-3.91 6.9.9.03.73.12 1.49.12 2.25z" fill="#6ca458"/><path d="M323.67 288c5.27 1.95 11.08-.1 16.3 2.21l-7.48.29c-2.94-.74-6.13.69-9-1a1 1 0 01.18-1.5z" fill="#bfdaeb"/><path d="M323.67 288l-.15 1.5-5.2-.4-1.23-1.08c.4-2.5 1.91-1.52 3.27-1 1.2-.02 2.46-.13 3.31.98z" fill="#b6d6e9"/><path d="M320.36 287c-1.17.1-2.48-.22-3.27 1l-7.79-2.13-2.1-1.33 2.21-2c2 1.11 4 2.52 6.53 2.2z" fill="#a1cae2"/><path d="M223.25 160.27c.37 1.06.73 2.13 1.1 3.2l-6.64 3.34c-.81-.66-1.88-1-2.24-2.16l2.26-2.18z" fill="#dbd178"/><path d="M215.47 164.65c1.38.06 2.21.7 2.24 2.16l-5.52 3.34-1.13-2.34c.94-1.81 2.81-2.29 4.41-3.16z" fill="#e2d985"/><path d="M241 110.63c-.2 2.05-1.09 3.41-3.39 3.32.84-1.39 1.72-2.75 3.39-3.32z" fill="#b7d5ac"/><path d="M283.93 150.33c-4.5.18-1.19-3.15-2.07-4.59 1.87-3.4 5.17-4.92 8.38-6.64.63-.34-.87-.36-.84-1 2.39-1.89 5.19-.63 7.77-1 2.28.48 4.4 1 1.08 3.31-2.18 1.5-4.4 2.93-6.6 4.4-1.5 3.35-4.28 4.89-7.72 5.52z" fill="#e8793d"/><path d="M283.93 150.33l7.72-5.5c1.77 3.63-2.18 7.24 0 10.87H284c-.06-1.78-.06-3.58-.07-5.37z" fill="#e3641e"/><path d="M289.4 138.12c.09.84 4.16-.84 1.23 1.69-2.65 2.29-5.82 4-8.77 5.93.18-1.82-.67-3.81.92-5.38a31.9 31.9 0 014.37-2z" fill="#f0a683"/><path d="M287.15 138.36c-1.41.77-2.13 3.06-4.37 2 .8-2.09 2.46-2.36 4.37-2z" fill="#f4b9a0"/></svg>