<svg id="Camada_1" data-name="Camada 1" xmlns="http://www.w3.org/2000/svg" viewBox="0 0 590 345"><defs><style>.cls-1{fill:#4d4d4d}.cls-2{fill:#d8a529}.cls-4{fill:#212a31}.cls-5{fill:#f90}.cls-6{fill:#e2413e}</style></defs><path class="cls-1" d="M25.2 230c-.75 12.19-1.57 24.37-2.2 36.55-.13 2.65-1.08 3.37-3.65 3.48-11.07.48-11 .57-9.89-10.36 1.86-18.89 3.64-37.78 5.23-56.7.25-3 1.07-4 4.17-4 14.51-.27 14.51-.37 18.16 13.52 1.37 5.23 2.78 10.46 4.1 15.71 1.28 5.09 2.46 10.2 3.77 15.6 2-2.88 1.9-6.13 2.72-9.1 3-10.77 6-21.52 8.82-32.33.62-2.39 1.53-3.26 4-3.38 15.42-.77 15.29-.82 16.51 14.52q2.08 26.35 4.66 52.66c.28 2.93-.24 3.8-3.26 3.88-10.36.29-10.45.41-11.24-10-.9-12-1.61-24-3-36.17q-2.73 9.38-5.44 18.73c-2.26 7.8-4.66 15.56-6.7 23.42-.77 3-1.94 4.11-5.15 4.07-8.29-.1-8.33.09-10.41-7.72q-4.73-18.17-9.5-36.38c-.48.08-.32-1.72-1-.48s-.01 3.07-.7 4.48z"/><path class="cls-2" d="M554.11 198.71c6.46 0 12.91.11 19.36 0 2.92-.08 3.68.77 3.45 3.8-.89 12.07-.76 12.08-12.64 12.08-4.41 0-8.83.12-13.24 0-2.59-.1-3.68.88-3.85 3.43-.25 3.89-.64 7.77-1.13 11.64-.32 2.61.37 3.71 3.24 3.42a30 30 0 019.63.44c25 5.77 26.75 31.07 15.22 45.38-10.28 12.77-33.39 19-48.83 13.31-2.91-1.08-4-5.67-2.48-10.51 1-3.38 3.21-1.24 4.92-1 7.86 1.17 15.57 1.24 22.81-2.69 5.7-3.1 9.41-7.67 10.44-14.2a14.11 14.11 0 00-13.07-16.65 44.27 44.27 0 00-18 2.56c-2.84.94-3.66.34-3.4-2.59 1.35-15 2.67-30.06 3.85-45.09.21-2.73 1.41-3.34 3.87-3.3 6.6.05 13.23-.03 19.85-.03z"/><path class="cls-1" d="M243.82 240.33c0-8.64-.08-17.28.05-25.92 0-2.77-.72-4.09-3.71-3.79-2.19.22-4.41 0-6.61 0-7.05 0-9.08-2.86-7.23-9.8.51-1.9 1.72-1.8 3.06-1.8h45.29c2.35 0 3.07.81 2.34 3a6.69 6.69 0 00-.14 1c-1.19 7.64-1.19 7.64-8.94 7.64-9.52 0-9.52 0-9.52 9.48 0 14.91-.11 29.82.08 44.73.05 3.76-.61 5.35-4.9 5.22-9.76-.27-9.77 0-9.77-9.94zm-72.65-22.61c-1.69 5.28-2 10.76-9.23 9.33-2.38-.47-2.76 1.16-2.74 3.11.07 8.48 0 17 .11 25.43 0 4.44 2.26 6.84 6.74 5.92s4.38 1.78 5.13 4.73c1 4-2.1 3.76-4 4.22a23.12 23.12 0 01-9.57.67c-8.27-1.46-11.91-5.34-12.06-13.68-.15-8.65 0-17.3 0-25.94 0-2.32.62-4.69-3.32-4.64-3.43 0-1.62-3.12-1.72-4.75-.09-1.45-1.53-4.36 1.66-4.28s3.41-1.42 3.43-4c.06-8.12 4-11.6 12.33-11.5 1.8 0 1.92.84 1.86 2.15-.13 2.71 0 5.44-.41 8.12-.5 3.76.39 5.77 4.71 5.13a54.3 54.3 0 017.08-.02zm314.36 5.76c4.58-4.25 8.46-7.53 14.17-6.89 2.34.27 3.48 1 2.51 3.56a37.74 37.74 0 00-1.5 4.85c-.63 2.74-1.44 4.22-5 3.88-5.83-.55-8.79 2.91-8.8 8.88 0 9.51-.09 19 .06 28.51 0 2.82-.73 3.74-3.67 3.8-10.22.19-10 .31-10.26-10.05-.29-12.69 1.23-25.45-1.26-38.06-.36-1.79.39-2.51 1.88-2.92 1.14-.31 2.33-.49 3.44-.9 4.44-1.7 8.31-2.27 8.43 5.34zM291.75 223c3.65-3.46 7.41-6.88 13.11-6.42 2.76.22 4.19 1 2.77 4.08a21.86 21.86 0 00-1.44 4.85c-.56 2.77-1.79 3.59-4.86 3.38-5.95-.43-9 2.88-9 8.75 0 9.47-.13 18.95.07 28.43.06 3.09-.8 4-4 4-9.67 0-9.48.18-9.72-9.42-.32-13 1.35-26.07-1.44-38.95-.35-1.66.32-2.16 1.56-2.51a59.11 59.11 0 018.33-2.19c4.64-.6 2.51 4.3 4.62 6zm115.47 39.51c.24-3-.17-6.1-.18-9.15v-46.81c0-10.24 0-10.08-10.27-11.69-3-.47-3.48.36-3.44 3 .12 6.93 0 13.86 0 21.09-11.63-5.37-23.51-.91-28.47 10.65a38.56 38.56 0 00-1.87 24c3.37 15.26 15.8 21.19 30.68 15 .81-.34 1.32-1.16 2.51-.07 3.42 3.12 7.89 1.92 11.38.91 2.11-.65-.56-4.44-.34-6.93zm-13.52-18.37c0 2.7-.2 5.42 0 8.1.36 3.79-1 6.35-4.74 7.15-4.09.88-8.32.5-9.88-3.93a32.27 32.27 0 01.45-23.25c1.53-3.79 4.88-5 8.84-3.94 3.62 1 5.88 3 5.35 7.25a72.84 72.84 0 00-.02 8.62zm-174.76 16.62c-.88-.67-1.21-2.46-1.26-3.74-.15-4.24-.06-8.48-.06-11.2-.32-6.43-.32-11.37-.88-16.24-.84-7.34-5.2-11.74-12.4-12.75-9.13-1.27-17.43 1.31-25.29 5.81-1.8 1-1.89 2-.82 3.55a22.37 22.37 0 012.35 3.92c1.33 3.12 2.89 3.34 5.7 1.4a19.07 19.07 0 0113-3.62c4.41.45 4.63 3.89 4.84 7.14.26 4.15-2.93 2.06-4.7 2.34-3 .47-6.12.45-9.07 1.15-5.8 1.36-10.9 3.87-13.26 9.92-2.77 7.1-1 15.45 4.14 19.63 5.83 4.72 16.73 5.4 23 1 2.48-1.76 3.79-2.26 6 .43 2.37 2.93 5.12 4.1 8-.24 1.77-2.93 5.27-5.01.71-8.5zm-15.16-7.94c-.51 2.32.65 4.74-1.16 6.53a7.84 7.84 0 01-7.92 2.21c-2.87-.79-3.9-3.19-4.22-5.77-.38-3 .5-5.75 3.43-7.3a12.3 12.3 0 017.92-1.18c3.73.69.9 3.9 1.95 5.51zm148.99 7.64c-3.55-4.3-1.1-10.52-1.72-15.86 0-4.07.05-8.14 0-12.21a21.19 21.19 0 00-.56-3.51c-1.46-7.41-5.59-11.3-13-12.14-8.78-1-16.75 1.44-24.31 5.74-2 1.1-2.36 2.06-1 3.88a18.94 18.94 0 012.31 3.93c1.22 2.89 2.65 3.26 5.33 1.39a19.25 19.25 0 0112.92-3.81c4.59.42 5.07 3.9 5.16 7.41.1 4.22-3.15 1.74-4.84 2.12-2.3.52-4.75.36-7.07.81-6.93 1.37-13.06 3.94-15.47 11.43-2.28 7.08-.4 14.51 4.64 18.58 5.46 4.41 16.06 5.27 22.1 1.25 2.88-1.92 4.66-2.86 7.21.45 2.12 2.75 4.71 3.22 7.19-.4 2.04-2.99 4.71-4.71 1.11-9.06zm-15.14-7.75c-.28 6.74-2.61 9.46-7.62 9.13-3.71-.24-5.92-3.2-5.67-7.58.28-4.93 3.83-7.17 10.35-7.1 5.22.06 2.08 3.84 2.94 5.55zm-228.8-4.53c3.88.27 7.8.06 11.7.06h2.54c14.78 0 14.75 0 11.2-14.77-2-8.15-6.1-14.27-14.73-16.37-14.38-3.51-26.53 5.46-28.71 21.72-1.47 11 .51 21.24 10.25 28 9.46 6.59 19.46 5.38 29.38.49 4-2 4.82-3.92 1.94-7.88-2.12-2.91-3.45-3.35-6.21-1.17a13.65 13.65 0 01-5.1 2.15c-8 2-13.85-1.25-15.29-8.3-.52-2.51-.38-4.17 3.03-3.93zm.81-20.3a7.33 7.33 0 019 .36c2.71 2.08 2.74 5.26 3 8.28.12 1.46-1 1.56-2 1.58h-6.08a3.41 3.41 0 01-1 0c-2.21-.6-5.79 1.58-6.51-1.42a8.19 8.19 0 013.59-8.8zm326.13 20.33c4.07.11 8.14 0 12.21 0h3.57c13.36 0 13.36 0 10.95-13.14-2-11.09-9.14-17.93-19.19-18.47-11.31-.6-20.31 5.52-23.64 16.08-1.44 4.61-1.48 9.36-1.22 14.1.55 9.77 4.1 17.88 13.57 22.08 10 4.43 19.52 2.72 28.46-3.16.88-.58 2.48-1.09 1.57-2.65-1.29-2.18-2.43-4.69-4.32-6.19-1.66-1.32-3 1.45-4.77 1.93-1.13.32-2.14 1-3.26 1.4-8.67 2.73-15.31-1-16.48-9-.34-2.32.28-3.05 2.55-2.98zm2-20.66c3.27-1.66 6.55-1.43 9.21 1.47a9.5 9.5 0 012.14 5.56c.28 2.31.05 4-3 3.58a38.64 38.64 0 00-5.05 0 3.41 3.41 0 01-1 0c-2.18-.67-5.81 1.67-6.43-1.51a8.11 8.11 0 014.1-9.1z"/><path class="cls-2" d="M82.55 183.85H54v-37.28H37.79v37.28H9.24V73.12H63c12.61 0 19.54 5 19.54 18.16v28.41C82.55 128 78.67 132 72.3 134v.28c6.23.83 10.25 4.71 10.25 13zM54 121.35V98.48H37.79v22.87zm115 45.04c0 12.33-6.38 17.46-19 17.46h-37.24c-11.92 0-19-4.85-19-17.46V90.72c0-11.78 6.37-17.6 19-17.6H150c12.06 0 19 5 19 17.6zm-28.55-7.9V98.62h-18.13v59.87zm113.11 7.34c0 11.23-7.34 18-19.68 18h-53.63V73.12H234c12.61 0 19.54 5 19.54 18.16v22.45c0 8.31-3.74 12.19-9.56 14.27v.28c5.68 1 9.56 4.71 9.56 13zM225 115.39V98.48h-16.2v16.91zm0 43.1v-17.88h-16.2v17.88zm115 7.9c0 12.33-6.38 17.46-19 17.46h-37.23c-11.92 0-19-4.85-19-17.46V90.72c0-11.78 6.37-17.6 19-17.6h37.28c12.06 0 19 5 19 17.6zm-16.59-99.78h-12.89l-8.46-7.48-8.45 7.48h-12.75l16.63-15.52h9.15zm-11.92 91.88V98.62h-18.16v59.87zm105.88 7.9c0 12.75-6.93 17.46-19.41 17.46h-46.7v-25.36h37.56v-17.74h-18.3c-15.66 0-19.26-7.62-19.26-17.32V91.28c0-13.17 6.79-18.16 19.4-18.16h43.93v25.36h-34.78v16.91h18c13.3 0 19.54 5.54 19.54 18.85z"/><path d="M87.57 179.83H59v-37.28H42.81v37.28H14.26V69.11H68c12.61 0 19.54 5 19.54 18.15v28.41c0 8.31-3.88 12.33-10.25 14.27v.28c6.23.83 10.25 4.71 10.25 13zM59 117.33V94.47H42.81v22.86zm115.05 45.04c0 12.34-6.38 17.46-19 17.46h-37.27c-11.91 0-19-4.85-19-17.46V86.71c0-11.78 6.37-17.6 19-17.6h37.28c12.06 0 19 5 19 17.6zm-28.55-7.9V94.6h-18.15v59.87zm113.08 7.35c0 11.22-7.34 18-19.68 18h-53.63V69.11H239c12.61 0 19.54 5 19.54 18.15v22.45c0 8.31-3.74 12.2-9.56 14.27v.28c5.68 1 9.56 4.71 9.56 13zM230 111.37v-16.9h-16.18v16.9zm0 43.1V136.6h-16.18v17.87zm115.06 7.9c0 12.34-6.38 17.46-19 17.46h-37.27c-11.92 0-19-4.85-19-17.46V86.71c0-11.78 6.37-17.6 19-17.6h37.28c12.06 0 19 5 19 17.6zm-16.63-99.78h-12.89l-8.45-7.48-8.46 7.48h-12.75l16.63-15.52h9.15zm-11.92 91.88V94.6h-18.15v59.87zm105.88 7.9c0 12.75-6.93 17.46-19.4 17.46h-46.71v-25.36h37.56v-17.74h-18.29c-15.66 0-19.27-7.62-19.27-17.32V87.26c0-13.17 6.79-18.15 19.4-18.15h43.94v25.36h-34.79v16.9h18c13.3 0 19.54 5.55 19.54 18.85z" fill="#2d59d3"/><path class="cls-4" d="M575.46 112.5a.85.85 0 01-.85-.85v-9.22a.86.86 0 111.71 0v9.22a.86.86 0 01-.86.85zm0 56.95a.85.85 0 01-.85-.85v-9.22a.85.85 0 01.85-.85.86.86 0 01.86.85v9.22a.86.86 0 01-.86.85z"/><path class="cls-4" d="M579.91 160.23H571a.85.85 0 01-.85-.85v-47.73a.85.85 0 01.85-.85h8.89a.85.85 0 01.85.85v47.73a.85.85 0 01-.83.85zm-8-1.7h7.18v-46h-7.18zM438.65 113.9a.85.85 0 01-.85-.85v-9.22a.86.86 0 111.71 0v9.22a.86.86 0 01-.86.85zm0 55.48a.86.86 0 01-.85-.86v-9.22a.85.85 0 01.85-.85.86.86 0 01.86.85v9.22a.87.87 0 01-.86.86z"/><path class="cls-5" d="M434.21 113.1h8.89v46.2h-8.89z"/><path class="cls-4" d="M458.2 107a.85.85 0 01-.86-.85v-9.26a.86.86 0 011.71 0v9.23a.85.85 0 01-.85.88zm0 32.28a.85.85 0 01-.86-.86v-9.22a.86.86 0 011.71 0v9.22a.85.85 0 01-.85.86z"/><path class="cls-4" d="M462.64 130.06h-8.89a.85.85 0 01-.85-.86v-23.08a.85.85 0 01.85-.86h8.89a.85.85 0 01.85.86v23.08a.85.85 0 01-.85.86zm-8-1.71h7.18V107h-7.18zm3.56 11.78a.85.85 0 01-.86-.85v-.86a.86.86 0 011.71 0v.86a.85.85 0 01-.85.85zm0 25.05a.85.85 0 01-.86-.85v-1.67a.86.86 0 111.71 0v1.67a.85.85 0 01-.85.85zm0-5a.85.85 0 01-.86-.85v-1.67a.86.86 0 111.71 0v1.67a.85.85 0 01-.85.84zm0-5a.85.85 0 01-.86-.85v-1.67a.86.86 0 111.71 0v1.67a.85.85 0 01-.85.83zm0-5a.85.85 0 01-.86-.85v-1.67a.86.86 0 111.71 0v1.67a.85.85 0 01-.85.82zm0-5a.85.85 0 01-.86-.85v-1.67a.86.86 0 111.71 0v1.67a.85.85 0 01-.85.81zm0 24.2a.86.86 0 01-.86-.86v-.85a.86.86 0 111.71 0v.85a.86.86 0 01-.85.86zm19.54-92.3a.85.85 0 01-.85-.85V67a.85.85 0 111.7 0v9.23a.85.85 0 01-.85.85zm0 59.08a.85.85 0 01-.85-.86v-9.22a.85.85 0 111.7 0v9.22a.85.85 0 01-.85.86z"/><path class="cls-5" d="M473.3 76.23h8.89v49.86h-8.89z"/><path class="cls-4" d="M477.74 137a.85.85 0 01-.85-.85v-.86a.85.85 0 011.7 0v.86a.85.85 0 01-.85.85zm0 28.37a.85.85 0 01-.85-.85v-1.58a.85.85 0 111.7 0v1.58a.85.85 0 01-.85.85zm0-4.73a.85.85 0 01-.85-.85v-1.57a.85.85 0 111.7 0v1.57a.85.85 0 01-.85.85zm0-4.72a.85.85 0 01-.85-.86v-1.57a.85.85 0 011.7 0v1.57a.85.85 0 01-.85.86zm0-4.73a.85.85 0 01-.85-.85v-1.58a.85.85 0 111.7 0v1.58a.85.85 0 01-.85.85zm0-4.72a.86.86 0 01-.85-.86V144a.85.85 0 111.7 0v1.57a.86.86 0 01-.85.9zm0-4.73a.85.85 0 01-.85-.86v-1.57a.85.85 0 111.7 0v1.57a.85.85 0 01-.85.86zm0 27.64a.86.86 0 01-.85-.86v-.85a.85.85 0 111.7 0v.85a.86.86 0 01-.85.86zm19.55-96.91a.85.85 0 01-.86-.86v-9.29a.86.86 0 011.71 0v9.29a.85.85 0 01-.85.86zm0 28.23a.85.85 0 01-.86-.85v-9.22a.86.86 0 111.71 0v9.22a.85.85 0 01-.85.85z"/><path class="cls-4" d="M501.73 91.48h-8.89a.85.85 0 01-.85-.85v-19a.85.85 0 01.85-.85h8.89a.85.85 0 01.85.85v19a.85.85 0 01-.85.85zm-8-1.71h7.18v-17.3h-7.21zm3.56 11.79a.86.86 0 01-.86-.86v-.85a.86.86 0 111.71 0v.85a.86.86 0 01-.85.86zm0 63.44a.85.85 0 01-.86-.86v-1.76a.86.86 0 011.71 0v1.76a.85.85 0 01-.85.86zm0-5.29a.85.85 0 01-.86-.85v-1.77a.86.86 0 011.71 0v1.77a.85.85 0 01-.85.85zm0-5.29a.85.85 0 01-.86-.85v-1.76a.86.86 0 111.71 0v1.76a.85.85 0 01-.85.85zm0-5.28a.85.85 0 01-.86-.86v-1.76a.86.86 0 011.71 0v1.76a.85.85 0 01-.85.86zm0-5.29a.85.85 0 01-.86-.85v-1.77a.86.86 0 011.71 0V143a.85.85 0 01-.85.85zm0-5.29a.85.85 0 01-.86-.85V136a.86.86 0 111.71 0v1.76a.85.85 0 01-.85.8zm0-5.28a.86.86 0 01-.86-.86v-1.76a.86.86 0 011.71 0v1.76a.86.86 0 01-.85.86zm0-5.29a.85.85 0 01-.86-.85v-1.77a.86.86 0 011.71 0v1.77a.85.85 0 01-.85.86zm0-5.29a.85.85 0 01-.86-.85v-1.76a.86.86 0 111.71 0v1.76a.85.85 0 01-.85.85zm0-5.28a.86.86 0 01-.86-.86v-1.76a.86.86 0 011.71 0v1.76a.86.86 0 01-.85.86zm0-5.29a.85.85 0 01-.86-.85v-1.77a.86.86 0 011.71 0v1.77a.85.85 0 01-.85.85zm0-5.29a.85.85 0 01-.86-.85v-1.76a.86.86 0 111.71 0V106a.85.85 0 01-.85.84zm0 62.54a.86.86 0 01-.86-.86v-.85a.86.86 0 111.71 0v.85a.86.86 0 01-.85.86zm19.54-90.98a.85.85 0 01-.85-.85v-9.22a.85.85 0 111.7 0v9.22a.85.85 0 01-.85.85zm0 53.15a.85.85 0 01-.85-.86v-9.22a.85.85 0 011.7 0v9.22a.85.85 0 01-.85.86z"/><path class="cls-6" d="M512.39 77.55h8.89v43.92h-8.89z"/><path class="cls-4" d="M516.83 132.4a.85.85 0 01-.85-.85v-.86a.85.85 0 011.7 0v.86a.85.85 0 01-.85.85zm0 32.51a.85.85 0 01-.85-.85v-1.81a.85.85 0 011.7 0v1.81a.85.85 0 01-.85.85zm0-5.42a.85.85 0 01-.85-.85v-1.81a.85.85 0 111.7 0v1.81a.85.85 0 01-.85.85zm0-5.42a.85.85 0 01-.85-.85v-1.81a.85.85 0 011.7 0v1.81a.85.85 0 01-.85.85zm0-5.41a.86.86 0 01-.85-.86V146a.85.85 0 111.7 0v1.8a.86.86 0 01-.85.86zm0-5.42a.85.85 0 01-.85-.86v-1.8a.85.85 0 111.7 0v1.8a.85.85 0 01-.85.86zm0-5.42a.85.85 0 01-.83-.82v-1.81a.85.85 0 011.7 0V137a.85.85 0 01-.87.82zm0 31.56a.86.86 0 01-.85-.86v-.85a.85.85 0 111.7 0v.85a.86.86 0 01-.85.86zm19.54-70.14a.85.85 0 01-.85-.85v-9.23a.86.86 0 011.71 0v9.23a.85.85 0 01-.86.85zm0 44.48a.85.85 0 01-.85-.85v-9.22a.86.86 0 011.71 0v9.22a.85.85 0 01-.86.85z"/><path class="cls-4" d="M540.82 134.5h-8.89a.85.85 0 01-.85-.85V98.39a.85.85 0 01.85-.86h8.89a.85.85 0 01.85.86v35.26a.85.85 0 01-.85.85zm-8-1.7H540V99.24h-7.18zm3.55 11.78a.85.85 0 01-.85-.86v-.85a.86.86 0 011.71 0v.85a.85.85 0 01-.86.86zm0 20.52a.85.85 0 01-.85-.85v-1.71a.86.86 0 111.71 0v1.71a.85.85 0 01-.86.85zm0-5.13a.85.85 0 01-.85-.85v-1.71a.86.86 0 111.71 0v1.71a.85.85 0 01-.86.88zm0-5.13a.85.85 0 01-.85-.85v-1.71a.86.86 0 111.71 0V154a.85.85 0 01-.86.84zm0-5.13a.85.85 0 01-.85-.85v-1.72a.86.86 0 011.71 0v1.72a.85.85 0 01-.86.85zm0 19.67a.86.86 0 01-.85-.86v-.85a.86.86 0 111.71 0v.85a.86.86 0 01-.86.86zm19.55-60.29a.86.86 0 01-.86-.85V99a.86.86 0 111.71 0v9.22a.85.85 0 01-.85.87zm0 43.12a.87.87 0 01-.86-.86v-9.22a.86.86 0 01.86-.85.85.85 0 01.85.85v9.22a.86.86 0 01-.85.86z"/><path class="cls-6" d="M551.47 108.24h8.89v33.89h-8.89z"/><path class="cls-4" d="M555.92 153.06a.86.86 0 01-.86-.85v-.86a.86.86 0 01.86-.85.85.85 0 01.85.85v.86a.85.85 0 01-.85.85zm0 11.6a.87.87 0 01-.86-.86v-1.93a.86.86 0 01.86-.85.85.85 0 01.85.85v1.93a.86.86 0 01-.85.86zm0-5.8a.86.86 0 01-.86-.86v-1.93a.86.86 0 01.86-.85.85.85 0 01.85.85V158a.85.85 0 01-.85.86zm0 10.52a.87.87 0 01-.86-.86v-.85a.86.86 0 111.71 0v.85a.86.86 0 01-.85.86z"/></svg>