<svg id="Camada_1" data-name="Camada 1" xmlns="http://www.w3.org/2000/svg" viewBox="0 0 590 345"><defs><style>.cls-1{fill:#ebd4af;stroke:#000;}.cls-1,.cls-2{stroke-miterlimit:10;}.cls-2{stroke:#1e120d;}.cls-3{fill:#fdd302;}.cls-4{fill:#e6e6e6;}</style></defs><title>Logos_Docs</title><path class="cls-1" d="M402.12,111.89c-2.71,1.58-4.87,4.66-6.91,8l.66.67c12.35,14.88,23.54,30.17,24.85,47.31.06.07-.54.62-1.48,1.42-6.59-3.31-17.89-5.67-20.15-6.12l.1-.08a18,18,0,0,0-14.48,4.72l-3.73-2.6-.79-2.92.39-2,6.25-8.51H391v-2.45c-1.94-1.09-4-.55-6.11,0-7.57,9.13-11.5,16.69-15.42,24.25a86.15,86.15,0,0,0-19.74,4.85,13.87,13.87,0,0,0-7.17,5.25c-3.71,5.55-7.22,13.08-10.64,21.46l-6.18-17.43c2.27-13.52,7.49-23.11,14.36-30.48-2.53-4.33-12.49-17.12-27.47-35.62a111.38,111.38,0,0,1,14.35-29.95h0c9.7.65,17.15,1,23.57,1.86a147,147,0,0,0-16.92-10.81l-6.4-4.55,7.18,5,10.47-13.88C376.79,74.52,395.82,88.79,402.12,111.89Z"/><path class="cls-2" d="M413.89,209.36a60.93,60.93,0,0,0,11.16-17.94,30.31,30.31,0,0,1-4.65-13.29h15.82c-1.51-17.43-11-36.75-26.58-57.55a22,22,0,0,0,9-9.58,88.72,88.72,0,0,0-17.76-26h0L416,67.06q-25.34-34.8-73.79-59V8L341,7.42,340.12,7C277.3,18.41,210.46,45.58,196.4,67.59a90.3,90.3,0,0,1-7.8,23.88A129.14,129.14,0,0,0,168.4,104c-1.45,12.7-.7,37.09,0,61.27-7.12,18.36-12.31,39.39-16.48,61.85,59.35-3.84,107,19.55,142,54.58h.8v1.6l-27.78-1.6C298,293.22,327.11,313.3,355.14,338c27.84-16.84,52.33-34.31,64.46-54.1a155.67,155.67,0,0,0,18.48-43.46A334.16,334.16,0,0,0,413.89,209.36Zm-11.7-97.47c-2.71,1.58-4.86,4.66-6.91,8l.67.67c12.34,14.88,23.54,30.17,24.85,47.31.05.07-.54.62-1.48,1.42-6.59-3.31-17.9-5.67-20.15-6.12l.1-.08a18.06,18.06,0,0,0-14.49,4.72l-3.72-2.6-.8-2.92.4-2,6.25-8.51H391v-2.45c-1.95-1.09-4-.55-6.12,0-7.56,9.13-11.5,16.69-15.41,24.25a86,86,0,0,0-19.74,4.85,13.89,13.89,0,0,0-7.18,5.25c-3.71,5.55-7.21,13.08-10.63,21.46l-6.18-17.43c2.27-13.52,7.48-23.11,14.35-30.48-2.52-4.33-12.48-17.12-27.47-35.62A111.71,111.71,0,0,1,327,91.69h0c9.7.65,17.14,1,23.57,1.86a147,147,0,0,0-16.92-10.81l-6.41-4.55,7.19,5,10.47-13.88C376.87,74.52,395.89,88.79,402.19,111.89Zm-2.84,86.21c.82-1.25,1.6-2.51,2.3-3.8l-12,8.86a218.29,218.29,0,0,0-34.25,4.61,83.83,83.83,0,0,0-17.19,27.11A66.29,66.29,0,0,0,340,269.61l-16.48-31.89,14.85-32.55c4.33-7.78,8.7-14.94,13.17-20.33a44.45,44.45,0,0,1,18-6.71L384,175.6h27.35a23,23,0,0,1-3.69,2.53A59,59,0,0,0,412.29,192a77.67,77.67,0,0,0-11.12,14.26l.08-.14Zm-90.09-35.58h0c-5.86-9-11.87-16.15-18-21.4a69.09,69.09,0,0,0,8.33-29.24,48.12,48.12,0,0,0-12.8,13.61l.12-.32,14.2-33.77c0-.09,19.57.28,19.57.28h0c-7.86,10.68-12.94,20.26-15.6,28.89v4.25c5.32,9.13,14.89,20.56,26.92,33.32-5.54,7.11-9.14,16.34-11.5,26.93,1.64,16.44,4.82,21.82,8,27l-5.18,10.34-5,.18c-2.2-11.36-5.19-20-8.69-26.93-5,3.5-9.06,10.18-12.82,17.74a179.09,179.09,0,0,1,12.82-50.35ZM212,67.59c40.57-24.34,83-40.19,128.12-43.42,24,12.06,43.68,25.69,57.07,41.65L387.62,78C375.13,70.74,360.08,65.8,344,61.83L327.23,78.18l-17.59-13,20.52-6L302.73,46,216.12,77.91l-1.73,10.9L200.3,94A67.64,67.64,0,0,1,212,67.59ZM242.17,90.8l-14.76-9.7A175.3,175.3,0,0,1,275,75.78c20.84,2.67,37.52,5.81,52.41,9.16,4.17,1,9.84,3.36,15.81,6l-40.49-3.45a259.94,259.94,0,0,0-35.17-.62h0a19.49,19.49,0,0,0-5.76.88l4.61,2.22,13.08,12.91,1.1,1.09c-41.37,2-74.42,19.15-101.55,47l-.88.83c.35-13.89.3-27.57-.37-40.74l0,0h0l0,0A206.25,206.25,0,0,1,242.17,90.8ZM177.88,160l-.17,5.18c.07-1.73.1-3.45.17-5.19ZM407.64,278.87c-6.9,15.29-26.9,31.3-53.69,47.45-18.51-21.68-36.29-41.63-51.22-54.76a322,322,0,0,0-71.42-49.09l-33-8.32L171.77,214l3.12-25.65c3.75-14.21,7.85-30.62,10-34.6l3.72-2.84c2.71-3.42,5.7-5.58,9-6.2h.27a445,445,0,0,0,.44,69.47L240.53,220c6.53-19.14,15.2-36.21,26.62-50.59h2.41l-1.47,3.45h0c-7.11,15.82-12.21,33.88-15.54,53.88,24.11,10.92,43.29,22.3,57.06,34.2a475.46,475.46,0,0,0,46.61,46.25c16.79-6.74,29.23-16.82,35.62-31.54l-17.54,4.61a222.12,222.12,0,0,0-23.61-40.76,64.15,64.15,0,0,0,10.14-23.57c7.95-.15,15.85-.91,23.52-4.43a38.66,38.66,0,0,0,11.2-8.49l-.1.13,3.26,7.29,24.85,32.7C422.32,255.48,416.44,267.36,407.64,278.87Z"/><path class="cls-2" d="M355.87,104.69c-7.93,1.67-13.59,6.22-17.74,12.7,6.13-1.53,11.78-3.3,15.88-5.85,5.07,4.46,12.77,7.9,20.94,11.16a57.68,57.68,0,0,0,14.28-8.17c-4.81.79-9.19,1.92-12.42,3.92C372.2,111.81,365.16,107.28,355.87,104.69Z"/><path class="cls-2" d="M348.3,125.89a139,139,0,0,0,22.33,6.32l2.32,3.25a32,32,0,0,0-2.32-12.29C363.55,121.6,356.05,122.88,348.3,125.89Z"/><path class="cls-3" d="M242.17,90.8l-14.76-9.7A175.3,175.3,0,0,1,275,75.78c20.84,2.67,37.52,5.81,52.41,9.16,4.17,1,9.84,3.36,15.81,6l-40.49-3.45a259.94,259.94,0,0,0-35.17-.62h0a19.49,19.49,0,0,0-5.76.88l4.61,2.22,13.08,12.91,1.1,1.09c-41.37,2-74.42,19.15-101.55,47l-.88.83c.35-13.89.3-27.57-.37-40.74l0,0h0l0,0A206.25,206.25,0,0,1,242.17,90.8Z"/><path class="cls-4" d="M407.64,279.12c-6.9,15.3-26.9,31.3-53.69,47.45-18.51-21.68-36.29-41.63-51.22-54.76a321.67,321.67,0,0,0-71.42-49.08l-33-8.33-26.58-.18,3.12-25.65c3.75-14.2,7.85-30.62,10-34.6l3.72-2.84c2.71-3.42,5.7-5.58,9-6.2h.27a445,445,0,0,0,.44,69.47l42.18,5.84c6.53-19.14,15.2-36.21,26.63-50.59h2.4l-1.47,3.45h0C261,188.92,255.91,207,252.58,227c24.11,10.92,43.29,22.3,57.06,34.2a476.71,476.71,0,0,0,46.61,46.26c16.79-6.75,29.23-16.83,35.62-31.55l-17.54,4.61a222.12,222.12,0,0,0-23.61-40.76,64.15,64.15,0,0,0,10.14-23.57c7.95-.14,15.85-.91,23.52-4.43a38.66,38.66,0,0,0,11.2-8.49l-.1.14,3.26,7.29,24.85,32.69C422.32,255.73,416.44,267.61,407.64,279.12Z"/><path class="cls-4" d="M399.35,198.1c.82-1.25,1.6-2.51,2.3-3.8l-12,8.86a218.29,218.29,0,0,0-34.25,4.61,83.83,83.83,0,0,0-17.19,27.11A66.29,66.29,0,0,0,340,269.61l-16.48-31.89,14.85-32.55c4.33-7.78,8.7-14.94,13.17-20.33a44.45,44.45,0,0,1,18-6.71L384,175.6h27.35a23,23,0,0,1-3.69,2.53A59,59,0,0,0,412.29,192a77.67,77.67,0,0,0-11.12,14.26l.08-.14Z"/><path class="cls-4" d="M212,67.59c40.57-24.34,83-40.19,128.12-43.42,24,12.06,43.68,25.69,57.07,41.65L387.62,78C375.13,70.74,360.08,65.8,344,61.83L327.23,78.18l-17.59-13,20.52-6L302.73,46,216.12,77.91l-1.73,10.9L200.3,94A67.64,67.64,0,0,1,212,67.59Z"/><path class="cls-4" d="M309.26,162.52h0c-5.86-9-11.87-16.15-18-21.4a69.09,69.09,0,0,0,8.33-29.24,48.12,48.12,0,0,0-12.8,13.61l.12-.32,14.2-33.77c0-.09,19.57.28,19.57.28h0c-7.86,10.68-12.94,20.26-15.6,28.89v4.25c5.32,9.13,14.89,20.56,26.92,33.32-5.54,7.11-9.14,16.34-11.5,26.93,1.64,16.44,4.82,21.82,8,27l-5.18,10.34-5,.18c-2.2-11.36-5.19-20-8.69-26.93-5,3.5-9.06,10.18-12.82,17.74a179.09,179.09,0,0,1,12.82-50.35Z"/></svg>