<svg id="Camada_1" data-name="Camada 1" xmlns="http://www.w3.org/2000/svg" viewBox="0 0 1074 250"><defs><style>.cls-1,.cls-2,.cls-3{fill:#fff;}.cls-1{fill-rule:evenodd;}.cls-3{opacity:0.62;}.cls-4{fill:#1b245b;}</style></defs><title>Logos_Docs</title><path class="cls-1" d="M123.5,50.56c14.21-3.9,18.18,11.56,24.22,22,5.91,10.17,11.23,20.62,16.89,30.93,16.8,30.55,35.19,61,52.35,91.21,4.9,8.67,17.13,22.94,8.08,32.16-5.32,5.35-35.9,3.34-44.54,3.43-19.26.19-133.67,2.25-142.61.59-18.2-3.45-6.21-20.21-1.48-29.2,5.3-10.23,11.91-20.39,17.06-30.58,10.62-20.75,22.7-41,33.65-61.62,5.44-10.3,11.2-20.54,17-30.65C108.5,71.07,114.88,53,123.5,50.56ZM137-2.1c-5.95,2.87-21.77,32.87-25.41,40.22-6.73,13.8-16.76,28.24-24,42.11C82.25,90.53,5.47,225.88,4.56,229.12,2,238.5,7.13,248.7,17.41,249.41c19.29,1.36,46-.44,66.18-.6l133.19-1.11c11.14-.13,56.75,1.76,63.39-3.37,13.91-10.78-5.33-33.89-11-45.22-6.92-13.71-17.65-28.37-24.94-42.13-15-28.11-32.94-56.81-49-84.57-7.79-13.61-17.77-27.77-24.81-41.55C167,24.14,161.53,17,157.76,10.32,153.63,3.14,146.39-6.64,137-2.1Z"/><path class="cls-2" d="M290.25,5q15.4-.13,25.75,2.18a57.91,57.91,0,0,1,18.42,7.4,45.32,45.32,0,0,1,13.06,12.2A51.17,51.17,0,0,1,355,43.32a87.27,87.27,0,0,1,2.58,21.33,91.39,91.39,0,0,1-3.15,25.85,54.15,54.15,0,0,1-9.93,19.64,49.08,49.08,0,0,1-14.61,12.12,65,65,0,0,1-20,6.8,149.94,149.94,0,0,1-24.61,1.87l-41.87.36-.05-6.09a25.9,25.9,0,0,0,5.37-2,6.83,6.83,0,0,0,2.93-3,13.27,13.27,0,0,0,1.21-4.81c.16-1.94.23-4.38.21-7.34l-.67-79.49q0-4.33-.29-7.29a12.52,12.52,0,0,0-1.24-4.78,7.47,7.47,0,0,0-3-3,22.31,22.31,0,0,0-5.5-2l-.06-6.09Zm-8.53,114.8a70.26,70.26,0,0,0,8.39.21q10.15-.09,17-3.1a25.4,25.4,0,0,0,8.71-6.16,40.59,40.59,0,0,0,8.9-16.58q3.23-11.1,3.09-27-.15-17.52-5-29.06t-13.38-17Q301,15.7,289.05,15.8c-3.81,0-6.55.12-8.21.25Z"/><path class="cls-2" d="M458.83,112.68q-9.31,10-18.51,14.27a51.19,51.19,0,0,1-21.17,4.33q-21.5.18-32.43-11.49T375.59,85Q375.47,70,381,59.15a38,38,0,0,1,15.68-16.54q10.2-5.67,23.75-5.79a50.49,50.49,0,0,1,14.73,1.82A34.06,34.06,0,0,1,446,43.94a30,30,0,0,1,7.54,8.28,46.41,46.41,0,0,1,5.37,13.24A83.24,83.24,0,0,1,461,84l-58.47.49q.23,16.69,6.16,24.53t17.91,7.73A29.42,29.42,0,0,0,439.2,114q5.6-2.69,12.09-9.37ZM433.61,74.25q-.5-14.1-3.87-21T419,46.43q-7.11.06-11.24,7.29T402.9,74.51Z"/><path class="cls-2" d="M510,102.38a86.81,86.81,0,0,0,.65,12.08,10.63,10.63,0,0,0,2.31,5.28c1.14,1.31,3.29,2.36,6.43,3.13l.05,6.08-45.19.39,0-6.09a16.89,16.89,0,0,0,4.32-1.56,7.69,7.69,0,0,0,2.43-2,10.9,10.9,0,0,0,1.5-3,18.68,18.68,0,0,0,.79-5c.1-2.12.14-5.15.1-9.08l-.6-71.94c0-5.29-.13-9.17-.24-11.67a51.17,51.17,0,0,0-.61-6.26,10.89,10.89,0,0,0-1.41-4.05,7.14,7.14,0,0,0-2.75-2.42,21.76,21.76,0,0,0-5.63-1.61l-.06-6.09,25.54-1.5L509.14-3Z"/><path class="cls-2" d="M596.94,117.23q-8.06,7-14.67,9.86a35.61,35.61,0,0,1-14,2.93q-13.74.12-20.58-7.25t-7-22.4l-.44-51.55-11.52.09-.06-6.36c3.75-.65,6.51-1.59,8.28-2.84a12.32,12.32,0,0,0,4.11-5,31.72,31.72,0,0,0,2.28-8.08,114.59,114.59,0,0,0,1.24-12.47l22-.18.19,23.05,26.28-.22.1,11.53-26.28.22.35,41.59a88,88,0,0,0,1.1,15.4c.67,3.31,1.78,5.75,3.33,7.3a7.67,7.67,0,0,0,5.74,2.3,20,20,0,0,0,4.61-.5,17.19,17.19,0,0,0,4.27-1.69,24.41,24.41,0,0,0,4.72-3.45Z"/><path class="cls-2" d="M657.34,115.71l-1.39-.45a54.41,54.41,0,0,1-14.62,10.82,35.7,35.7,0,0,1-15.14,3.45,30.65,30.65,0,0,1-13.81-2.79,20.38,20.38,0,0,1-8.93-8,23.4,23.4,0,0,1-3.1-11.88q-.11-13.55,13.15-21.46t40.36-10.16l-.07-8.76q-.07-8.58-2-13.22a12.05,12.05,0,0,0-12.34-8.33,16.82,16.82,0,0,0-7.32,1.53,13.85,13.85,0,0,0-5.53,5.63A32.14,32.14,0,0,0,623,63.52l-17.43.15-.15-16.79Q613.84,43,619.44,41a111.75,111.75,0,0,1,11.09-3.46,92.71,92.71,0,0,1,9.8-2,70.22,70.22,0,0,1,8.67-.63q11.16-.09,17.87,2.8A19.88,19.88,0,0,1,677,47.2q3.38,6.61,3.47,18.33l.3,36q.06,6.09.36,9.41a20.1,20.1,0,0,0,.92,4.92,7.41,7.41,0,0,0,1.54,2.57,7,7,0,0,0,2.28,1.55,33.43,33.43,0,0,0,5,1.48l.06,6.09-34.31.29ZM654,84.29q-14.29.48-21.12,5.52t-6.75,14.63c0,3.82,1.1,6.71,3.21,8.69s5,3,8.69,2.93a15.45,15.45,0,0,0,8-2.33,16.83,16.83,0,0,0,5.94-6.09,15.63,15.63,0,0,0,2.15-8Z"/><path class="cls-2" d="M306.1,226.12l0-4.14a16.55,16.55,0,0,0,4.16-1.19,5,5,0,0,0,2.27-2.06,8.25,8.25,0,0,0,.91-3.36c.11-1.36.16-3,.15-5.05L313,147.85l-5.08,0a14.85,14.85,0,0,0-5.76.93,8.89,8.89,0,0,0-3.45,2.78,17.1,17.1,0,0,0-2.5,5.07q-1,3.17-1.7,6l-8.58.07-.19-22,73.76-.63.18,22-8.58.07c-.82-2.83-1.47-4.92-1.94-6.25a18.07,18.07,0,0,0-1.56-3.4,11.63,11.63,0,0,0-1.81-2.34,8.44,8.44,0,0,0-2-1.49,9.24,9.24,0,0,0-2.67-.82,24.33,24.33,0,0,0-4.17-.24l-4.52,0,.53,62.48c0,2.21.1,3.89.23,5a9,9,0,0,0,.71,2.78,5.56,5.56,0,0,0,1.24,1.72,7.12,7.12,0,0,0,2,1.17,14.75,14.75,0,0,0,3.48.82l0,4.13Z"/><path class="cls-2" d="M388.3,172.22l.82.18a30.13,30.13,0,0,1,9.33-7.85,23.24,23.24,0,0,1,10.45-2.47,43.08,43.08,0,0,1,8,.74l.14,17.3-11.34.1a14.52,14.52,0,0,0-2.84-5.56,5.85,5.85,0,0,0-4.62-1.9,6.7,6.7,0,0,0-3,.87,10.7,10.7,0,0,0-3.05,2.41,9.71,9.71,0,0,0-2,3.15,13.77,13.77,0,0,0-.76,3.23,48.28,48.28,0,0,0-.14,4.89l.16,20a54.73,54.73,0,0,0,.51,8.33,7,7,0,0,0,1.79,3.71,8.14,8.14,0,0,0,4.47,1.88l0,4.13-30.89.26,0-4.13a8.49,8.49,0,0,0,4.15-2.16,7.27,7.27,0,0,0,1.54-3.59,54.86,54.86,0,0,0,.34-8.22l-.22-25.75q0-4.63-.22-6.86a10.64,10.64,0,0,0-.78-3.57,5.07,5.07,0,0,0-1.83-2.17,12.28,12.28,0,0,0-4.25-1.44l0-4.26,17.16-.65,7.9-.06Z"/><path class="cls-2" d="M459.37,216.61l-.95-.3a36.83,36.83,0,0,1-9.93,7.35A24.15,24.15,0,0,1,438.2,226a20.88,20.88,0,0,1-9.38-1.89,13.82,13.82,0,0,1-6.07-5.43,15.94,15.94,0,0,1-2.1-8.07q-.07-9.21,8.93-14.59t27.42-6.9l-.05-6a24.15,24.15,0,0,0-1.39-9,9.12,9.12,0,0,0-3.42-4.42,9.3,9.3,0,0,0-5-1.24,11.49,11.49,0,0,0-5,1,9.32,9.32,0,0,0-3.76,3.82,21.94,21.94,0,0,0-2.45,7.76l-11.84.1-.1-11.4q5.74-2.62,9.56-4a74.53,74.53,0,0,1,7.53-2.34,61.48,61.48,0,0,1,6.66-1.35,48.74,48.74,0,0,1,5.89-.42q7.57-.06,12.14,1.9a13.53,13.53,0,0,1,6.86,6.46q2.3,4.5,2.36,12.46l.21,24.43q0,4.14.24,6.39a13.52,13.52,0,0,0,.62,3.35,5.19,5.19,0,0,0,1.05,1.75,5,5,0,0,0,1.54,1.05,23.18,23.18,0,0,0,3.43,1l0,4.14-23.31.2Zm-2.25-21.35q-9.72.33-14.35,3.76c-3.1,2.28-4.62,5.6-4.59,9.94a7.79,7.79,0,0,0,2.18,5.9,8.18,8.18,0,0,0,5.91,2,10.56,10.56,0,0,0,5.44-1.58,11.53,11.53,0,0,0,4-4.14,10.69,10.69,0,0,0,1.46-5.47Z"/><path class="cls-2" d="M551.46,205.74q0,4.77.22,7a10.7,10.7,0,0,0,.75,3.5,4.81,4.81,0,0,0,1.83,2.15,12.57,12.57,0,0,0,4.21,1.44l0,4.19-17,.71-7.58.06.48-9-.94-.06a35.65,35.65,0,0,1-9.43,7.14,21.65,21.65,0,0,1-9.54,2.55q-11.4.09-17.14-7.69t-5.87-23.51q-.09-10.65,3.3-18A23.93,23.93,0,0,1,504.9,165q6.77-3.83,16.35-3.9a40.62,40.62,0,0,1,5.43.3,46,46,0,0,1,6.31,1.29l0-5.7q-.06-6.71-.27-9.49a14.66,14.66,0,0,0-.82-4.26,5,5,0,0,0-1.8-2.27,12.71,12.71,0,0,0-4.34-1.4l0-4.2,17.36-1,7.83-.06Zm-18.31-23.15q-.06-7.65-2.66-11.32t-7.93-3.64a9.17,9.17,0,0,0-6.65,2.85,17.59,17.59,0,0,0-4.13,8.09,48.67,48.67,0,0,0-1.3,12.48q.11,12.34,2.85,18.4t8.45,6a11.87,11.87,0,0,0,5.34-1.39,11.67,11.67,0,0,0,4.45-4.18,11.54,11.54,0,0,0,1.76-6.44Z"/><path class="cls-2" d="M624.34,212a41.37,41.37,0,0,1-12.58,9.7,35,35,0,0,1-14.39,2.94q-14.6.12-22-7.8t-7.57-23.66a37.86,37.86,0,0,1,3.65-17.55,25.81,25.81,0,0,1,10.65-11.24,33.2,33.2,0,0,1,16.14-3.93,34.35,34.35,0,0,1,10,1.23,23.3,23.3,0,0,1,7.4,3.6,20.39,20.39,0,0,1,5.12,5.63,31.05,31.05,0,0,1,3.65,9,56.64,56.64,0,0,1,1.42,12.58l-39.73.34q.16,11.34,4.19,16.66t12.16,5.26a20.16,20.16,0,0,0,8.58-1.86,30.21,30.21,0,0,0,8.22-6.37Zm-17.15-26.11q-.33-9.58-2.62-14.27a7.56,7.56,0,0,0-7.31-4.63q-4.83,0-7.64,5t-3.29,14.13Z"/><path class="cls-2" d="M658.76,169.93l.82.18a30.4,30.4,0,0,1,9.33-7.85,23.51,23.51,0,0,1,10.45-2.47,42.29,42.29,0,0,1,8,.75l.14,17.3-11.34.09a14.54,14.54,0,0,0-2.84-5.55,5.89,5.89,0,0,0-4.62-1.91,6.73,6.73,0,0,0-3,.88,10.84,10.84,0,0,0-3.05,2.4,9.85,9.85,0,0,0-2,3.16,13.66,13.66,0,0,0-.76,3.23,48.28,48.28,0,0,0-.14,4.89l.16,20a54.84,54.84,0,0,0,.51,8.33,7.08,7.08,0,0,0,1.79,3.71,8.21,8.21,0,0,0,4.47,1.88l0,4.13-30.89.26,0-4.13A8.49,8.49,0,0,0,640,217a7.2,7.2,0,0,0,1.54-3.58,54.86,54.86,0,0,0,.34-8.22l-.22-25.75q0-4.64-.22-6.86a10.64,10.64,0,0,0-.78-3.57,5.16,5.16,0,0,0-1.83-2.18,12.53,12.53,0,0,0-4.25-1.43l0-4.26,17.16-.65,7.9-.07Z"/><rect class="cls-3" x="721.6" y="50.83" width="352.66" height="145" rx="27.67"/><path class="cls-4" d="M773,159.49a1.55,1.55,0,0,1-.42-1.15V87.9a1.45,1.45,0,0,1,1.58-1.58h27a36.43,36.43,0,0,1,15.08,3,23.32,23.32,0,0,1,10.15,8.3A21.88,21.88,0,0,1,830,110v26.28a21.85,21.85,0,0,1-3.57,12.4A23.27,23.27,0,0,1,816.29,157a36.59,36.59,0,0,1-15.08,2.94h-27A1.57,1.57,0,0,1,773,159.49ZM792.9,143h9a7.31,7.31,0,0,0,5.89-2.79,11.52,11.52,0,0,0,2.42-7.31V113.34a11.1,11.1,0,0,0-2.31-7.31,7.57,7.57,0,0,0-6.1-2.78H792.9a.46.46,0,0,0-.52.52v38.69A.46.46,0,0,0,792.9,143Z"/><path class="cls-4" d="M850.67,157.65a25.43,25.43,0,0,1-10.36-9.88A29,29,0,0,1,836.64,133V113.24a28.27,28.27,0,0,1,3.67-14.51A25.14,25.14,0,0,1,850.67,89a36.15,36.15,0,0,1,30.91,0,25.05,25.05,0,0,1,10.35,9.78,28.18,28.18,0,0,1,3.68,14.51V133a28.89,28.89,0,0,1-3.68,14.77,25.35,25.35,0,0,1-10.35,9.88,35.69,35.69,0,0,1-30.91,0Zm22.5-16.29a10.9,10.9,0,0,0,2.68-7.73V113a10.9,10.9,0,0,0-2.68-7.73,9.23,9.23,0,0,0-7.1-2.89,9.09,9.09,0,0,0-7,2.89A10.9,10.9,0,0,0,856.4,113v20.6a10.9,10.9,0,0,0,2.68,7.73,9.12,9.12,0,0,0,7,2.89A9.26,9.26,0,0,0,873.17,141.36Z"/><path class="cls-4" d="M915.74,157.39a24.41,24.41,0,0,1-10.19-9.52,27.44,27.44,0,0,1-3.63-14.24V112.39a27,27,0,0,1,3.63-14.08,24.53,24.53,0,0,1,10.19-9.46,32.81,32.81,0,0,1,15.19-3.37,34.74,34.74,0,0,1,15.19,3.15A23.59,23.59,0,0,1,960,110.82c0,.63-.53,1-1.58,1.15L941.76,113h-.31c-.84,0-1.26-.39-1.26-1.16a9.45,9.45,0,0,0-2.53-6.89,10.08,10.08,0,0,0-13.45,0,9.41,9.41,0,0,0-2.53,6.89v22.6a9.24,9.24,0,0,0,2.53,6.78,10.05,10.05,0,0,0,13.45,0,9.28,9.28,0,0,0,2.53-6.78,1.1,1.1,0,0,1,.42-.94,1.49,1.49,0,0,1,1.15-.22l16.61.85c1,.07,1.58.42,1.58,1.05a23.87,23.87,0,0,1-13.83,22.34,34.18,34.18,0,0,1-15.19,3.2A32.93,32.93,0,0,1,915.74,157.39Z"/><path class="cls-4" d="M979.29,157.86A23.24,23.24,0,0,1,969,149.61a21.61,21.61,0,0,1-3.62-12.41v-1.47a1.45,1.45,0,0,1,1.57-1.57h16.3a1.47,1.47,0,0,1,1.58,1.57v.63c0,2,1,3.7,3.1,5.21a13.65,13.65,0,0,0,8.25,2.26c2.59,0,4.45-.55,5.57-1.63a5,5,0,0,0,1.68-3.63,3.73,3.73,0,0,0-2.1-3.47,46,46,0,0,0-7.67-2.84l-3.05-.84A55.92,55.92,0,0,1,973.2,123q-7.05-5.25-7.05-15.24a19.85,19.85,0,0,1,3.58-11.72,22.91,22.91,0,0,1,9.83-7.84,34.67,34.67,0,0,1,14-2.73,35.48,35.48,0,0,1,14.88,3A25.12,25.12,0,0,1,1019,97.15a21.9,21.9,0,0,1,3.84,12.72v.95a1.45,1.45,0,0,1-1.58,1.57h-16.3a1.55,1.55,0,0,1-1.15-.42,1.53,1.53,0,0,1-.42-1.15v-.11a7.65,7.65,0,0,0-2.84-5.73,11,11,0,0,0-7.68-2.57,9.06,9.06,0,0,0-5.3,1.36,4.39,4.39,0,0,0-1.95,3.79,4.21,4.21,0,0,0,1.42,3.21,15,15,0,0,0,4.36,2.52q2.94,1.2,9,3.1c.56.21,3,1,7.42,2.26a22.8,22.8,0,0,1,11,7,18.21,18.21,0,0,1,4.42,12.36,20.64,20.64,0,0,1-3.58,12.14,22.69,22.69,0,0,1-10,7.83,37.92,37.92,0,0,1-14.93,2.73A38.35,38.35,0,0,1,979.29,157.86Z"/></svg>