<svg xmlns="http://www.w3.org/2000/svg" viewBox="0 0 590 345"><defs><style>.cls-1{isolation:isolate;}.cls-2{fill:#ff5a5a;}.cls-2,.cls-3{mix-blend-mode:exclusion;}.cls-3{fill:#5f6fff;}.cls-4{fill:#fff;}</style></defs><title>Logos_Docs</title><g class="cls-1"><g id="Camada_1" data-name="Camada 1"><rect class="cls-2" x="63.5" y="22.88" width="264.26" height="177.8" rx="34.67"/><rect class="cls-3" x="252.49" y="144.32" width="274.01" height="177.8" rx="34.67"/><path class="cls-4" d="M162.48,131.33a13.12,13.12,0,0,1-5.76-4.65,12.07,12.07,0,0,1-2.05-7v-.83a.85.85,0,0,1,.24-.65.88.88,0,0,1,.65-.24h9.17a.88.88,0,0,1,.65.24.85.85,0,0,1,.24.65v.35a3.62,3.62,0,0,0,1.74,2.93,7.68,7.68,0,0,0,4.64,1.27,4.38,4.38,0,0,0,3.14-.92,2.78,2.78,0,0,0,.94-2,2.11,2.11,0,0,0-1.18-2,26.61,26.61,0,0,0-4.32-1.6l-1.71-.47a31.61,31.61,0,0,1-9.82-4.73q-4-3-4-8.58a11.2,11.2,0,0,1,2-6.59,12.89,12.89,0,0,1,5.53-4.41,19.6,19.6,0,0,1,7.9-1.53,19.93,19.93,0,0,1,8.36,1.71,14.15,14.15,0,0,1,5.92,4.85,12.32,12.32,0,0,1,2.16,7.16v.53a.83.83,0,0,1-.89.89h-9.17a.88.88,0,0,1-.65-.24.86.86,0,0,1-.23-.65v-.06a4.3,4.3,0,0,0-1.6-3.22,6.19,6.19,0,0,0-4.32-1.45,5.08,5.08,0,0,0-3,.77A2.45,2.45,0,0,0,166,103a2.36,2.36,0,0,0,.8,1.8,8.27,8.27,0,0,0,2.45,1.42c1.11.45,2.8,1,5.09,1.74.31.12,1.71.55,4.17,1.28a12.87,12.87,0,0,1,6.18,4,10.23,10.23,0,0,1,2.48,7,11.6,11.6,0,0,1-2,6.83,12.84,12.84,0,0,1-5.61,4.41,21.41,21.41,0,0,1-8.4,1.53A21.68,21.68,0,0,1,162.48,131.33Z"/><path class="cls-4" d="M220.86,100.36a.88.88,0,0,1-.65.24H202.52c-.2,0-.29.1-.29.3v5.56a.25.25,0,0,0,.29.29h10.94a.85.85,0,0,1,.65.24.87.87,0,0,1,.24.65v7.69a.88.88,0,0,1-.24.65.85.85,0,0,1-.65.24H202.52c-.2,0-.29.09-.29.29v6.15c0,.2.09.3.29.3h17.69a.8.8,0,0,1,.88.88v7.75a.81.81,0,0,1-.88.89H192a.81.81,0,0,1-.88-.89V92a.8.8,0,0,1,.88-.89h28.22a.8.8,0,0,1,.88.89v7.74A.89.89,0,0,1,220.86,100.36Z"/><path class="cls-4" d="M225.06,132.24a.85.85,0,0,1-.24-.65V92a.82.82,0,0,1,.89-.89h9.34a.9.9,0,0,1,.65.23.89.89,0,0,1,.24.66v30.69a.26.26,0,0,0,.29.3h18.28a.9.9,0,0,1,.65.23.88.88,0,0,1,.24.65v7.75a.85.85,0,0,1-.24.65.87.87,0,0,1-.65.24h-28.8A.85.85,0,0,1,225.06,132.24Z"/><path class="cls-4" d="M259,132.24a.89.89,0,0,1-.23-.65V92a.8.8,0,0,1,.89-.89H269a.9.9,0,0,1,.65.23.89.89,0,0,1,.24.66v30.69a.26.26,0,0,0,.29.3h18.28a.92.92,0,0,1,.65.23.88.88,0,0,1,.24.65v7.75a.85.85,0,0,1-.24.65.88.88,0,0,1-.65.24h-28.8A.89.89,0,0,1,259,132.24Z"/><polygon class="cls-4" points="101.92 93.13 121.59 130.43 141.98 93.52 101.92 93.13"/><polygon class="cls-4" points="101.92 93.13 121.59 130.43 121.95 93.33 101.92 93.13"/><path class="cls-4" d="M389.62,232.51a9.58,9.58,0,0,1,3.9,3.79,11.53,11.53,0,0,1,1.24,5.56q0,6.09-4.26,9t-11.06,2.86H363.53a.8.8,0,0,1-.88-.88V213.17a.86.86,0,0,1,.23-.65.88.88,0,0,1,.65-.24h15.38q7.57,0,11.39,2.69t3.81,9q0,5.63-4.49,8.17C389.46,232.27,389.46,232.39,389.62,232.51ZM373.76,222.1V228a.26.26,0,0,0,.3.29h4.85q4.32,0,4.32-3.25t-4.32-3.26h-4.85A.27.27,0,0,0,373.76,222.1Zm9.88,18.57q0-3.31-4.14-3.31h-5.44a.27.27,0,0,0-.3.3v6.21a.26.26,0,0,0,.3.29h5.38Q383.64,244.16,383.64,240.67Z"/><path class="cls-4" d="M406.5,252.32a13.4,13.4,0,0,1-5.71-5.2,15,15,0,0,1-2-7.81V213.17a.83.83,0,0,1,.89-.89H409a.89.89,0,0,1,.66.24.9.9,0,0,1,.23.65v26.14a5.41,5.41,0,0,0,1.39,3.88,4.92,4.92,0,0,0,3.7,1.45,4.79,4.79,0,0,0,3.64-1.48,5.43,5.43,0,0,0,1.39-3.85V213.17a.9.9,0,0,1,.23-.65.88.88,0,0,1,.65-.24h9.35a.88.88,0,0,1,.65.24.87.87,0,0,1,.24.65v26.14a15,15,0,0,1-2,7.81,13.41,13.41,0,0,1-5.67,5.2,20.44,20.44,0,0,1-16.95,0Z"/><path class="cls-4" d="M447.1,253.33a.9.9,0,0,1-.23-.65V239.61l-.06-.36-12.07-25.9-.12-.48c0-.39.26-.59.77-.59h10.18a1.07,1.07,0,0,1,1.06.71l5.62,14.14c.12.28.24.28.35,0L458.22,213a1.07,1.07,0,0,1,1.07-.71h10.23c.51,0,.77.2.77.59l-.12.48L458,239.25a.84.84,0,0,0-.06.36v13.07a.83.83,0,0,1-.89.89h-9.29A.88.88,0,0,1,447.1,253.33Z"/><polygon class="cls-4" points="348.77 252.06 329.09 214.77 308.7 251.67 348.77 252.06"/><polygon class="cls-4" points="348.77 252.06 329.09 214.77 328.74 251.87 348.77 252.06"/></g></g></svg>