<svg id="Camada_1" data-name="Camada 1" xmlns="http://www.w3.org/2000/svg" xmlns:xlink="http://www.w3.org/1999/xlink" viewBox="0 0 836.83 867.34"><defs><style>.cls-1,.cls-14,.cls-31,.cls-32,.cls-9{fill:none;}.cls-2,.cls-7{fill:#004b83;}.cls-2,.cls-3,.cls-31,.cls-4,.cls-9{stroke:#1a2e35;}.cls-14,.cls-2,.cls-3,.cls-31,.cls-32,.cls-4,.cls-9{stroke-linecap:round;stroke-linejoin:round;}.cls-11,.cls-15,.cls-22,.cls-3,.cls-8{fill:#fff;}.cls-10,.cls-4{fill:#1a2e35;}.cls-5{clip-path:url(#clip-path);}.cls-6{fill:#150035;}.cls-8{opacity:0.7;}.cls-11{opacity:0.5;}.cls-12{clip-path:url(#clip-path-2);}.cls-13{opacity:0.13;}.cls-14,.cls-32{stroke:#fff;}.cls-16{clip-path:url(#clip-path-3);}.cls-17{clip-path:url(#clip-path-4);}.cls-18{clip-path:url(#clip-path-5);}.cls-19{clip-path:url(#clip-path-6);}.cls-20{clip-path:url(#clip-path-7);}.cls-21{clip-path:url(#clip-path-8);}.cls-22{opacity:0.53;}.cls-23{opacity:0.14;}.cls-24{clip-path:url(#clip-path-9);}.cls-25{clip-path:url(#clip-path-10);}.cls-26{clip-path:url(#clip-path-11);}.cls-27{clip-path:url(#clip-path-12);}.cls-28{clip-path:url(#clip-path-13);}.cls-29{clip-path:url(#clip-path-14);}.cls-30{clip-path:url(#clip-path-15);}.cls-31{stroke-width:2px;}.cls-32{stroke-width:0.75px;}.cls-33{clip-path:url(#clip-path-16);}</style><clipPath id="clip-path"><path class="cls-1" d="M-112.36,686.92l-2.38-1.38c-8.78-5.07-24.13-4.43-34.28,1.43L-164.73,696c-5.84,3.38-8.67,7.75-8.35,11.81-6.87,1.22-15,.41-20.63,3.68L-219,726.12c-8.83,5.09-11.93,14.64-12,20.84a31.79,31.79,0,0,0-12.78,4.29l-16,9.23c-10.33,6-12.78,15.26-3.83,20.43l2.42,1.39c9,5.17,24.58,4.52,34.92-1.44l16-9.24a22.61,22.61,0,0,0,5.11-3.93c13.65,2.65,30.51.3,42.71-6.74l25.28-14.6c15.38-8.88,17.85-22,6.29-30.37l.39-.2,15.71-9.07C-104.68,700.85-103.57,692-112.36,686.92Z"/></clipPath><clipPath id="clip-path-2"><path class="cls-2" d="M329.74,380.35s-59.59-7.06-98.79,23.52S158,562.26,158.81,623.42s23.52,91.74,80.76,116.83S403.45,755.93,463,737.11s79.19-84.68,78.41-120-40-76.06-53.32-84.69-51-26.65-69.79-54.88S372.08,388.19,329.74,380.35Z"/></clipPath><clipPath id="clip-path-3"><path class="cls-3" d="M327.63,386.64s-21.35,6.86-24.4,12.2-.77,42.7-.77,47.28,2.67-2.67,5-8,10.29-13.35,13-12.58,4.2,3.81,4.2,8.77,6.1,11.82,11.44,15.63,10.29,7.62,10.29,7.62,11.06-16,13.72-20.2,2.29-13,2.67-16,7.25,8.39,8.77,5.34S368,421,362.7,412.56s-3.81-17.15-11.82-23.25S333.73,385.11,327.63,386.64Z"/></clipPath><clipPath id="clip-path-4"><path class="cls-3" d="M277.11,541.24S264,522.37,247.94,520.65s-35.45,11.44-36,16-4.57,29.16-1.71,32.59,13.72,6.29,34.88-.57S274.82,553.25,277.11,541.24Z"/></clipPath><clipPath id="clip-path-5"><path class="cls-3" d="M232.5,546.39s-21.46,8.52-22.3,25.16c-.47,9.21,14.87,13.15,30.88,13.15s38.89-20,53.76-28.59S344,527.52,348,525.8s17.73,2.86,23.45,4.57,16.59,1.72,16.59,1.72,8,12.58,12,12.58-8.58-18.87-10.3-22.87S360,508.64,356.6,508.64s-83.49,20-95.5,24.59S232.5,546.39,232.5,546.39Z"/></clipPath><clipPath id="clip-path-6"><polygon class="cls-3" points="382.34 517.22 321.07 560.55 461.19 556.55 508.16 517.79 382.34 517.22"/></clipPath><clipPath id="clip-path-7"><path class="cls-3" d="M428.66,560.11s50.33-44,100.08-58.9,60-12.58,58.91,9.72-25.16,139-41.18,168.71S510.44,763.71,511,774s20,40.61,37.17,51.47,15.44,24,4.57,26.31-23.44,6.29-60.62-17.73-52.61-58.33-50.32-66.91,26.3-20,36-37.17,25.73-81.21,26.87-110.38a173.46,173.46,0,0,1,11.44-53.76S453.25,577.27,435,588.71Z"/></clipPath><clipPath id="clip-path-8"><path class="cls-4" d="M477.85,730a43.64,43.64,0,0,1-2.44,3.75c8.83,1,21.56,4.11,32.17,13.4a103.34,103.34,0,0,1,7.82,7.57c11-14.72,23.29-61.2,37.21-80.31,35.95-49.39,33.9-141.15,35-163.45s-9.15-24.59-58.91-9.72-100.08,58.9-100.08,58.9l6.29,28.6c18.3-11.44,81.21-22.88,81.21-22.88a173.46,173.46,0,0,0-11.44,53.76C503.58,648.76,487.57,712.81,477.85,730Z"/></clipPath><clipPath id="clip-path-9"><path class="cls-3" d="M278.83,569.26s-18.31,10.3-24.6,21.74,20.78,30.5,49.38,29.35,81-32.21,81-32.21.57,50.32,10.29,68.62,54.33,62.91,72.06,74.35,77.21,54.33,86.36,61.19,26.3,19.45,30.31,20S629.4,762,639.12,744.84s18.3-53.19,14.87-61.2-10.29-1.14-17.16,4.58-69.77,47.47-75.49,50.32a63.33,63.33,0,0,1-9.72,4s-51.47-49.18-78.92-86.93S443,569.26,432.67,551s-25.17-26.3-47.47-24S316.57,541.24,278.83,569.26Z"/></clipPath><clipPath id="clip-path-10"><path class="cls-4" d="M548.07,739.11c-12.1-11.8-57.47-72.67-75.37-107.67-26.24-51.28-29.06-68.76-39.36-87.06s-25.84-19.72-48.14-17.44S323,533.37,274,561.14c0,0-20.55,11.17-26.84,22.61s16.61,40.24,56.43,36.6c28.5-2.6,81-32.21,81-32.21s.57,50.32,10.29,68.62,54.33,62.91,72.06,74.35c11.24,7.25,39.26,27.15,60.6,42.49C532.94,754.45,542.39,744,548.07,739.11Z"/></clipPath><clipPath id="clip-path-11"><path class="cls-3" d="M639.12,744.84c9.72-17.16,18.3-53.19,14.87-61.2-2-4.64-5.13-4.27-8.76-2,2.41,10.7,0,31.31-11.83,53.51-10.54,19.82-43.11,54.83-59.53,71.88,4.46,2.94,8.18,5.1,9.78,5.33C587.65,812.89,629.4,762,639.12,744.84Z"/></clipPath><clipPath id="clip-path-12"><path class="cls-3" d="M548.19,825.47c-5.07-3.2-10.32-8.13-15.24-13.71-11.81-5-27.55-11.52-41.38-20-14.87-9.15-11.44-14.87-20-23.45-6.58-6.58-19.53-7.43-25.21-7.48-2.35,2.29-4,4.39-4.52,6.34-2.29,8.58,13.15,42.89,50.32,66.91s49.76,20,60.62,17.73S565.35,836.34,548.19,825.47Z"/></clipPath><clipPath id="clip-path-13"><path class="cls-4" d="M551.05,829.48c-14.87-8.58-45.18-14.3-64.63-27.45s-14.29-24.6-28.59-33.75c-6.57-4.2-12.05-3.21-16.06-.91-2,8.91,13.5,42.86,50.37,66.68,37.18,24,49.76,20,60.62,17.73,7.23-1.52,10.36-7.85,6.65-15.11A31.41,31.41,0,0,0,551.05,829.48Z"/></clipPath><clipPath id="clip-path-14"><path class="cls-3" d="M321.5,357s2.66,28.89,3.78,38,3.68,35.34,6.31,44,17,23.75,18.35,20.26,8.48-27,5.64-41-3.71-26.18-1.94-29.69,8.1-7.56,8.1-7.56a225,225,0,0,1-21.48-12.51C330.07,361.61,322.9,353.88,321.5,357Z"/></clipPath><clipPath id="clip-path-15"><path class="cls-3" d="M320.43,361.11s16.47,13.79,29.12,18.77,32,4.71,34.77-1.87-4.79-58.55-11.3-72.24-13.5-13.91-25-14.95-34.52,8.33-38.56,19.44.56,26.87,3.91,36.19A69.18,69.18,0,0,0,320.43,361.11Z"/></clipPath><clipPath id="clip-path-16"><path class="cls-3" d="M325.37,347.47s-7.39-10.66-15.19-6.37-1.72,19.49,3,24.78,13.76-4.53,14.66-7.05"/></clipPath></defs><title>Logos_Docs</title><g id="illustration"><g class="cls-5"><rect class="cls-6" x="-428.63" y="767.02" width="460.83" height="1.88" transform="translate(-410.11 3.66) rotate(-29.97)"/><rect class="cls-6" x="-423.52" y="769.75" width="460.83" height="1.88" transform="translate(-410.79 6.58) rotate(-29.97)"/><rect class="cls-6" x="-418.88" y="772.65" width="460.83" height="1.88" transform="translate(-411.51 9.25) rotate(-29.96)"/><rect class="cls-6" x="-413.67" y="775.32" width="460.83" height="1.88" transform="translate(-412.24 12.24) rotate(-29.97)"/><rect class="cls-6" x="-409.37" y="778.31" width="460.83" height="1.88" transform="matrix(0.87, -0.5, 0.5, 0.87, -413.19, 14.79)"/><rect class="cls-6" x="-404.26" y="781.04" width="460.83" height="1.88" transform="translate(-413.85 17.71) rotate(-29.97)"/><rect class="cls-6" x="-399.63" y="783.94" width="460.83" height="1.88" transform="translate(-414.57 20.38) rotate(-29.96)"/><rect class="cls-6" x="-394.41" y="786.61" width="460.83" height="1.88" transform="translate(-415.38 23.39) rotate(-29.97)"/><rect class="cls-6" x="-389.78" y="789.51" width="460.83" height="1.88" transform="translate(-416.23 26.1) rotate(-29.97)"/><rect class="cls-6" x="-384.58" y="792.23" width="460.83" height="1.88" transform="translate(-416.7 29) rotate(-29.96)"/><rect class="cls-6" x="-379.95" y="795.13" width="460.83" height="1.88" transform="translate(-417.64 31.74) rotate(-29.97)"/><rect class="cls-6" x="-374.73" y="797.8" width="460.83" height="1.88" transform="translate(-418.28 34.7) rotate(-29.97)"/><rect class="cls-6" x="-370.44" y="800.79" width="460.83" height="1.88" transform="translate(-419.26 37.27) rotate(-29.97)"/><rect class="cls-6" x="-365.33" y="803.52" width="460.83" height="1.88" transform="translate(-419.75 40.12) rotate(-29.96)"/><rect class="cls-6" x="-360.69" y="806.42" width="460.83" height="1.88" transform="translate(-420.71 42.87) rotate(-29.97)"/><rect class="cls-6" x="-355.48" y="809.09" width="460.83" height="1.88" transform="translate(-421.33 45.82) rotate(-29.97)"/><rect class="cls-6" x="-350.84" y="812" width="460.83" height="1.88" transform="translate(-422.06 48.49) rotate(-29.96)"/><rect class="cls-6" x="-428.9" y="767.18" width="460.83" height="1.88" transform="translate(-410.29 3.56) rotate(-29.97)"/></g></g><path class="cls-7" d="M787.57,611.09c17.1-139.67-65.76-325.29-151.66-402C480.83,70.76,352,97.52,251.78,147.09S137.26,362.14,68.07,437-40.48,612.58,64.5,712.83s189.67,49.31,299.42,42.95,255.29,43.71,334,.18C752.93,725.57,780,672.82,787.57,611.09Z"/><path class="cls-8" d="M787.57,611.09c17.1-139.67-65.76-325.29-151.66-402C480.83,70.76,352,97.52,251.78,147.09S137.26,362.14,68.07,437-40.48,612.58,64.5,712.83s189.67,49.31,299.42,42.95,255.29,43.71,334,.18C752.93,725.57,780,672.82,787.57,611.09Z"/><line class="cls-9" x1="353.26" y1="606.17" x2="353.26" y2="91.6"/><polyline class="cls-9" points="18.78 611.26 343.38 611.26 836.5 770.43"/><path class="cls-10" d="M166.65,599.19H144.17V228.45h46.27l-20-72.08H110.54l-20,72.08h46.28V599.19H114.36a22,22,0,0,0-21.94,21.55.88.88,0,0,0,0,.16s0,.05,0,.07,0,.12,0,.18h0c.67,5.17,21.91,9.32,48,9.32s47.36-4.15,48-9.32h.12A22,22,0,0,0,166.65,599.19Z"/><path class="cls-4" d="M465.31,66.08V502.61L794,556.68V12Zm320.13,125-167.1,9.46V48.89L785.44,22.3ZM618.34,216.5l167.1-7.66V361.33l-167.1-7.81ZM604.78,352.89l-133.95-6.26V223.27l134-6.14Zm0-301.84V201.31l-133.95,7.58V72.36ZM470.83,361l134,7.71V517.65L470.83,496.33ZM618.34,519.81V369.49l167.1,9.61V546.4Z"/><ellipse class="cls-7" cx="351.96" cy="741.56" rx="262.95" ry="81.93"/><ellipse class="cls-11" cx="351.96" cy="741.56" rx="262.95" ry="81.93"/><path class="cls-7" d="M329.74,380.35s-59.59-7.06-98.79,23.52S158,562.26,158.81,623.42s23.52,91.74,80.76,116.83S403.45,755.93,463,737.11s79.19-84.68,78.41-120-40-76.06-53.32-84.69-51-26.65-69.79-54.88S372.08,388.19,329.74,380.35Z"/><g class="cls-12"><path class="cls-13" d="M474,733c-22.54-3.05-49.26-9.16-69.48-21.44-42.7-25.93-53.38-74.73-68.63-93s-42.7-16.78-54.9-36.6,7.62-166.23-27.45-175.38c-9.43-2.46-16.53-3.26-21.89-3.13l-.67.5C191.74,434.45,158,562.26,158.81,623.42s23.52,91.74,80.76,116.83S403.45,755.93,463,737.11A102.13,102.13,0,0,0,474,733Z"/></g><path class="cls-9" d="M329.74,380.35s-59.59-7.06-98.79,23.52S158,562.26,158.81,623.42s23.52,91.74,80.76,116.83S403.45,755.93,463,737.11s79.19-84.68,78.41-120-40-76.06-53.32-84.69-51-26.65-69.79-54.88S372.08,388.19,329.74,380.35Z"/><path class="cls-4" d="M306.28,408s-38.89,7.43-45.76,14.3-35.45,114.38-35.45,114.38,12.58-3.44,24,1.14,12.58,16.58,13.72,22.3,1.72,20.59,1.72,20.59,115.6-10.33,140.19-16,62-8.35,62-8.35-63.24-142.6-73-147.75-50.33-5.72-56-4.57S306.28,408,306.28,408Z"/><line class="cls-14" x1="267.96" y1="540.1" x2="277.68" y2="460.6"/><line class="cls-14" x1="275.39" y1="481.76" x2="288.55" y2="464.61"/><path class="cls-14" d="M314.85,492.06s37.18-12,61.77-12"/><path class="cls-14" d="M349.94,459.27l-2.49,19.06s6.29,0,6.87,2.86-2.29,5.72-2.29,5.72,17.73,9.72,20,21.16"/><path class="cls-15" d="M327.63,386.64s-21.35,6.86-24.4,12.2-.77,42.7-.77,47.28,2.67-2.67,5-8,10.29-13.35,13-12.58,4.2,3.81,4.2,8.77,6.1,11.82,11.44,15.63,10.29,7.62,10.29,7.62,11.06-16,13.72-20.2,2.29-13,2.67-16,7.25,8.39,8.77,5.34S368,421,362.7,412.56s-3.81-17.15-11.82-23.25S333.73,385.11,327.63,386.64Z"/><g class="cls-16"><path class="cls-7" d="M303.23,398.84c-2,3.56-1.7,21.37-1.24,34.2,4.86-6.28,14.9-18.11,20.71-15.87C330.11,420,333,441.09,333,441.09l-5-54.53-.32.08S306.28,393.5,303.23,398.84Z"/><path class="cls-11" d="M303.23,398.84c-2,3.56-1.7,21.37-1.24,34.2,4.86-6.28,14.9-18.11,20.71-15.87C330.11,420,333,441.09,333,441.09l-5-54.53-.32.08S306.28,393.5,303.23,398.84Z"/></g><path class="cls-9" d="M327.63,386.64s-21.35,6.86-24.4,12.2-.77,42.7-.77,47.28,2.67-2.67,5-8,10.29-13.35,13-12.58,4.2,3.81,4.2,8.77,6.1,11.82,11.44,15.63,10.29,7.62,10.29,7.62,11.06-16,13.72-20.2,2.29-13,2.67-16,7.25,8.39,8.77,5.34S368,421,362.7,412.56s-3.81-17.15-11.82-23.25S333.73,385.11,327.63,386.64Z"/><path class="cls-15" d="M277.11,541.24S264,522.37,247.94,520.65s-35.45,11.44-36,16-4.57,29.16-1.71,32.59,13.72,6.29,34.88-.57S274.82,553.25,277.11,541.24Z"/><g class="cls-17"><path class="cls-7" d="M223.6,568.68S219,555.58,221.32,551s11.39-11.39,17.09-18.22-13.34,3.87-14.24,0c-.73-3.11,10-9.32,14.26-11.63-13.31,2.54-26.06,11.81-26.52,15.5-.57,4.57-4.57,29.16-1.71,32.59,1.47,1.78,5.1,3.38,11.16,3.59C222.74,570.44,223.6,568.68,223.6,568.68Z"/><path class="cls-11" d="M223.6,568.68S219,555.58,221.32,551s11.39-11.39,17.09-18.22-13.34,3.87-14.24,0c-.73-3.11,10-9.32,14.26-11.63-13.31,2.54-26.06,11.81-26.52,15.5-.57,4.57-4.57,29.16-1.71,32.59,1.47,1.78,5.1,3.38,11.16,3.59C222.74,570.44,223.6,568.68,223.6,568.68Z"/></g><path class="cls-9" d="M277.11,541.24S264,522.37,247.94,520.65s-35.45,11.44-36,16-4.57,29.16-1.71,32.59,13.72,6.29,34.88-.57S274.82,553.25,277.11,541.24Z"/><path class="cls-15" d="M232.5,546.39s-21.46,8.52-22.3,25.16c-.47,9.21,14.87,13.15,30.88,13.15s38.89-20,53.76-28.59S344,527.52,348,525.8s17.73,2.86,23.45,4.57,16.59,1.72,16.59,1.72,8,12.58,12,12.58-8.58-18.87-10.3-22.87S360,508.64,356.6,508.64s-83.49,20-95.5,24.59S232.5,546.39,232.5,546.39Z"/><g class="cls-18"><path class="cls-7" d="M277.35,544c32.71-16.36,79.25-35.37,79.25-35.37-3.43,0-83.49,20-95.5,24.59s-28.6,13.16-28.6,13.16-21.46,8.52-22.3,25.16c-.47,9.21,14.87,13.15,30.88,13.15s38.89-20,53.76-28.59l9-5.21C282,553.71,252.81,556.28,277.35,544Z"/><path class="cls-11" d="M277.35,544c32.71-16.36,79.25-35.37,79.25-35.37-3.43,0-83.49,20-95.5,24.59s-28.6,13.16-28.6,13.16-21.46,8.52-22.3,25.16c-.47,9.21,14.87,13.15,30.88,13.15s38.89-20,53.76-28.59l9-5.21C282,553.71,252.81,556.28,277.35,544Z"/></g><path class="cls-9" d="M232.5,546.39s-21.46,8.52-22.3,25.16c-.47,9.21,14.87,13.15,30.88,13.15s38.89-20,53.76-28.59S344,527.52,348,525.8s17.73,2.86,23.45,4.57,16.59,1.72,16.59,1.72,8,12.58,12,12.58-8.58-18.87-10.3-22.87S360,508.64,356.6,508.64s-83.49,20-95.5,24.59S232.5,546.39,232.5,546.39Z"/><path class="cls-3" d="M399.77,419.19l-17.43,98,125.82.57,18.71-92.95a5.78,5.78,0,0,0-5.49-6.92l-115.75-3.49A5.77,5.77,0,0,0,399.77,419.19Z"/><polygon class="cls-15" points="382.34 517.22 321.07 560.55 461.19 556.55 508.16 517.79 382.34 517.22"/><g class="cls-19"><polygon class="cls-7" points="382.34 517.22 321.07 560.55 461.19 556.55 508.16 517.79 382.34 517.22"/><polygon class="cls-11" points="382.34 517.22 321.07 560.55 461.19 556.55 508.16 517.79 382.34 517.22"/></g><polygon class="cls-9" points="382.34 517.22 321.07 560.55 461.19 556.55 508.16 517.79 382.34 517.22"/><path class="cls-15" d="M428.66,560.11s50.33-44,100.08-58.9,60-12.58,58.91,9.72-25.16,139-41.18,168.71S510.44,763.71,511,774s20,40.61,37.17,51.47,15.44,24,4.57,26.31-23.44,6.29-60.62-17.73-52.61-58.33-50.32-66.91,26.3-20,36-37.17,25.73-81.21,26.87-110.38a173.46,173.46,0,0,1,11.44-53.76S453.25,577.27,435,588.71Z"/><g class="cls-20"><path class="cls-7" d="M428.66,560.11s50.33-44,100.08-58.9,60-12.58,58.91,9.72-25.16,139-41.18,168.71S510.44,763.71,511,774s20,40.61,37.17,51.47,15.44,24,4.57,26.31-23.44,6.29-60.62-17.73-52.61-58.33-50.32-66.91,26.3-20,36-37.17,25.73-81.21,26.87-110.38a173.46,173.46,0,0,1,11.44-53.76S453.25,577.27,435,588.71Z"/><path class="cls-11" d="M428.66,560.11s50.33-44,100.08-58.9,60-12.58,58.91,9.72-25.16,139-41.18,168.71S510.44,763.71,511,774s20,40.61,37.17,51.47,15.44,24,4.57,26.31-23.44,6.29-60.62-17.73-52.61-58.33-50.32-66.91,26.3-20,36-37.17,25.73-81.21,26.87-110.38a173.46,173.46,0,0,1,11.44-53.76S453.25,577.27,435,588.71Z"/></g><path class="cls-9" d="M428.66,560.11s50.33-44,100.08-58.9,60-12.58,58.91,9.72-25.16,139-41.18,168.71S510.44,763.71,511,774s20,40.61,37.17,51.47,15.44,24,4.57,26.31-23.44,6.29-60.62-17.73-52.61-58.33-50.32-66.91,26.3-20,36-37.17,25.73-81.21,26.87-110.38a173.46,173.46,0,0,1,11.44-53.76S453.25,577.27,435,588.71Z"/><path class="cls-3" d="M477.85,730a43.64,43.64,0,0,1-2.44,3.75c8.83,1,21.56,4.11,32.17,13.4a103.34,103.34,0,0,1,7.82,7.57c6.7-21.38,19.86-54.23,31.07-75.05,16-29.74,40-146.41,41.18-168.71s-9.15-24.59-58.91-9.72-100.08,58.9-100.08,58.9l6.29,28.6c18.3-11.44,81.21-22.88,81.21-22.88a173.46,173.46,0,0,0-11.44,53.76C503.58,648.76,487.57,712.81,477.85,730Z"/><path class="cls-10" d="M477.85,730a43.64,43.64,0,0,1-2.44,3.75c8.83,1,21.56,4.11,32.17,13.4a103.34,103.34,0,0,1,7.82,7.57c11-14.72,23.29-61.2,37.21-80.31,35.95-49.39,33.9-141.15,35-163.45s-9.15-24.59-58.91-9.72-100.08,58.9-100.08,58.9l6.29,28.6c18.3-11.44,81.21-22.88,81.21-22.88a173.46,173.46,0,0,0-11.44,53.76C503.58,648.76,487.57,712.81,477.85,730Z"/><g class="cls-21"><path class="cls-22" d="M477.85,730a43.64,43.64,0,0,1-2.44,3.75c8.83,1,21.56,4.11,32.17,13.4a103.34,103.34,0,0,1,7.82,7.57c11-14.72,23.29-61.2,37.21-80.31,35.95-49.39,33.9-141.15,35-163.45s-9.15-24.59-58.91-9.72-100.08,58.9-100.08,58.9l6.29,28.6c18.3-11.44,81.21-22.88,81.21-22.88a173.46,173.46,0,0,0-11.44,53.76C503.58,648.76,487.57,712.81,477.85,730Z"/><path class="cls-23" d="M563.47,507.91c-.9-8.12-89.36,29.32-126.66,45.48-5.18,4.13-8.15,6.72-8.15,6.72l6.29,28.6c18.3-11.44,81.21-22.88,81.21-22.88a173.46,173.46,0,0,0-11.44,53.76c-1.14,29.17-17.15,93.22-26.87,110.38a43.64,43.64,0,0,1-2.44,3.75,64.73,64.73,0,0,1,18.25,4.73c13.85-29.29,28.53-63.25,35.5-89.85C541.74,600.56,564.62,518.21,563.47,507.91Z"/><path class="cls-9" d="M516.16,565.83s17.16-34.88,32-49.18"/></g><path class="cls-9" d="M477.85,730a43.64,43.64,0,0,1-2.44,3.75c8.83,1,21.56,4.11,32.17,13.4a103.34,103.34,0,0,1,7.82,7.57c11-14.72,23.29-61.2,37.21-80.31,35.95-49.39,33.9-141.15,35-163.45s-9.15-24.59-58.91-9.72-100.08,58.9-100.08,58.9l6.29,28.6c18.3-11.44,81.21-22.88,81.21-22.88a173.46,173.46,0,0,0-11.44,53.76C503.58,648.76,487.57,712.81,477.85,730Z"/><path class="cls-4" d="M353.26,606.17s28.23-.79,54.11-10.19-21.17-26.66-39.21-17.25A26.8,26.8,0,0,0,353.26,606.17Z"/><path class="cls-15" d="M278.83,569.26s-18.31,10.3-24.6,21.74,20.78,30.5,49.38,29.35,81-32.21,81-32.21.57,50.32,10.29,68.62,54.33,62.91,72.06,74.35,77.21,54.33,86.36,61.19,26.3,19.45,30.31,20S629.4,762,639.12,744.84s18.3-53.19,14.87-61.2-10.29-1.14-17.16,4.58-69.77,47.47-75.49,50.32a63.33,63.33,0,0,1-9.72,4s-51.47-49.18-78.92-86.93S443,569.26,432.67,551s-25.17-26.3-47.47-24S316.57,541.24,278.83,569.26Z"/><g class="cls-24"><path class="cls-7" d="M520.82,768.74c15.27,11,28.57,20.6,32.52,23.56,9.15,6.87,26.3,19.45,30.31,20,1.42.2,7.59-6.08,15.39-15l-65.49-42.13Z"/><path class="cls-11" d="M520.82,768.74c15.27,11,28.57,20.6,32.52,23.56,9.15,6.87,26.3,19.45,30.31,20,1.42.2,7.59-6.08,15.39-15l-65.49-42.13Z"/></g><path class="cls-9" d="M278.83,569.26s-18.31,10.3-24.6,21.74,20.78,30.5,49.38,29.35,81-32.21,81-32.21.57,50.32,10.29,68.62,54.33,62.91,72.06,74.35,77.21,54.33,86.36,61.19,26.3,19.45,30.31,20S629.4,762,639.12,744.84s18.3-53.19,14.87-61.2-10.29-1.14-17.16,4.58-69.77,47.47-75.49,50.32a63.33,63.33,0,0,1-9.72,4s-51.47-49.18-78.92-86.93S443,569.26,432.67,551s-25.17-26.3-47.47-24S316.57,541.24,278.83,569.26Z"/><path class="cls-10" d="M548.07,739.11c-12.1-11.8-57.47-72.67-75.37-107.67-26.24-51.28-29.06-68.76-39.36-87.06s-25.84-19.72-48.14-17.44S323,533.37,274,561.14c0,0-20.55,11.17-26.84,22.61s16.61,40.24,56.43,36.6c28.5-2.6,81-32.21,81-32.21s.57,50.32,10.29,68.62,54.33,62.91,72.06,74.35c11.24,7.25,39.26,27.15,60.6,42.49C532.94,754.45,542.39,744,548.07,739.11Z"/><g class="cls-25"><path class="cls-22" d="M548.07,739.11c-12.1-11.8-57.47-72.67-75.37-107.67-26.24-51.28-29.06-68.76-39.36-87.06s-25.84-19.72-48.14-17.44S323,533.37,274,561.14c0,0-20.55,11.17-26.84,22.61s16.61,40.24,56.43,36.6c28.5-2.6,81-32.21,81-32.21s.57,50.32,10.29,68.62,54.33,62.91,72.06,74.35c11.24,7.25,39.26,27.15,60.6,42.49C532.94,754.45,542.39,744,548.07,739.11Z"/><path class="cls-23" d="M433.08,657.75c-17.16-43.47-6.86-130.39-54.9-119-35,8.34-99.16,37.93-131.39,53.37,3.8,13.13,24.85,31.11,56.82,28.19,28.5-2.6,81-32.21,81-32.21s.57,50.32,10.29,68.62,54.33,62.91,72.06,74.35c11.24,7.25,39.26,27.15,60.6,42.49a81.48,81.48,0,0,1,8-19.16C493,723,442.66,682,433.08,657.75Z"/><line class="cls-9" x1="384.63" y1="588.14" x2="382.91" y2="558.4"/></g><path class="cls-9" d="M548.07,739.11c-12.1-11.8-57.47-72.67-75.37-107.67-26.24-51.28-29.06-68.76-39.36-87.06s-25.84-19.72-48.14-17.44S323,533.37,274,561.14c0,0-20.55,11.17-26.84,22.61s16.61,40.24,56.43,36.6c28.5-2.6,81-32.21,81-32.21s.57,50.32,10.29,68.62,54.33,62.91,72.06,74.35c11.24,7.25,39.26,27.15,60.6,42.49C532.94,754.45,542.39,744,548.07,739.11Z"/><path class="cls-4" d="M553.34,792.3c9.15,6.87,26.3,19.45,30.31,20S629.4,762,639.12,744.84s18.3-53.19,14.87-61.2-10.29-1.14-17.16,4.58-69.77,47.47-75.49,50.32c-1.5.75-2.87,1.38-4.09,1.9-1.65,3.13-3.65,8-2.2,11.26,2.29,5.15,12,12,12,12l-17.3,25.95Z"/><path class="cls-15" d="M639.12,744.84c9.72-17.16,18.3-53.19,14.87-61.2-2-4.64-5.13-4.27-8.76-2,2.41,10.7,0,31.31-11.83,53.51-10.54,19.82-43.11,54.83-59.53,71.88,4.46,2.94,8.18,5.1,9.78,5.33C587.65,812.89,629.4,762,639.12,744.84Z"/><g class="cls-26"><path class="cls-7" d="M584.23,812.17a5.06,5.06,0,0,0,.49-.27l.15-.09c.24-.16.49-.35.77-.57a2.61,2.61,0,0,0,.27-.22l.67-.56.37-.33.89-.82.55-.53.75-.73.65-.65.63-.65,1.64-1.71.26-.27,1-1.1.4-.44c1.2-1.3,2.46-2.71,3.79-4.21l.1-.12c.47-.52.93-1.06,1.41-1.6h0l-10-6.42c-5.69,6.18-11,11.75-15.19,16.12h0l1.55,1,.22.14c.48.31,1,.61,1.41.89l0,0c.78.48,1.51.91,2.2,1.3l.63.37.65.34.72.37.5.24c.25.11.48.21.7.29l.35.14a5.1,5.1,0,0,0,.82.22.94.94,0,0,0,.43-.08Z"/><path class="cls-11" d="M584.23,812.17a5.06,5.06,0,0,0,.49-.27l.15-.09c.24-.16.49-.35.77-.57a2.61,2.61,0,0,0,.27-.22l.67-.56.37-.33.89-.82.55-.53.75-.73.65-.65.63-.65,1.64-1.71.26-.27,1-1.1.4-.44c1.2-1.3,2.46-2.71,3.79-4.21l.1-.12c.47-.52.93-1.06,1.41-1.6h0l-10-6.42c-5.69,6.18-11,11.75-15.19,16.12h0l1.55,1,.22.14c.48.31,1,.61,1.41.89l0,0c.78.48,1.51.91,2.2,1.3l.63.37.65.34.72.37.5.24c.25.11.48.21.7.29l.35.14a5.1,5.1,0,0,0,.82.22.94.94,0,0,0,.43-.08Z"/></g><path class="cls-9" d="M639.12,744.84c9.72-17.16,18.3-53.19,14.87-61.2-2-4.64-5.13-4.27-8.76-2,2.41,10.7,0,31.31-11.83,53.51-10.54,19.82-43.11,54.83-59.53,71.88,4.46,2.94,8.18,5.1,9.78,5.33C587.65,812.89,629.4,762,639.12,744.84Z"/><path class="cls-4" d="M548.19,825.47C531,814.61,511.59,784.3,511,774a17.32,17.32,0,0,1,.26-3.37,16.51,16.51,0,0,0-9.41,3.37s-12.59-11.44-22.31-17.73c-7-4.5-16-5.78-20.51-6.14-8.31,6.82-16,12.34-17.23,17-2.29,8.58,13.15,42.89,50.32,66.91s49.76,20,60.62,17.73S565.35,836.34,548.19,825.47Z"/><path class="cls-15" d="M548.19,825.47c-5.07-3.2-10.32-8.13-15.24-13.71-11.81-5-27.55-11.52-41.38-20-14.87-9.15-11.44-14.87-20-23.45-6.58-6.58-19.53-7.43-25.21-7.48-2.35,2.29-4,4.39-4.52,6.34-2.29,8.58,13.15,42.89,50.32,66.91s49.76,20,60.62,17.73S565.35,836.34,548.19,825.47Z"/><g class="cls-27"><path class="cls-7" d="M548.19,825.47c-5.07-3.2-10.32-8.13-15.24-13.71-11.81-5-27.55-11.52-41.38-20-14.87-9.15-11.44-14.87-20-23.45-6.58-6.58-19.53-7.43-25.21-7.48-2.35,2.29-4,4.39-4.52,6.34-2.29,8.58,13.15,42.89,50.32,66.91s49.76,20,60.62,17.73S565.35,836.34,548.19,825.47Z"/><path class="cls-11" d="M548.19,825.47c-5.07-3.2-10.32-8.13-15.24-13.71-11.81-5-27.55-11.52-41.38-20-14.87-9.15-11.44-14.87-20-23.45-6.58-6.58-19.53-7.43-25.21-7.48-2.35,2.29-4,4.39-4.52,6.34-2.29,8.58,13.15,42.89,50.32,66.91s49.76,20,60.62,17.73S565.35,836.34,548.19,825.47Z"/></g><path class="cls-9" d="M548.19,825.47c-5.07-3.2-10.32-8.13-15.24-13.71-11.81-5-27.55-11.52-41.38-20-14.87-9.15-11.44-14.87-20-23.45-6.58-6.58-19.53-7.43-25.21-7.48-2.35,2.29-4,4.39-4.52,6.34-2.29,8.58,13.15,42.89,50.32,66.91s49.76,20,60.62,17.73S565.35,836.34,548.19,825.47Z"/><path class="cls-10" d="M551.05,829.48c-14.87-8.58-45.18-14.3-64.63-27.45s-14.29-24.6-28.59-33.75c-6.57-4.2-12.05-3.21-16.06-.91-2,8.91,13.5,42.86,50.37,66.68,37.18,24,49.76,20,60.62,17.73,7.23-1.52,10.36-7.85,6.65-15.11A31.41,31.41,0,0,0,551.05,829.48Z"/><g class="cls-28"><path class="cls-22" d="M551.05,829.48c-14.87-8.58-45.18-14.3-64.63-27.45s-14.29-24.6-28.59-33.75c-6.57-4.2-12.05-3.21-16.06-.91-2,8.91,13.5,42.86,50.37,66.68,37.18,24,49.76,20,60.62,17.73,7.23-1.52,10.36-7.85,6.65-15.11A31.41,31.41,0,0,0,551.05,829.48Z"/></g><path class="cls-9" d="M551.05,829.48c-14.87-8.58-45.18-14.3-64.63-27.45s-14.29-24.6-28.59-33.75c-6.57-4.2-12.05-3.21-16.06-.91-2,8.91,13.5,42.86,50.37,66.68,37.18,24,49.76,20,60.62,17.73,7.23-1.52,10.36-7.85,6.65-15.11A31.41,31.41,0,0,0,551.05,829.48Z"/><path class="cls-3" d="M266.07,720.08s11-13.33,12.54-3.13S277.83,746,270,753s-11.76-3.92-11.76-3.92l4.7-6.27s3.92,7.84,7.06-4.7-6.28-11-6.28-11Z"/><path class="cls-3" d="M257.66,770.26c-6.49,4.81-27.66,4.81-34.16,0-13.74-10.17-11.38-59.35-11.38-59.35H269S271.41,760.09,257.66,770.26Z"/><path class="cls-9" d="M218.3,701.26c0-6.19,5.73-6.19,5.73-12.38s-5.73-6.19-5.73-12.38,5.73-6.19,5.73-12.39-5.73-6.19-5.73-12.39,5.73-6.2,5.73-12.4"/><path class="cls-9" d="M238,701.26c0-4.7,5.73-4.7,5.73-9.4s-5.73-4.7-5.73-9.4,5.73-4.7,5.73-9.41-5.73-4.71-5.73-9.41,5.73-4.71,5.73-9.42"/><path class="cls-9" d="M259.56,701.26c0-6.19,5.74-6.19,5.74-12.38s-5.74-6.19-5.74-12.38,5.74-6.19,5.74-12.39-5.74-6.19-5.74-12.39,5.74-6.2,5.74-12.4"/><path class="cls-3" d="M269,710.91c0,1.43-12.74,2.59-28.44,2.59s-28.44-1.16-28.44-2.59,12.73-2.59,28.44-2.59S269,709.48,269,710.91Z"/><path class="cls-15" d="M321.5,357s2.66,28.89,3.78,38,3.68,35.34,6.31,44,17,23.75,18.35,20.26,8.48-27,5.64-41-3.71-26.18-1.94-29.69,8.1-7.56,8.1-7.56a225,225,0,0,1-21.48-12.51C330.07,361.61,322.9,353.88,321.5,357Z"/><g class="cls-29"><path class="cls-7" d="M358.2,382.31l-2.33-4.46c-4.2-2.3-10.06-5.67-15.61-9.39-10.19-6.85-17.36-14.58-18.76-11.47,0,0,2.66,28.89,3.78,38s3.68,35.34,6.31,44a29,29,0,0,0,3.67,7.13c-2.77-17.25.23-48.39.23-48.39Z"/><path class="cls-11" d="M358.2,382.31l-2.33-4.46c-4.2-2.3-10.06-5.67-15.61-9.39-10.19-6.85-17.36-14.58-18.76-11.47,0,0,2.66,28.89,3.78,38s3.68,35.34,6.31,44a29,29,0,0,0,3.67,7.13c-2.77-17.25.23-48.39.23-48.39Z"/></g><path class="cls-9" d="M321.5,357s2.66,28.89,3.78,38,3.68,35.34,6.31,44,17,23.75,18.35,20.26,8.48-27,5.64-41-3.71-26.18-1.94-29.69,8.1-7.56,8.1-7.56a225,225,0,0,1-21.48-12.51C330.07,361.61,322.9,353.88,321.5,357Z"/><path class="cls-15" d="M320.43,361.11s16.47,13.79,29.12,18.77,32,4.71,34.77-1.87-4.79-58.55-11.3-72.24-13.5-13.91-25-14.95-34.52,8.33-38.56,19.44.56,26.87,3.91,36.19A69.18,69.18,0,0,0,320.43,361.11Z"/><g class="cls-30"><path class="cls-7" d="M350,360.5c-5.84-17.35-7.27-44.51-7.27-51.78,0-5.6,14.6-11.75,21.27-14.26-4.37-2.71-9.45-3-16-3.64-11.49-1-34.52,8.33-38.56,19.44s.56,26.87,3.91,36.19a69.18,69.18,0,0,0,7.05,14.66s16.47,13.79,29.12,18.77c8.42,3.32,19.82,4.29,27.32,2.63C367.93,379.1,353.92,372.06,350,360.5Z"/><path class="cls-11" d="M350,360.5c-5.84-17.35-7.27-44.51-7.27-51.78,0-5.6,14.6-11.75,21.27-14.26-4.37-2.71-9.45-3-16-3.64-11.49-1-34.52,8.33-38.56,19.44s.56,26.87,3.91,36.19a69.18,69.18,0,0,0,7.05,14.66s16.47,13.79,29.12,18.77c8.42,3.32,19.82,4.29,27.32,2.63C367.93,379.1,353.92,372.06,350,360.5Z"/></g><path class="cls-9" d="M320.43,361.11s16.47,13.79,29.12,18.77,32,4.71,34.77-1.87-4.79-58.55-11.3-72.24-13.5-13.91-25-14.95-34.52,8.33-38.56,19.44.56,26.87,3.91,36.19A69.18,69.18,0,0,0,320.43,361.11Z"/><path class="cls-9" d="M374.25,327.13c.26,6.59-3.87,12.1-9.22,12.31s-9.9-5-10.16-11.55,3.87-12.1,9.22-12.31S374,320.54,374.25,327.13Z"/><path class="cls-9" d="M387.2,324.63c.26,6.59-1.87,12-4.75,12.13S377,331.63,376.76,325s1.87-12,4.75-12.13S386.94,318,387.2,324.63Z"/><path class="cls-3" d="M374.92,324.76s18.9,3.59,17.09,8.14-14.6,9.47-14.6,9.47"/><path class="cls-9" d="M373.77,322.66s.26-2.34,3.18-.84"/><line class="cls-9" x1="354.33" y1="328.97" x2="319.98" y2="342.49"/><path class="cls-31" d="M354.79,317.86a8.72,8.72,0,0,1,8.56-5.17"/><line class="cls-31" x1="377.68" y1="312.84" x2="372.39" y2="314.84"/><path class="cls-9" d="M361.33,351.22s6.8-1.79,10.78,2.25"/><path class="cls-10" d="M365.77,328.39c.31,2.29-.11,4.24-.94,4.36s-1.77-1.65-2.08-3.95.11-4.25.94-4.36S365.46,326.09,365.77,328.39Z"/><path class="cls-4" d="M323.19,342.58s-2.31,4.57,4.17,4.82,10.84-2.92,7.7-6.78-7.77-7.66-3-12.82,14.07-9.52,8.86-15.29-24.41-.53-19.62-5.2,27-9.53,37-8.92,28.59-7.1,32.68-17.22-1.64-28.81-15-27.79S352.54,266.25,346.6,267s-18.15-5.75-28.38.12-10.57,22.33-11.48,24.35-14.74,5.06-17.17,19.1,4,25.23,9.7,31.48,8.3,8.63,8.3,8.63Z"/><path class="cls-32" d="M294.08,317.24a10.84,10.84,0,0,0,1.48,6.09"/><path class="cls-32" d="M352.4,281s-5-10.91,7.74-10.91S374.69,286,361.5,292s-41.84,7.27-57.3,14.1a20.07,20.07,0,0,0-7.88,5.57"/><path class="cls-32" d="M329.37,319.78c-4.57,1.64-10.5,3.93-16.53,6.73-12.74,5.91-10,11.83-10,11.83"/><path class="cls-32" d="M337.85,317s-1.11.33-3,1"/><path class="cls-15" d="M325.37,347.47s-7.39-10.66-15.19-6.37-1.72,19.49,3,24.78,13.76-4.53,14.66-7.05"/><g class="cls-33"><path class="cls-7" d="M325.37,347.47s-7.39-10.66-15.19-6.37-1.72,19.49,3,24.78,13.76-4.53,14.66-7.05"/><path class="cls-11" d="M325.37,347.47s-7.39-10.66-15.19-6.37-1.72,19.49,3,24.78,13.76-4.53,14.66-7.05"/></g><path class="cls-9" d="M325.37,347.47s-7.39-10.66-15.19-6.37-1.72,19.49,3,24.78,13.76-4.53,14.66-7.05"/><rect class="cls-3" x="56.36" y="337.75" width="187.39" height="143.3" rx="5.12"/><polyline class="cls-3" points="240.19 440.84 349.99 469.43 240.19 415.67"/><rect class="cls-2" x="71.52" y="351.53" width="44.09" height="115.74"/><rect class="cls-2" x="228.52" y="351.53" width="5.51" height="115.74"/><rect class="cls-4" x="228.52" y="404.46" width="5.51" height="9.89"/><line class="cls-3" x1="129.39" y1="354.29" x2="216.2" y2="354.29"/><line class="cls-3" x1="129.39" y1="366.69" x2="216.2" y2="366.69"/><line class="cls-3" x1="129.39" y1="379.09" x2="216.2" y2="379.09"/><line class="cls-3" x1="129.39" y1="391.49" x2="216.2" y2="391.49"/><line class="cls-3" x1="129.39" y1="421.8" x2="216.2" y2="421.8"/><line class="cls-3" x1="129.39" y1="432.83" x2="216.2" y2="432.83"/><line class="cls-3" x1="129.39" y1="443.85" x2="216.2" y2="443.85"/><line class="cls-3" x1="129.39" y1="466.72" x2="216.2" y2="466.72"/><line class="cls-9" x1="71.52" y1="467.27" x2="115.61" y2="351.53"/><ellipse class="cls-7" cx="735.88" cy="770.43" rx="38.26" ry="17.17"/><ellipse class="cls-11" cx="735.88" cy="770.43" rx="38.26" ry="17.17"/><path class="cls-10" d="M691.11,516.55c4.1,1.79,14.11,1.57,14.12,1.57s-2.15-6.56-2.34-7c-2.2-4.6-9.15-12.19-14.8-11.42a6.74,6.74,0,0,0-5.42,8.46C683.61,512.12,687.63,515,691.11,516.55Z"/><path class="cls-10" d="M822.33,482.46c-5.67-.61-12.42,7.16-14.49,11.82-.18.4-2.26,7-2.15,7h.12c-1.08,1.22-2.21,2.54-3.43,4-2.22,2.72-4.7,5.82-7.17,9.38a120.36,120.36,0,0,0-7.45,11.86,88.19,88.19,0,0,0-6.35,14.31c0,.06,0,.12,0,.18,0-1.67-.05-6.35-.09-6.71-.66-5.05-4.9-14.43-10.51-15.47A6.76,6.76,0,0,0,763,525.2c-.33,4,2.59,8,5.42,10.57,3.21,2.86,12.09,5.63,12.8,5.85a118.89,118.89,0,0,0-3.75,15.5c-.55,3-1,6.15-1.42,9.25,0-1.44,0-2.74-.07-2.92-.66-5.05-4.89-14.43-10.51-15.47a6.74,6.74,0,0,0-7.78,6.35c-.33,4,2.58,8,5.42,10.57s10.4,5.09,12.41,5.73c-.15,1.19-.31,2.38-.45,3.57-.69,5.73-1.35,11.45-2.16,17-.29,2-.65,3.9-1,5.83,0-1.29,0-2.37-.07-2.53-.66-5.06-4.89-14.44-10.51-15.47a6.76,6.76,0,0,0-7.79,6.35c-.32,4,2.59,8,5.43,10.57s9.67,4.84,12,5.61c-.42,2-.83,3.93-1.32,5.82-.37,1.28-.63,2.54-1.07,3.81s-.81,2.51-1.21,3.75c-.86,2.36-1.73,4.79-2.62,7.07-.61,1.59-1.22,3.09-1.83,4.61.31-2,.83-5.8.84-6.13a26.35,26.35,0,0,0-3.52-12.76,8.23,8.23,0,0,0-.09-1.49,6.75,6.75,0,0,0-8.26-5.73c-5.52,1.47-9,11.15-9.28,16.24,0,.3.19,3.57.34,5.64-.27-1.2-.53-2.37-.83-3.6-.58-2.44-1.23-4.86-1.92-7.46-.37-1.24-.75-2.5-1.14-3.77s-.89-2.56-1.33-3.86c-1.09-3-2.34-6-3.67-8.91,2.14-.52,9.69-2.44,12.73-4.77S753,584,753,579.92a6.76,6.76,0,0,0-7.3-6.91c-5.67.62-10.59,9.65-11.62,14.65-.07.31-.4,4-.55,6-.81-1.78-1.61-3.55-2.49-5.32-2.53-5.11-5.26-10.2-8-15.29q-1.23-2.34-2.44-4.68c.76-.18,9.79-2.27,13.19-4.88,3-2.32,6.22-6.11,6.19-10.13a6.76,6.76,0,0,0-7.29-6.92c-5.68.62-10.6,9.66-11.63,14.65-.08.37-.55,5.65-.61,7-1.79-3.44-3.53-6.88-5.12-10.35a117.54,117.54,0,0,1-5.57-14.38c.35-.08,9.79-2.23,13.27-4.9,3-2.31,6.22-6.1,6.19-10.13a6.76,6.76,0,0,0-7.29-6.92c-5.68.62-10.6,9.66-11.63,14.65-.08.39-.59,6.06-.61,7.1-.09-.29-.21-.57-.29-.86a87.31,87.31,0,0,1-2.89-15.19c-.32-2.83-.47-5.56-.55-8.21,1.8-.22,10-1.32,13.4-3.37s6.86-5.39,7.27-9.4a6.75,6.75,0,0,0-6.49-7.67c-5.71,0-11.59,8.43-13.16,13.28-.09.26-.66,3-1,5.07,0-1.2-.06-2.44-.05-3.59,0-4.32.28-8.27.55-11.76.17-2,.36-3.79.56-5.46,1.65-1.14,8.25-5.8,10.28-9.13s3.6-7.94,2.12-11.68a6.75,6.75,0,0,0-9.3-3.82c-5.07,2.62-6.4,12.82-5.56,17.85.07.43,2,7.1,2.07,7l.1-.07c-.22,1.61-.44,3.34-.64,5.23-.35,3.5-.71,7.45-.81,11.79a122,122,0,0,0,.33,14,88.29,88.29,0,0,0,2.59,15.44,1.27,1.27,0,0,1,.06.18c-.9-1.41-3.54-5.27-3.77-5.54-3.34-3.86-12-9.34-17.3-7.11a6.75,6.75,0,0,0-3,9.59c1.94,3.53,6.58,5.28,10.35,5.83,4.25.62,13.19-2,13.9-2.18a119.18,119.18,0,0,0,5.42,15c1.23,2.84,2.56,5.67,3.92,8.49-.81-1.19-1.55-2.25-1.67-2.39-3.33-3.86-12-9.34-17.29-7.11a6.75,6.75,0,0,0-3,9.59c1.94,3.53,6.59,5.28,10.36,5.83s11.48-1.5,13.51-2.07c.53,1.07,1,2.15,1.59,3.23,2.59,5.15,5.2,10.29,7.6,15.4.85,1.8,1.61,3.6,2.39,5.41-.73-1.06-1.35-1.95-1.45-2.08-3.34-3.85-12.05-9.34-17.3-7.1a6.75,6.75,0,0,0-3,9.59c1.94,3.53,6.58,5.28,10.35,5.82s10.74-1.3,13.15-2c.73,1.87,1.48,3.75,2.11,5.59.4,1.27.87,2.47,1.21,3.77s.71,2.54,1.06,3.79c.58,2.44,1.2,5,1.71,7.35.37,1.66.69,3.25,1,4.85-.83-1.8-2.51-5.3-2.68-5.58-2.72-4.31-10.49-11-16-9.64a6.74,6.74,0,0,0-4.41,9c1.38,3.78,5.71,6.21,9.35,7.32,4,1.23,12.88.11,14,0,.54,2.65,1,5.24,1.45,7.68,1.5,8.48,2.42,15.59,3,20.57.11.89.19,1.68.27,2.42H727.93l5.52,107.75a15.41,15.41,0,0,0,15.38,14.62h0a15.41,15.41,0,0,0,15.39-14.62l5.52-107.75h-16c.11-.24.23-.47.35-.73,2.2-4.58,5.24-11.15,8.53-19.19,1-2.54,2.11-5.28,3.18-8.09,1.07.22,9.86,2,14,1.08,3.71-.84,8.21-2.94,9.87-6.61a6.75,6.75,0,0,0-3.73-9.33c-5.41-1.82-13.66,4.32-16.69,8.42-.18.25-1.82,3.09-2.83,4.9.43-1.16.86-2.27,1.29-3.47.87-2.35,1.66-4.72,2.52-7.27.37-1.25.75-2.51,1.13-3.78s.67-2.63,1-4c.73-3.09,1.33-6.26,1.85-9.46,2.07.75,9.43,3.31,13.24,3s8.56-1.66,10.76-5a6.75,6.75,0,0,0-2.27-9.79c-5.07-2.61-14.16,2.21-17.77,5.8-.23.23-2.53,3.1-3.77,4.7.31-1.93.62-3.85.86-5.81.7-5.66,1.24-11.41,1.8-17.14.17-1.76.36-3.5.54-5.25.73.27,9.42,3.5,13.69,3.2,3.8-.26,8.56-1.66,10.76-5a6.76,6.76,0,0,0-2.27-9.79c-5.07-2.62-14.16,2.2-17.78,5.8-.27.27-3.57,4.4-4.36,5.5.4-3.86.85-7.7,1.43-11.46a120.73,120.73,0,0,1,3.29-15.07c.34.13,9.39,3.54,13.77,3.23,3.8-.26,8.56-1.66,10.76-5a6.76,6.76,0,0,0-2.27-9.79c-5.07-2.62-14.17,2.2-17.78,5.8-.28.28-3.84,4.73-4.42,5.58.08-.28.14-.59.22-.87a87.64,87.64,0,0,1,6-14.27c1.3-2.53,2.69-4.89,4.08-7.15,1.62.81,9.07,4.42,13,4.58,3.8.15,8.69-.71,11.24-3.82a6.74,6.74,0,0,0-1.18-10c-4.75-3.16-14.32.63-18.3,3.81-.22.17-2.23,2.17-3.67,3.65.64-1,1.29-2.07,1.93-3,2.39-3.6,4.8-6.74,6.95-9.51,1.24-1.56,2.39-2.95,3.48-4.24,2,0,10.08-.28,13.61-1.94s7.38-4.64,8.22-8.58A6.75,6.75,0,0,0,822.33,482.46ZM759.5,634.9c-3.42,7.89-6.58,14.34-8.85,18.81-.45.9-.87,1.7-1.25,2.43H749c-.11-.87-.23-1.83-.38-2.9-.69-5-1.78-12.19-3.47-20.71-.53-2.69-1.15-5.56-1.81-8.5a75.93,75.93,0,0,0,7.8-3.67c2.92,3.16,10.4,6.86,11.37,7.34C761.51,630.2,760.5,632.63,759.5,634.9Z"/><path class="cls-10" d="M792.43,518.76c.09,0,1.82-6.66,1.88-7.1.71-5-.9-15.21-6-17.69a6.75,6.75,0,0,0-9.19,4.07c-1.38,3.78.37,8.43,2.44,11.62C784,513.41,792.42,518.75,792.43,518.76Z"/></svg>