<svg id="Camada_1" data-name="Camada 1" xmlns="http://www.w3.org/2000/svg" viewBox="0 0 590 345"><defs><style>.cls-1{fill:#4d4d4d;}.cls-2{fill:#d8a529;}.cls-3{fill:#2d59d3;}.cls-4{fill:#212a31;}.cls-5{fill:#f90;}.cls-6{fill:#e2413e;}</style></defs><title>Logos_Docs</title><path class="cls-1" d="M25.2,230c-.75,12.19-1.57,24.37-2.2,36.55-.13,2.65-1.08,3.37-3.65,3.48-11.07.48-11,.57-9.89-10.36,1.86-18.89,3.64-37.78,5.23-56.7.25-3,1.07-4,4.17-4,14.51-.27,14.51-.37,18.16,13.52,1.37,5.23,2.78,10.46,4.1,15.71,1.28,5.09,2.46,10.2,3.77,15.6,2-2.88,1.9-6.13,2.72-9.1,3-10.77,6-21.52,8.82-32.33.62-2.39,1.53-3.26,4-3.38,15.42-.77,15.29-.82,16.51,14.52q2.08,26.35,4.66,52.66c.28,2.93-.24,3.8-3.26,3.88-10.36.29-10.45.41-11.24-10-.9-12-1.61-24-3-36.17q-2.73,9.38-5.44,18.73c-2.26,7.8-4.66,15.56-6.7,23.42-.77,3-1.94,4.11-5.15,4.07-8.29-.1-8.33.09-10.41-7.72Q31.67,244.21,26.9,226c-.48.08-.32-1.72-1-.48S25.89,228.59,25.2,230Z"/><path class="cls-2" d="M554.11,198.71c6.46,0,12.91.11,19.36,0,2.92-.08,3.68.77,3.45,3.8-.89,12.07-.76,12.08-12.64,12.08-4.41,0-8.83.12-13.24,0-2.59-.1-3.68.88-3.85,3.43-.25,3.89-.64,7.77-1.13,11.64-.32,2.61.37,3.71,3.24,3.42a30,30,0,0,1,9.63.44c25,5.77,26.75,31.07,15.22,45.38-10.28,12.77-33.39,19-48.83,13.31-2.91-1.08-4-5.67-2.48-10.51,1-3.38,3.21-1.24,4.92-1,7.86,1.17,15.57,1.24,22.81-2.69,5.7-3.1,9.41-7.67,10.44-14.2a14.11,14.11,0,0,0-13.07-16.65,44.27,44.27,0,0,0-18,2.56c-2.84.94-3.66.34-3.4-2.59,1.35-15,2.67-30.06,3.85-45.09.21-2.73,1.41-3.34,3.87-3.3C540.86,198.79,547.49,198.71,554.11,198.71Z"/><path class="cls-1" d="M243.82,240.33c0-8.64-.08-17.28.05-25.92,0-2.77-.72-4.09-3.71-3.79-2.19.22-4.41,0-6.61,0-7.05,0-9.08-2.86-7.23-9.8.51-1.9,1.72-1.8,3.06-1.8,15.1,0,30.19,0,45.29,0,2.35,0,3.07.81,2.34,3a6.69,6.69,0,0,0-.14,1c-1.19,7.64-1.19,7.64-8.94,7.64-9.52,0-9.52,0-9.52,9.48,0,14.91-.11,29.82.08,44.73.05,3.76-.61,5.35-4.9,5.22-9.76-.27-9.77,0-9.77-9.94Z"/><path class="cls-1" d="M171.17,217.72c-1.69,5.28-2,10.76-9.23,9.33-2.38-.47-2.76,1.16-2.74,3.11.07,8.48,0,17,.11,25.43,0,4.44,2.26,6.84,6.74,5.92s4.38,1.78,5.13,4.73c1,4-2.1,3.76-4,4.22a23.12,23.12,0,0,1-9.57.67c-8.27-1.46-11.91-5.34-12.06-13.68-.15-8.65,0-17.3,0-25.94,0-2.32.62-4.69-3.32-4.64-3.43,0-1.62-3.12-1.72-4.75-.09-1.45-1.53-4.36,1.66-4.28s3.41-1.42,3.43-4c.06-8.12,4-11.6,12.33-11.5,1.8,0,1.92.84,1.86,2.15-.13,2.71,0,5.44-.41,8.12-.5,3.76.39,5.77,4.71,5.13A54.3,54.3,0,0,1,171.17,217.72Z"/><path class="cls-1" d="M485.53,223.48c4.58-4.25,8.46-7.53,14.17-6.89,2.34.27,3.48,1,2.51,3.56a37.74,37.74,0,0,0-1.5,4.85c-.63,2.74-1.44,4.22-5,3.88-5.83-.55-8.79,2.91-8.8,8.88,0,9.51-.09,19,.06,28.51,0,2.82-.73,3.74-3.67,3.8-10.22.19-10,.31-10.26-10.05-.29-12.69,1.23-25.45-1.26-38.06-.36-1.79.39-2.51,1.88-2.92,1.14-.31,2.33-.49,3.44-.9C481.54,216.44,485.41,215.87,485.53,223.48Z"/><path class="cls-1" d="M291.75,223c3.65-3.46,7.41-6.88,13.11-6.42,2.76.22,4.19,1,2.77,4.08a21.86,21.86,0,0,0-1.44,4.85c-.56,2.77-1.79,3.59-4.86,3.38-5.95-.43-9,2.88-9,8.75,0,9.47-.13,18.95.07,28.43.06,3.09-.8,4-4,4-9.67,0-9.48.18-9.72-9.42-.32-13,1.35-26.07-1.44-38.95-.35-1.66.32-2.16,1.56-2.51a59.11,59.11,0,0,1,8.33-2.19C291.77,216.4,289.64,221.3,291.75,223Z"/><path class="cls-1" d="M407.22,262.51c.24-3-.17-6.1-.18-9.15q0-23.4,0-46.81c0-10.24,0-10.08-10.27-11.69-3-.47-3.48.36-3.44,3,.12,6.93,0,13.86,0,21.09-11.63-5.37-23.51-.91-28.47,10.65a38.56,38.56,0,0,0-1.87,24c3.37,15.26,15.8,21.19,30.68,15,.81-.34,1.32-1.16,2.51-.07,3.42,3.12,7.89,1.92,11.38.91C409.67,268.79,407,265,407.22,262.51ZM393.7,244.14c0,2.7-.2,5.42,0,8.1.36,3.79-1,6.35-4.74,7.15-4.09.88-8.32.5-9.88-3.93a32.27,32.27,0,0,1,.45-23.25c1.53-3.79,4.88-5,8.84-3.94,3.62,1,5.88,3,5.35,7.25A72.84,72.84,0,0,0,393.7,244.14Z"/><path class="cls-1" d="M218.94,260.76c-.88-.67-1.21-2.46-1.26-3.74-.15-4.24-.06-8.48-.06-11.2-.32-6.43-.32-11.37-.88-16.24-.84-7.34-5.2-11.74-12.4-12.75-9.13-1.27-17.43,1.31-25.29,5.81-1.8,1-1.89,2-.82,3.55a22.37,22.37,0,0,1,2.35,3.92c1.33,3.12,2.89,3.34,5.7,1.4a19.07,19.07,0,0,1,13-3.62c4.41.45,4.63,3.89,4.84,7.14.26,4.15-2.93,2.06-4.7,2.34-3,.47-6.12.45-9.07,1.15-5.8,1.36-10.9,3.87-13.26,9.92-2.77,7.1-1,15.45,4.14,19.63,5.83,4.72,16.73,5.4,23,1,2.48-1.76,3.79-2.26,6,.43,2.37,2.93,5.12,4.1,8-.24C220,266.33,223.5,264.25,218.94,260.76Zm-15.16-7.94c-.51,2.32.65,4.74-1.16,6.53a7.84,7.84,0,0,1-7.92,2.21c-2.87-.79-3.9-3.19-4.22-5.77-.38-3,.5-5.75,3.43-7.3a12.3,12.3,0,0,1,7.92-1.18C205.56,248,202.73,251.21,203.78,252.82Z"/><path class="cls-1" d="M352.77,260.46c-3.55-4.3-1.1-10.52-1.72-15.86,0-4.07.05-8.14,0-12.21a21.19,21.19,0,0,0-.56-3.51c-1.46-7.41-5.59-11.3-13-12.14-8.78-1-16.75,1.44-24.31,5.74-2,1.1-2.36,2.06-1,3.88a18.94,18.94,0,0,1,2.31,3.93c1.22,2.89,2.65,3.26,5.33,1.39a19.25,19.25,0,0,1,12.92-3.81c4.59.42,5.07,3.9,5.16,7.41.1,4.22-3.15,1.74-4.84,2.12-2.3.52-4.75.36-7.07.81-6.93,1.37-13.06,3.94-15.47,11.43-2.28,7.08-.4,14.51,4.64,18.58,5.46,4.41,16.06,5.27,22.1,1.25,2.88-1.92,4.66-2.86,7.21.45,2.12,2.75,4.71,3.22,7.19-.4C353.7,266.53,356.37,264.81,352.77,260.46Zm-15.14-7.75c-.28,6.74-2.61,9.46-7.62,9.13-3.71-.24-5.92-3.2-5.67-7.58.28-4.93,3.83-7.17,10.35-7.1C339.91,247.22,336.77,251,337.63,252.71Z"/><path class="cls-1" d="M108.83,248.18c3.88.27,7.8.06,11.7.06h2.54c14.78,0,14.75,0,11.2-14.77-2-8.15-6.1-14.27-14.73-16.37-14.38-3.51-26.53,5.46-28.71,21.72-1.47,11,.51,21.24,10.25,28,9.46,6.59,19.46,5.38,29.38.49,4-2,4.82-3.92,1.94-7.88-2.12-2.91-3.45-3.35-6.21-1.17a13.65,13.65,0,0,1-5.1,2.15c-8,2-13.85-1.25-15.29-8.3C105.28,249.6,105.42,247.94,108.83,248.18Zm.81-20.3a7.33,7.33,0,0,1,9,.36c2.71,2.08,2.74,5.26,3,8.28.12,1.46-1,1.56-2,1.58-2,0-4,0-6.08,0a3.41,3.41,0,0,1-1,0c-2.21-.6-5.79,1.58-6.51-1.42A8.19,8.19,0,0,1,109.64,227.88Z"/><path class="cls-1" d="M435.77,248.21c4.07.11,8.14,0,12.21,0h3.57c13.36,0,13.36,0,10.95-13.14-2-11.09-9.14-17.93-19.19-18.47C432,216,423,222.12,419.67,232.68c-1.44,4.61-1.48,9.36-1.22,14.1.55,9.77,4.1,17.88,13.57,22.08,10,4.43,19.52,2.72,28.46-3.16.88-.58,2.48-1.09,1.57-2.65-1.29-2.18-2.43-4.69-4.32-6.19-1.66-1.32-3,1.45-4.77,1.93-1.13.32-2.14,1-3.26,1.4-8.67,2.73-15.31-1-16.48-9C432.88,248.87,433.5,248.14,435.77,248.21Zm2-20.66c3.27-1.66,6.55-1.43,9.21,1.47a9.5,9.5,0,0,1,2.14,5.56c.28,2.31.05,4-3,3.58a38.64,38.64,0,0,0-5.05,0,3.41,3.41,0,0,1-1,0c-2.18-.67-5.81,1.67-6.43-1.51A8.11,8.11,0,0,1,437.74,227.55Z"/><path class="cls-2" d="M82.55,183.85H54V146.57H37.79v37.28H9.24V73.12H63c12.61,0,19.54,5,19.54,18.16v28.41C82.55,128,78.67,132,72.3,134v.28c6.23.83,10.25,4.71,10.25,13ZM54,121.35V98.48H37.79v22.87Z"/><path class="cls-2" d="M169,166.39c0,12.33-6.38,17.46-19,17.46H112.76c-11.92,0-19-4.85-19-17.46V90.72c0-11.78,6.37-17.6,19-17.6H150c12.06,0,19,5,19,17.6Zm-28.55-7.9V98.62H122.32v59.87Z"/><path class="cls-2" d="M253.56,165.83c0,11.23-7.34,18-19.68,18H180.25V73.12H234c12.61,0,19.54,5,19.54,18.16v22.45c0,8.31-3.74,12.19-9.56,14.27v.28c5.68,1,9.56,4.71,9.56,13ZM225,115.39V98.48H208.8v16.91Zm0,43.1V140.61H208.8v17.88Z"/><path class="cls-2" d="M340,166.39c0,12.33-6.38,17.46-19,17.46H283.77c-11.92,0-19-4.85-19-17.46V90.72c0-11.78,6.37-17.6,19-17.6h37.28c12.06,0,19,5,19,17.6ZM323.41,66.61H310.52l-8.46-7.48-8.45,7.48H280.86l16.63-15.52h9.15Zm-11.92,91.88V98.62H293.33v59.87Z"/><path class="cls-2" d="M417.37,166.39c0,12.75-6.93,17.46-19.41,17.46h-46.7V158.49h37.56V140.75h-18.3c-15.66,0-19.26-7.62-19.26-17.32V91.28c0-13.17,6.79-18.16,19.4-18.16h43.93V98.48H379.81v16.91h18c13.3,0,19.54,5.54,19.54,18.85Z"/><path class="cls-3" d="M87.57,179.83H59V142.55H42.81v37.28H14.26V69.11H68c12.61,0,19.54,5,19.54,18.15v28.41c0,8.31-3.88,12.33-10.25,14.27v.28c6.23.83,10.25,4.71,10.25,13ZM59,117.33V94.47H42.81v22.86Z"/><path class="cls-3" d="M174.05,162.37c0,12.34-6.38,17.46-19,17.46H117.78c-11.91,0-19-4.85-19-17.46V86.71c0-11.78,6.37-17.6,19-17.6h37.28c12.06,0,19,5,19,17.6Zm-28.55-7.9V94.6H127.35v59.87Z"/><path class="cls-3" d="M258.58,161.82c0,11.22-7.34,18-19.68,18H185.27V69.11H239c12.61,0,19.54,5,19.54,18.15v22.45c0,8.31-3.74,12.2-9.56,14.27v.28c5.68,1,9.56,4.71,9.56,13ZM230,111.37V94.47H213.82v16.9Zm0,43.1V136.6H213.82v17.87Z"/><path class="cls-3" d="M345.06,162.37c0,12.34-6.38,17.46-19,17.46H288.79c-11.92,0-19-4.85-19-17.46V86.71c0-11.78,6.37-17.6,19-17.6h37.28c12.06,0,19,5,19,17.6ZM328.43,62.59H315.54l-8.45-7.48-8.46,7.48H285.88l16.63-15.52h9.15Zm-11.92,91.88V94.6H298.36v59.87Z"/><path class="cls-3" d="M422.39,162.37c0,12.75-6.93,17.46-19.4,17.46H356.28V154.47h37.56V136.73H375.55c-15.66,0-19.27-7.62-19.27-17.32V87.26c0-13.17,6.79-18.15,19.4-18.15h43.94V94.47H384.83v16.9h18c13.3,0,19.54,5.55,19.54,18.85Z"/><path class="cls-4" d="M575.46,112.5a.85.85,0,0,1-.85-.85v-9.22a.86.86,0,1,1,1.71,0v9.22A.86.86,0,0,1,575.46,112.5Z"/><path class="cls-4" d="M575.46,169.45a.85.85,0,0,1-.85-.85v-9.22a.85.85,0,0,1,.85-.85.86.86,0,0,1,.86.85v9.22A.86.86,0,0,1,575.46,169.45Z"/><path class="cls-4" d="M579.91,160.23H571a.85.85,0,0,1-.85-.85V111.65a.85.85,0,0,1,.85-.85h8.89a.85.85,0,0,1,.85.85v47.73A.85.85,0,0,1,579.91,160.23Zm-8-1.7h7.18v-46h-7.18Z"/><path class="cls-4" d="M438.65,113.9a.85.85,0,0,1-.85-.85v-9.22a.86.86,0,1,1,1.71,0v9.22A.86.86,0,0,1,438.65,113.9Z"/><path class="cls-4" d="M438.65,169.38a.86.86,0,0,1-.85-.86V159.3a.85.85,0,0,1,.85-.85.86.86,0,0,1,.86.85v9.22A.87.87,0,0,1,438.65,169.38Z"/><rect class="cls-5" x="434.21" y="113.1" width="8.89" height="46.2"/><path class="cls-4" d="M458.2,107a.85.85,0,0,1-.86-.85V96.89a.86.86,0,0,1,1.71,0v9.23A.85.85,0,0,1,458.2,107Z"/><path class="cls-4" d="M458.2,139.28a.85.85,0,0,1-.86-.86V129.2a.86.86,0,0,1,1.71,0v9.22A.85.85,0,0,1,458.2,139.28Z"/><path class="cls-4" d="M462.64,130.06h-8.89a.85.85,0,0,1-.85-.86V106.12a.85.85,0,0,1,.85-.86h8.89a.85.85,0,0,1,.85.86V129.2A.85.85,0,0,1,462.64,130.06Zm-8-1.71h7.18V107h-7.18Z"/><path class="cls-4" d="M458.2,140.13a.85.85,0,0,1-.86-.85v-.86a.86.86,0,0,1,1.71,0v.86A.85.85,0,0,1,458.2,140.13Z"/><path class="cls-4" d="M458.2,165.18a.85.85,0,0,1-.86-.85v-1.67a.86.86,0,1,1,1.71,0v1.67A.85.85,0,0,1,458.2,165.18Zm0-5a.85.85,0,0,1-.86-.85v-1.67a.86.86,0,1,1,1.71,0v1.67A.85.85,0,0,1,458.2,160.17Zm0-5a.85.85,0,0,1-.86-.85v-1.67a.86.86,0,1,1,1.71,0v1.67A.85.85,0,0,1,458.2,155.16Zm0-5a.85.85,0,0,1-.86-.85v-1.67a.86.86,0,1,1,1.71,0v1.67A.85.85,0,0,1,458.2,150.15Zm0-5a.85.85,0,0,1-.86-.85v-1.67a.86.86,0,1,1,1.71,0v1.67A.85.85,0,0,1,458.2,145.14Z"/><path class="cls-4" d="M458.2,169.38a.86.86,0,0,1-.86-.86v-.85a.86.86,0,1,1,1.71,0v.85A.86.86,0,0,1,458.2,169.38Z"/><path class="cls-4" d="M477.74,77.08a.85.85,0,0,1-.85-.85V67a.85.85,0,1,1,1.7,0v9.23A.85.85,0,0,1,477.74,77.08Z"/><path class="cls-4" d="M477.74,136.16a.85.85,0,0,1-.85-.86v-9.22a.85.85,0,1,1,1.7,0v9.22A.85.85,0,0,1,477.74,136.16Z"/><rect class="cls-5" x="473.3" y="76.23" width="8.89" height="49.86"/><path class="cls-4" d="M477.74,137a.85.85,0,0,1-.85-.85v-.86a.85.85,0,0,1,1.7,0v.86A.85.85,0,0,1,477.74,137Z"/><path class="cls-4" d="M477.74,165.37a.85.85,0,0,1-.85-.85v-1.58a.85.85,0,1,1,1.7,0v1.58A.85.85,0,0,1,477.74,165.37Zm0-4.73a.85.85,0,0,1-.85-.85v-1.57a.85.85,0,1,1,1.7,0v1.57A.85.85,0,0,1,477.74,160.64Zm0-4.72a.85.85,0,0,1-.85-.86v-1.57a.85.85,0,0,1,1.7,0v1.57A.85.85,0,0,1,477.74,155.92Zm0-4.73a.85.85,0,0,1-.85-.85v-1.58a.85.85,0,1,1,1.7,0v1.58A.85.85,0,0,1,477.74,151.19Zm0-4.72a.86.86,0,0,1-.85-.86V144a.85.85,0,1,1,1.7,0v1.57A.86.86,0,0,1,477.74,146.47Zm0-4.73a.85.85,0,0,1-.85-.86v-1.57a.85.85,0,1,1,1.7,0v1.57A.85.85,0,0,1,477.74,141.74Z"/><path class="cls-4" d="M477.74,169.38a.86.86,0,0,1-.85-.86v-.85a.85.85,0,1,1,1.7,0v.85A.86.86,0,0,1,477.74,169.38Z"/><path class="cls-4" d="M497.29,72.47a.85.85,0,0,1-.86-.86V62.32a.86.86,0,0,1,1.71,0v9.29A.85.85,0,0,1,497.29,72.47Z"/><path class="cls-4" d="M497.29,100.7a.85.85,0,0,1-.86-.85V90.63a.86.86,0,1,1,1.71,0v9.22A.85.85,0,0,1,497.29,100.7Z"/><path class="cls-4" d="M501.73,91.48h-8.89a.85.85,0,0,1-.85-.85v-19a.85.85,0,0,1,.85-.85h8.89a.85.85,0,0,1,.85.85v19A.85.85,0,0,1,501.73,91.48Zm-8-1.71h7.18V72.47H493.7Z"/><path class="cls-4" d="M497.29,101.56a.86.86,0,0,1-.86-.86v-.85a.86.86,0,1,1,1.71,0v.85A.86.86,0,0,1,497.29,101.56Z"/><path class="cls-4" d="M497.29,165a.85.85,0,0,1-.86-.86v-1.76a.86.86,0,0,1,1.71,0v1.76A.85.85,0,0,1,497.29,165Zm0-5.29a.85.85,0,0,1-.86-.85v-1.77a.86.86,0,0,1,1.71,0v1.77A.85.85,0,0,1,497.29,159.71Zm0-5.29a.85.85,0,0,1-.86-.85v-1.76a.86.86,0,1,1,1.71,0v1.76A.85.85,0,0,1,497.29,154.42Zm0-5.28a.85.85,0,0,1-.86-.86v-1.76a.86.86,0,0,1,1.71,0v1.76A.85.85,0,0,1,497.29,149.14Zm0-5.29a.85.85,0,0,1-.86-.85v-1.77a.86.86,0,0,1,1.71,0V143A.85.85,0,0,1,497.29,143.85Zm0-5.29a.85.85,0,0,1-.86-.85V136a.86.86,0,1,1,1.71,0v1.76A.85.85,0,0,1,497.29,138.56Zm0-5.28a.86.86,0,0,1-.86-.86v-1.76a.86.86,0,0,1,1.71,0v1.76A.86.86,0,0,1,497.29,133.28Zm0-5.29a.85.85,0,0,1-.86-.85v-1.77a.86.86,0,0,1,1.71,0v1.77A.85.85,0,0,1,497.29,128Zm0-5.29a.85.85,0,0,1-.86-.85v-1.76a.86.86,0,1,1,1.71,0v1.76A.85.85,0,0,1,497.29,122.7Zm0-5.28a.86.86,0,0,1-.86-.86V114.8a.86.86,0,0,1,1.71,0v1.76A.86.86,0,0,1,497.29,117.42Zm0-5.29a.85.85,0,0,1-.86-.85v-1.77a.86.86,0,0,1,1.71,0v1.77A.85.85,0,0,1,497.29,112.13Zm0-5.29a.85.85,0,0,1-.86-.85v-1.76a.86.86,0,1,1,1.71,0V106A.85.85,0,0,1,497.29,106.84Z"/><path class="cls-4" d="M497.29,169.38a.86.86,0,0,1-.86-.86v-.85a.86.86,0,1,1,1.71,0v.85A.86.86,0,0,1,497.29,169.38Z"/><path class="cls-4" d="M516.83,78.4a.85.85,0,0,1-.85-.85V68.33a.85.85,0,1,1,1.7,0v9.22A.85.85,0,0,1,516.83,78.4Z"/><path class="cls-4" d="M516.83,131.55a.85.85,0,0,1-.85-.86v-9.22a.85.85,0,0,1,1.7,0v9.22A.85.85,0,0,1,516.83,131.55Z"/><rect class="cls-6" x="512.39" y="77.55" width="8.89" height="43.92"/><path class="cls-4" d="M516.83,132.4a.85.85,0,0,1-.85-.85v-.86a.85.85,0,0,1,1.7,0v.86A.85.85,0,0,1,516.83,132.4Z"/><path class="cls-4" d="M516.83,164.91a.85.85,0,0,1-.85-.85v-1.81a.85.85,0,0,1,1.7,0v1.81A.85.85,0,0,1,516.83,164.91Zm0-5.42a.85.85,0,0,1-.85-.85v-1.81a.85.85,0,1,1,1.7,0v1.81A.85.85,0,0,1,516.83,159.49Zm0-5.42a.85.85,0,0,1-.85-.85v-1.81a.85.85,0,0,1,1.7,0v1.81A.85.85,0,0,1,516.83,154.07Zm0-5.41a.86.86,0,0,1-.85-.86V146a.85.85,0,1,1,1.7,0v1.8A.86.86,0,0,1,516.83,148.66Zm0-5.42a.85.85,0,0,1-.85-.86v-1.8a.85.85,0,1,1,1.7,0v1.8A.85.85,0,0,1,516.83,143.24Zm0-5.42A.85.85,0,0,1,516,137v-1.81a.85.85,0,0,1,1.7,0V137A.85.85,0,0,1,516.83,137.82Z"/><path class="cls-4" d="M516.83,169.38a.86.86,0,0,1-.85-.86v-.85a.85.85,0,1,1,1.7,0v.85A.86.86,0,0,1,516.83,169.38Z"/><path class="cls-4" d="M536.37,99.24a.85.85,0,0,1-.85-.85V89.16a.86.86,0,0,1,1.71,0v9.23A.85.85,0,0,1,536.37,99.24Z"/><path class="cls-4" d="M536.37,143.72a.85.85,0,0,1-.85-.85v-9.22a.86.86,0,0,1,1.71,0v9.22A.85.85,0,0,1,536.37,143.72Z"/><path class="cls-4" d="M540.82,134.5h-8.89a.85.85,0,0,1-.85-.85V98.39a.85.85,0,0,1,.85-.86h8.89a.85.85,0,0,1,.85.86v35.26A.85.85,0,0,1,540.82,134.5Zm-8-1.7H540V99.24h-7.18Z"/><path class="cls-4" d="M536.37,144.58a.85.85,0,0,1-.85-.86v-.85a.86.86,0,0,1,1.71,0v.85A.85.85,0,0,1,536.37,144.58Z"/><path class="cls-4" d="M536.37,165.1a.85.85,0,0,1-.85-.85v-1.71a.86.86,0,1,1,1.71,0v1.71A.85.85,0,0,1,536.37,165.1Zm0-5.13a.85.85,0,0,1-.85-.85v-1.71a.86.86,0,1,1,1.71,0v1.71A.85.85,0,0,1,536.37,160Zm0-5.13a.85.85,0,0,1-.85-.85v-1.71a.86.86,0,1,1,1.71,0V154A.85.85,0,0,1,536.37,154.84Zm0-5.13a.85.85,0,0,1-.85-.85v-1.72a.86.86,0,0,1,1.71,0v1.72A.85.85,0,0,1,536.37,149.71Z"/><path class="cls-4" d="M536.37,169.38a.86.86,0,0,1-.85-.86v-.85a.86.86,0,1,1,1.71,0v.85A.86.86,0,0,1,536.37,169.38Z"/><path class="cls-4" d="M555.92,109.09a.86.86,0,0,1-.86-.85V99a.86.86,0,1,1,1.71,0v9.22A.85.85,0,0,1,555.92,109.09Z"/><path class="cls-4" d="M555.92,152.21a.87.87,0,0,1-.86-.86v-9.22a.86.86,0,0,1,.86-.85.85.85,0,0,1,.85.85v9.22A.86.86,0,0,1,555.92,152.21Z"/><rect class="cls-6" x="551.47" y="108.24" width="8.89" height="33.89"/><path class="cls-4" d="M555.92,153.06a.86.86,0,0,1-.86-.85v-.86a.86.86,0,0,1,.86-.85.85.85,0,0,1,.85.85v.86A.85.85,0,0,1,555.92,153.06Z"/><path class="cls-4" d="M555.92,164.66a.87.87,0,0,1-.86-.86v-1.93a.86.86,0,0,1,.86-.85.85.85,0,0,1,.85.85v1.93A.86.86,0,0,1,555.92,164.66Zm0-5.8a.86.86,0,0,1-.86-.86v-1.93a.86.86,0,0,1,.86-.85.85.85,0,0,1,.85.85V158A.85.85,0,0,1,555.92,158.86Z"/><path class="cls-4" d="M555.92,169.38a.87.87,0,0,1-.86-.86v-.85a.86.86,0,1,1,1.71,0v.85A.86.86,0,0,1,555.92,169.38Z"/></svg>